<?xml version="1.0" encoding="utf-8"?>
<!-- Generator: Adobe Illustrator 24.0.1, SVG Export Plug-In . SVG Version: 6.00 Build 0)  -->
<svg version="1.1" id="Layer_1" xmlns="http://www.w3.org/2000/svg" xmlns:xlink="http://www.w3.org/1999/xlink" x="0px" y="0px"
	 viewBox="0 0 1024 600" style="enable-background:new 0 0 1024 600;" xml:space="preserve">
<style type="text/css">
	.st0{fill:#CE872A;}
	.st1{fill:#66C1D6;}
	.st2{fill:#989898;}
	.st3{fill:#979797;}
	.st4{fill-rule:evenodd;clip-rule:evenodd;fill:#E2E2E2;}
	.st5{font-family:'Tahoma';}
	.st6{font-size:34.2761px;}
	.st7{fill:none;stroke:#6DBE45;stroke-width:8;stroke-miterlimit:10;}
	.st8{fill:none;stroke:#B82025;stroke-width:8;stroke-miterlimit:10;}
</style>
<path class="st0" d="M638.42,385.52v-1.95c0-0.55-0.43-0.97-0.97-0.97h-21.4c-0.55,0-0.97,0.43-0.97,0.97v1.95
	c0,0.55,0.43,0.97,0.97,0.97h21.4C638,386.5,638.42,386.07,638.42,385.52z M638.42,393.31v-1.95c0-0.55-0.43-0.97-0.97-0.97h-21.4
	c-0.55,0-0.97,0.43-0.97,0.97v1.95c0,0.55,0.43,0.97,0.97,0.97h21.4C638,394.28,638.42,393.85,638.42,393.31z M638.42,401.09v-1.95
	c0-0.55-0.43-0.97-0.97-0.97h-21.4c-0.55,0-0.97,0.43-0.97,0.97v1.95c0,0.55,0.43,0.97,0.97,0.97h21.4
	C638,402.06,638.42,401.63,638.42,401.09z M633.56,378.72h16.53v32.1c0,1.61-1.31,2.92-2.92,2.92h-40.85
	c-1.61,0-2.92-1.31-2.92-2.92v-48.63c0-1.61,1.31-2.92,2.92-2.92h24.32v16.53C630.64,377.41,631.95,378.72,633.56,378.72z
	 M648.03,373.73c0.3,0.3,0.58,0.67,0.85,1.09h-14.35v-14.35c0.43,0.27,0.79,0.55,1.09,0.85L648.03,373.73z"/>
<path class="st1" d="M641.5,454.11v-1.95c0-0.55-0.43-0.97-0.97-0.97h-21.4c-0.55,0-0.97,0.43-0.97,0.97v1.95
	c0,0.55,0.43,0.97,0.97,0.97h21.4C641.07,455.09,641.5,454.66,641.5,454.11z M641.5,461.9v-1.95c0-0.55-0.43-0.97-0.97-0.97h-21.4
	c-0.55,0-0.97,0.43-0.97,0.97v1.95c0,0.55,0.43,0.97,0.97,0.97h21.4C641.07,462.87,641.5,462.44,641.5,461.9z M641.5,469.68v-1.95
	c0-0.55-0.43-0.97-0.97-0.97h-21.4c-0.55,0-0.97,0.43-0.97,0.97v1.95c0,0.55,0.43,0.97,0.97,0.97h21.4
	C641.07,470.65,641.5,470.22,641.5,469.68z M636.63,447.31h16.53v32.1c0,1.61-1.31,2.92-2.92,2.92H609.4
	c-1.61,0-2.92-1.31-2.92-2.92v-48.63c0-1.61,1.31-2.92,2.92-2.92h24.32v16.53C633.72,446,635.02,447.31,636.63,447.31z
	 M651.1,442.32c0.3,0.3,0.58,0.67,0.85,1.09h-14.35v-14.35c0.43,0.27,0.79,0.55,1.09,0.85L651.1,442.32z"/>
<path class="st2" d="M283.85,257.65H110.31V141.96h173.54V257.65z M153.7,315.5l8.68-14.46h69.42l8.68,14.46H153.7z M338.14,310.16
	c-3.57-5.37-25.36-38.05-25.36-38.05V141.96c0-15.94-13.02-28.92-28.92-28.92H110.31c-15.92,0-28.92,12.99-28.92,28.92v130.15
	c0,0-21.79,32.68-25.37,38.05c-3.56,5.34-3.56,8.42-3.56,12.57v7.23c0,7.23,7.23,14.46,14.45,14.46h260.34
	c7.22,0,14.45-7.23,14.45-14.46v-7.23C341.7,318.58,341.7,315.5,338.14,310.16z"/>
<path class="st2" d="M477.1,251.18l54.46-55.57l-95.66-8.31l11.43,17.68l62.26-1.72l-49.21,22.02L477.1,251.18z M543.16,191.27
	c0.5,1.41,0.18,2.88-0.84,3.94l-63.2,64.54c-0.77,0.8-1.88,1.17-3.02,1.08c-0.6-0.06-1.22-0.29-1.74-0.65
	c-0.38-0.27-0.69-0.63-0.97-1.04l-17.92-27.73l-25.03,5.65c-1.04,0.27-2.08,0.04-2.93-0.56c-0.38-0.27-0.73-0.58-0.96-0.95
	c-0.86-1.31-0.82-2.98,0.04-4.22l15.02-21.49l-16.03-24.86c-0.79-1.19-0.81-2.69-0.08-3.94c0.7-1.21,2.08-1.87,3.48-1.74L540,188.91
	C541.43,188.99,542.68,189.93,543.16,191.27L543.16,191.27z"/>
<path class="st3" d="M672.78,264.73V140.9h219.27v123.83H672.78z M905.49,110.5H659.32c-9.45,0-17.23,7.78-17.23,17.23v150.19
	c0,9.45,7.78,17.23,17.23,17.23h92.69v26.12H723.3c-2.72,0-4.92,2.2-4.92,4.92v5.35c0,2.72,2.2,4.92,4.92,4.92h115.71
	c2.72,0,4.92-2.2,4.92-4.92v-5.35c0-2.72-2.2-4.92-4.92-4.92h-26.21v-26.12h92.69c9.45,0,17.23-7.78,17.23-17.23V127.74
	C922.73,118.28,914.95,110.5,905.49,110.5z"/>
<path class="st2" d="M999.34,150.24c0,21.03-18.12,38.08-40.45,38.08H844.27c-26.02,0-47.2-19.94-47.2-44.43
	c0-17.75,11.17-33.12,27.18-40.16c-0.11-1.39-0.21-2.88-0.21-4.27c0-28.07,24.12-50.77,53.94-50.77c22.54,0,41.82,12.99,49.93,31.54
	c4.64-3.87,10.75-6.15,17.49-6.15c14.85,0,26.97,11.41,26.97,25.39c0,5.06-1.58,9.72-4.32,13.68
	C985.96,117.12,999.34,132.19,999.34,150.24z"/>
<path class="st4" d="M358.32,375.91c0-7.2-5.84-13.04-13.04-13.04H132.81c-7.2,0-13.04,5.84-13.04,13.04v26.08
	c0,7.2,5.84,13.04,13.04,13.04h212.47c7.2,0,13.04-5.85,13.04-13.04V375.91z"/>
<text transform="matrix(1 0 0 1 132.9647 401.337)" class="st5 st6">758a89ad4f61</text>
<path class="st0" d="M64.64,386.73v-1.95c0-0.55-0.43-0.97-0.97-0.97h-21.4c-0.55,0-0.97,0.43-0.97,0.97v1.95
	c0,0.55,0.43,0.97,0.97,0.97h21.4C64.22,387.7,64.64,387.27,64.64,386.73z M64.64,394.51v-1.94c0-0.55-0.43-0.97-0.97-0.97h-21.4
	c-0.55,0-0.97,0.43-0.97,0.97v1.94c0,0.55,0.43,0.97,0.97,0.97h21.4C64.22,395.48,64.64,395.05,64.64,394.51z M64.64,402.29v-1.95
	c0-0.55-0.43-0.97-0.97-0.97h-21.4c-0.55,0-0.97,0.43-0.97,0.97v1.95c0,0.55,0.43,0.97,0.97,0.97h21.4
	C64.22,403.26,64.64,402.83,64.64,402.29z M59.78,379.92h16.53v32.1c0,1.61-1.31,2.92-2.92,2.92H32.55c-1.61,0-2.92-1.31-2.92-2.92
	v-48.63c0-1.61,1.31-2.92,2.92-2.92h24.32V377C56.86,378.61,58.17,379.92,59.78,379.92z M74.25,374.93c0.3,0.3,0.58,0.67,0.85,1.09
	H60.75v-14.35c0.43,0.27,0.79,0.55,1.09,0.85L74.25,374.93z"/>
<path class="st4" d="M931.33,373.88c0-7.2-5.84-13.04-13.04-13.04H705.81c-7.2,0-13.04,5.84-13.04,13.04v26.09
	c0,7.2,5.84,13.04,13.04,13.04h212.47c7.2,0,13.04-5.84,13.04-13.04V373.88z"/>
<text transform="matrix(1 0 0 1 705.9688 399.304)" class="st5 st6">758a89ad4f61</text>
<text transform="matrix(1 0 0 1 87.9278 401.3255)" class="st5 st6">=</text>
<text transform="matrix(1 0 0 1 661.2668 396.981)" class="st5 st6">=</text>
<polyline class="st7" points="952.01,392.85 960.29,402.64 987.4,372.52 "/>
<path class="st4" d="M361.4,444.5c0-7.2-5.84-13.04-13.04-13.04H135.88c-7.2,0-13.04,5.84-13.04,13.04v26.08
	c0,7.2,5.84,13.04,13.04,13.04h212.47c7.2,0,13.04-5.85,13.04-13.04V444.5z"/>
<text transform="matrix(1 0 0 1 136.0376 469.9271)" class="st5 st6">98h1v48wnw3</text>
<path class="st1" d="M67.72,455.32v-1.95c0-0.55-0.43-0.97-0.97-0.97h-21.4c-0.55,0-0.97,0.43-0.97,0.97v1.95
	c0,0.55,0.43,0.97,0.97,0.97h21.4C67.29,456.29,67.72,455.86,67.72,455.32z M67.72,463.1v-1.95c0-0.55-0.43-0.97-0.97-0.97h-21.4
	c-0.55,0-0.97,0.43-0.97,0.97v1.95c0,0.55,0.43,0.97,0.97,0.97h21.4C67.29,464.07,67.72,463.64,67.72,463.1z M67.72,470.88v-1.95
	c0-0.55-0.43-0.97-0.97-0.97h-21.4c-0.55,0-0.97,0.43-0.97,0.97v1.95c0,0.55,0.43,0.97,0.97,0.97h21.4
	C67.29,471.85,67.72,471.42,67.72,470.88z M62.85,448.51h16.53v32.1c0,1.61-1.31,2.92-2.92,2.92H35.62c-1.61,0-2.92-1.31-2.92-2.92
	v-48.63c0-1.61,1.31-2.92,2.92-2.92h24.32v16.53C59.93,447.2,61.24,448.51,62.85,448.51z M77.32,443.52c0.3,0.3,0.58,0.67,0.85,1.09
	H63.82v-14.35c0.43,0.27,0.79,0.55,1.09,0.85L77.32,443.52z"/>
<path class="st4" d="M934.4,442.47c0-7.2-5.84-13.04-13.04-13.04H708.89c-7.2,0-13.04,5.84-13.04,13.04v26.09
	c0,7.2,5.84,13.04,13.04,13.04h212.47c7.2,0,13.04-5.84,13.04-13.04V442.47z"/>
<text transform="matrix(1 0 0 1 709.0417 467.894)" class="st5 st6">pq98wy4hvps</text>
<text transform="matrix(1 0 0 1 91.0008 469.9156)" class="st5 st6">=</text>
<text transform="matrix(1 0 0 1 664.3397 465.571)" class="st5 st6">=</text>
<line class="st8" x1="952.58" y1="437.94" x2="985.44" y2="469.55"/>
<line class="st8" x1="985.32" y1="437.45" x2="952.85" y2="469.94"/>
<path class="st0" d="M206.77,175.14v-1.38c0-0.39-0.3-0.69-0.69-0.69h-15.23c-0.39,0-0.69,0.3-0.69,0.69v1.38
	c0,0.39,0.3,0.69,0.69,0.69h15.23C206.47,175.83,206.77,175.53,206.77,175.14z M206.77,180.68v-1.38c0-0.39-0.3-0.69-0.69-0.69
	h-15.23c-0.39,0-0.69,0.3-0.69,0.69v1.38c0,0.39,0.3,0.69,0.69,0.69h15.23C206.47,181.37,206.77,181.07,206.77,180.68z
	 M206.77,186.22v-1.38c0-0.39-0.3-0.69-0.69-0.69h-15.23c-0.39,0-0.69,0.3-0.69,0.69v1.38c0,0.39,0.3,0.69,0.69,0.69h15.23
	C206.47,186.91,206.77,186.61,206.77,186.22z M203.31,170.29h11.77v22.84c0,1.15-0.93,2.08-2.08,2.08h-29.07
	c-1.15,0-2.08-0.93-2.08-2.08v-34.61c0-1.15,0.93-2.08,2.08-2.08h17.31v11.77C201.23,169.36,202.16,170.29,203.31,170.29z
	 M213.61,166.75c0.22,0.22,0.41,0.48,0.61,0.78H204v-10.21c0.3,0.2,0.56,0.39,0.78,0.61L213.61,166.75z"/>
<path class="st1" d="M208.96,223.96v-1.38c0-0.39-0.3-0.69-0.69-0.69h-15.23c-0.39,0-0.69,0.3-0.69,0.69v1.38
	c0,0.39,0.3,0.69,0.69,0.69h15.23C208.66,224.65,208.96,224.35,208.96,223.96z M208.96,229.49v-1.38c0-0.39-0.3-0.69-0.69-0.69
	h-15.23c-0.39,0-0.69,0.3-0.69,0.69v1.38c0,0.39,0.3,0.69,0.69,0.69h15.23C208.66,230.19,208.96,229.88,208.96,229.49z
	 M208.96,235.03v-1.38c0-0.39-0.3-0.69-0.69-0.69h-15.23c-0.39,0-0.69,0.3-0.69,0.69v1.38c0,0.39,0.3,0.69,0.69,0.69h15.23
	C208.66,235.73,208.96,235.42,208.96,235.03z M205.5,219.11h11.77v22.84c0,1.15-0.93,2.08-2.08,2.08h-29.07
	c-1.15,0-2.08-0.93-2.08-2.08v-34.61c0-1.15,0.93-2.08,2.08-2.08h17.31v11.77C203.42,218.18,204.35,219.11,205.5,219.11z
	 M215.79,215.56c0.22,0.22,0.41,0.48,0.61,0.78h-10.21v-10.21c0.3,0.2,0.56,0.39,0.78,0.61L215.79,215.56z"/>
<path class="st0" d="M792.06,178.63v-1.38c0-0.39-0.3-0.69-0.69-0.69h-15.23c-0.39,0-0.69,0.3-0.69,0.69v1.38
	c0,0.39,0.3,0.69,0.69,0.69h15.23C791.76,179.33,792.06,179.02,792.06,178.63z M792.06,184.17v-1.38c0-0.39-0.3-0.69-0.69-0.69
	h-15.23c-0.39,0-0.69,0.3-0.69,0.69v1.38c0,0.39,0.3,0.69,0.69,0.69h15.23C791.76,184.86,792.06,184.56,792.06,184.17z
	 M792.06,189.71v-1.38c0-0.39-0.3-0.69-0.69-0.69h-15.23c-0.39,0-0.69,0.3-0.69,0.69v1.38c0,0.39,0.3,0.69,0.69,0.69h15.23
	C791.76,190.4,792.06,190.1,792.06,189.71z M788.6,173.79h11.77v22.84c0,1.15-0.93,2.08-2.08,2.08h-29.07
	c-1.15,0-2.08-0.93-2.08-2.08v-34.61c0-1.15,0.93-2.08,2.08-2.08h17.31v11.77C786.52,172.86,787.45,173.79,788.6,173.79z
	 M798.9,170.24c0.22,0.22,0.41,0.48,0.61,0.78h-10.21v-10.21c0.3,0.2,0.56,0.39,0.78,0.61L798.9,170.24z"/>
<path class="st1" d="M794.25,227.45v-1.38c0-0.39-0.3-0.69-0.69-0.69h-15.23c-0.39,0-0.69,0.3-0.69,0.69v1.38
	c0,0.39,0.3,0.69,0.69,0.69h15.23C793.95,228.14,794.25,227.84,794.25,227.45z M794.25,232.99v-1.38c0-0.39-0.3-0.69-0.69-0.69
	h-15.23c-0.39,0-0.69,0.3-0.69,0.69v1.38c0,0.39,0.3,0.69,0.69,0.69h15.23C793.95,233.68,794.25,233.38,794.25,232.99z
	 M794.25,238.53v-1.38c0-0.39-0.3-0.69-0.69-0.69h-15.23c-0.39,0-0.69,0.3-0.69,0.69v1.38c0,0.39,0.3,0.69,0.69,0.69h15.23
	C793.95,239.22,794.25,238.92,794.25,238.53z M790.79,222.61h11.77v22.84c0,1.15-0.93,2.08-2.08,2.08H771.4
	c-1.15,0-2.08-0.93-2.08-2.08v-34.61c0-1.15,0.93-2.08,2.08-2.08h17.31v11.77C788.71,221.67,789.64,222.61,790.79,222.61z
	 M801.08,219.06c0.22,0.22,0.41,0.48,0.61,0.78h-10.21v-10.21c0.3,0.2,0.56,0.39,0.78,0.61L801.08,219.06z"/>
</svg>
