<?xml version="1.0" encoding="utf-8"?>
<!-- Generator: Adobe Illustrator 24.0.1, SVG Export Plug-In . SVG Version: 6.00 Build 0)  -->
<svg version="1.1" id="Layer_1" xmlns="http://www.w3.org/2000/svg" xmlns:xlink="http://www.w3.org/1999/xlink" x="0px" y="0px"
	 viewBox="0 0 850.39 1080" style="enable-background:new 0 0 850.39 1080;" xml:space="preserve">
<style type="text/css">
	.st0{clip-path:url(#SVGID_2_);fill:#7C001F;}
	.st1{clip-path:url(#SVGID_4_);fill:#5E5E5E;}
	.st2{clip-path:url(#SVGID_6_);fill:#5E5E5E;}
	.st3{clip-path:url(#SVGID_8_);fill:#7C001F;}
	.st4{clip-path:url(#SVGID_10_);fill:#979797;}
	.st5{clip-path:url(#SVGID_12_);}
	.st6{font-family:'Canela-Regular';}
	.st7{font-size:22px;}
	.st8{clip-path:url(#SVGID_14_);}
	.st9{clip-path:url(#SVGID_16_);}
	.st10{clip-path:url(#SVGID_18_);fill:#7C001F;}
	.st11{clip-path:url(#SVGID_20_);fill:#7C001F;}
	.st12{clip-path:url(#SVGID_22_);fill:#7C001F;}
	.st13{clip-path:url(#SVGID_24_);fill:#7C001F;}
	.st14{fill:#9E9602;}
	.st15{fill:none;}
	.st16{clip-path:url(#SVGID_26_);fill:#5E5E5E;}
	.st17{clip-path:url(#SVGID_28_);fill:#5E5E5E;}
	.st18{clip-path:url(#SVGID_30_);fill:#5E5E5E;}
	.st19{clip-path:url(#SVGID_32_);fill:#5E5E5E;}
	.st20{clip-path:url(#SVGID_34_);fill:none;stroke:#C0C0C0;stroke-width:5;}
	.st21{clip-path:url(#SVGID_36_);fill:#A9A9A9;}
	.st22{opacity:0.7652;clip-path:url(#SVGID_38_);fill:#EBEBEB;}
	.st23{clip-path:url(#SVGID_40_);}
	.st24{font-family:'Menlo-Regular';}
	.st25{font-size:17px;}
	.st26{clip-path:url(#SVGID_42_);fill:none;stroke:#929292;stroke-width:5;}
	.st27{clip-path:url(#SVGID_42_);}
	.st28{font-family:'TimesNewRomanPSMT';}
	.st29{font-size:44px;}
	.st30{opacity:0.7652;clip-path:url(#SVGID_42_);fill:#EBEBEB;}
	.st31{clip-path:url(#SVGID_44_);}
	.st32{fill:#7C001F;}
	.st33{fill:#5E5E5E;}
	.st34{fill:none;stroke:#929292;stroke-width:5;}
	.st35{clip-path:url(#SVGID_46_);fill:#7C001F;}
	.st36{clip-path:url(#SVGID_48_);fill:#7C001F;}
	.st37{clip-path:url(#SVGID_50_);fill:#5E5E5E;}
	.st38{clip-path:url(#SVGID_52_);fill:#7C001F;}
	.st39{clip-path:url(#SVGID_54_);fill:#7C001F;}
	.st40{clip-path:url(#SVGID_56_);fill:#5E5E5E;}
	.st41{clip-path:url(#SVGID_58_);fill:#5E5E5E;}
	.st42{clip-path:url(#SVGID_60_);fill:#7C001F;}
	.st43{clip-path:url(#SVGID_62_);fill:none;stroke:#5B5B5B;stroke-width:5;}
	.st44{opacity:0.7652;fill:#EBEBEB;}
	.st45{fill:#563C91;}
	.st46{fill:none;stroke:#3881C3;stroke-miterlimit:10;}
	.st47{fill:none;stroke:#3881C3;stroke-miterlimit:10;stroke-dasharray:1.0101,1.0101;}
	.st48{fill:none;stroke:#3881C3;stroke-width:2;stroke-miterlimit:10;stroke-dasharray:5,1;}
	.st49{fill:none;stroke:#3881C3;stroke-width:6;stroke-miterlimit:10;stroke-dasharray:9,6;}
	.st50{fill:#3881C3;}
	.st51{fill:none;stroke:#3881C3;stroke-width:5;stroke-miterlimit:10;}
</style>
<g>
	<defs>
		<rect id="SVGID_1_" x="391.83" y="330.65" width="86.59" height="27.56"/>
	</defs>
	<clipPath id="SVGID_2_">
		<use xlink:href="#SVGID_1_"  style="overflow:visible;"/>
	</clipPath>
	<path class="st0" d="M435.11,331.65c-10.83,0-21.65,1.25-29.91,3.75c-8.26,2.5-12.38,5.76-12.38,9.03c0,3.27,4.12,6.53,12.38,9.03
		c16.52,4.99,43.29,4.99,59.81,0c8.26-2.5,12.41-5.76,12.41-9.03c0-3.27-4.15-6.53-12.41-9.03
		C456.76,332.9,445.93,331.65,435.11,331.65z"/>
</g>
<g>
	<defs>
		<rect id="SVGID_3_" x="391.83" y="391.26" width="86.59" height="34.45"/>
	</defs>
	<clipPath id="SVGID_4_">
		<use xlink:href="#SVGID_3_"  style="overflow:visible;"/>
	</clipPath>
	<path class="st1" d="M392.83,393.33l0.32,17.93c0,7.02,18.85,13.45,42.12,13.45c23.27,0,42.15-6.43,42.15-13.45l-0.35-19
		c-12.46,5.26-25.77,8.21-39.29,8.71C422.43,401.54,407.13,398.94,392.83,393.33z"/>
</g>
<g>
	<defs>
		<rect id="SVGID_5_" x="392.05" y="370.34" width="86.26" height="30.51"/>
	</defs>
	<clipPath id="SVGID_6_">
		<use xlink:href="#SVGID_5_"  style="overflow:visible;"/>
	</clipPath>
	<path class="st2" d="M393.16,371.45l-0.11,21.15c13.4,4.95,27.59,7.41,41.88,7.24c14.53-0.17,28.91-3.05,42.39-8.49l-0.07-20.01
		c-12.99,5.52-26.93,8.44-41.04,8.59C421.43,380.08,406.78,377.2,393.16,371.45z"/>
</g>
<g>
	<defs>
		<rect id="SVGID_7_" x="391.93" y="349.13" width="86.39" height="30.5"/>
	</defs>
	<clipPath id="SVGID_8_">
		<use xlink:href="#SVGID_7_"  style="overflow:visible;"/>
	</clipPath>
	<path class="st3" d="M393.16,350.23l-0.23,19.88c13.3,5.59,27.57,8.48,42,8.51c14.56,0.03,28.97-2.86,42.39-8.49l-0.07-20.01
		c-12.99,5.52-26.93,8.44-41.04,8.59C421.43,358.87,406.78,355.98,393.16,350.23z"/>
</g>
<g>
	<defs>
		<rect id="SVGID_9_" x="512.36" y="325.33" width="130.22" height="104.86"/>
	</defs>
	<clipPath id="SVGID_10_">
		<use xlink:href="#SVGID_9_"  style="overflow:visible;"/>
	</clipPath>
	<path class="st4" d="M526.6,396.89v-57.46h101.74v57.46H526.6z M634.59,325.33H520.36c-4.39,0-8,3.61-8,8v69.69c0,4.39,3.61,8,8,8
		h43.01v12.12h-13.32c-1.26,0-2.29,1.02-2.29,2.28v2.48c0,1.26,1.02,2.29,2.29,2.29h53.69c1.26,0,2.29-1.02,2.29-2.29v-2.48
		c0-1.26-1.02-2.28-2.29-2.28h-12.16v-12.12h43.01c4.39,0,7.99-3.61,7.99-7.99v-69.69C642.59,328.94,638.98,325.33,634.59,325.33z"
		/>
</g>
<g>
	<defs>
		<rect id="SVGID_11_" x="319.77" y="202.78" width="113.95" height="49.5"/>
	</defs>
	<clipPath id="SVGID_12_">
		<use xlink:href="#SVGID_11_"  style="overflow:visible;"/>
	</clipPath>
	<g class="st5">
		<text transform="matrix(1 0 0 1 328.0245 237.2093)"><tspan x="0" y="0" class="st6 st7">b</tspan><tspan x="11.95" y="0" class="st6 st7">i</tspan><tspan x="16.96" y="0" class="st6 st7">o</tspan><tspan x="29.35" y="0" class="st6 st7">c</tspan><tspan x="39.47" y="0" class="st6 st7">on</tspan><tspan x="63.84" y="0" class="st6 st7">d</tspan><tspan x="76.4" y="0" class="st6 st7">a</tspan></text>
	</g>
</g>
<g>
	<defs>
		<rect id="SVGID_13_" x="179.91" y="202.78" width="140.85" height="49.5"/>
	</defs>
	<clipPath id="SVGID_14_">
		<use xlink:href="#SVGID_13_"  style="overflow:visible;"/>
	</clipPath>
	<g class="st8">
		<text transform="matrix(1 0 0 1 188.1597 237.2093)"><tspan x="0" y="0" class="st6 st7">c</tspan><tspan x="10.14" y="0" class="st6 st7">on</tspan><tspan x="34.52" y="0" class="st6 st7">d</tspan><tspan x="47.1" y="0" class="st6 st7">a</tspan><tspan x="57.4" y="0" class="st6 st7">-</tspan><tspan x="63.58" y="0" class="st6 st7">f</tspan><tspan x="70.13" y="0" class="st6 st7">o</tspan><tspan x="82.52" y="0" class="st6 st7">rg</tspan><tspan x="100.74" y="0" class="st6 st7">e</tspan></text>
	</g>
</g>
<g>
	<defs>
		<rect id="SVGID_15_" x="457.1" y="202.78" width="97.71" height="49.5"/>
	</defs>
	<clipPath id="SVGID_16_">
		<use xlink:href="#SVGID_15_"  style="overflow:visible;"/>
	</clipPath>
	<g class="st9">
		<text transform="matrix(1 0 0 1 465.3528 237.2093)"><tspan x="0" y="0" class="st6 st7">d</tspan><tspan x="12.39" y="0" class="st6 st7">e</tspan><tspan x="22.79" y="0" class="st6 st7">f</tspan><tspan x="29.37" y="0" class="st6 st7">a</tspan><tspan x="39.11" y="0" class="st6 st7">u</tspan><tspan x="50.42" y="0" class="st6 st7">l</tspan><tspan x="55.46" y="0" class="st6 st7">ts</tspan></text>
	</g>
</g>
<g>
	<defs>
		<rect id="SVGID_17_" x="198.67" y="112.84" width="86.59" height="27.56"/>
	</defs>
	<clipPath id="SVGID_18_">
		<use xlink:href="#SVGID_17_"  style="overflow:visible;"/>
	</clipPath>
	<path class="st10" d="M241.95,113.84c-10.83,0-21.65,1.25-29.91,3.75c-8.26,2.5-12.38,5.76-12.38,9.03c0,3.27,4.12,6.54,12.38,9.03
		c16.52,4.99,43.29,4.99,59.81,0c8.26-2.5,12.41-5.76,12.41-9.03c0-3.27-4.15-6.53-12.41-9.03
		C263.6,115.09,252.78,113.84,241.95,113.84z"/>
</g>
<g>
	<defs>
		<rect id="SVGID_19_" x="198.67" y="173.45" width="86.59" height="34.45"/>
	</defs>
	<clipPath id="SVGID_20_">
		<use xlink:href="#SVGID_19_"  style="overflow:visible;"/>
	</clipPath>
	<path class="st11" d="M199.67,175.52l0.32,17.93c0,7.02,18.85,13.45,42.12,13.45c23.27,0,42.15-6.43,42.15-13.45l-0.35-19
		c-12.46,5.26-25.77,8.21-39.29,8.71C229.27,183.72,213.97,181.13,199.67,175.52z"/>
</g>
<g>
	<defs>
		<rect id="SVGID_21_" x="198.9" y="152.53" width="86.26" height="30.51"/>
	</defs>
	<clipPath id="SVGID_22_">
		<use xlink:href="#SVGID_21_"  style="overflow:visible;"/>
	</clipPath>
	<path class="st12" d="M200.01,153.64l-0.11,21.15c13.4,4.95,27.59,7.41,41.88,7.24c14.53-0.17,28.91-3.05,42.39-8.49l-0.07-20.01
		c-12.98,5.52-26.93,8.44-41.04,8.59C228.28,162.27,213.62,159.39,200.01,153.64z"/>
</g>
<g>
	<defs>
		<rect id="SVGID_23_" x="198.77" y="131.32" width="86.39" height="30.5"/>
	</defs>
	<clipPath id="SVGID_24_">
		<use xlink:href="#SVGID_23_"  style="overflow:visible;"/>
	</clipPath>
	<path class="st13" d="M200.01,132.42l-0.23,19.88c13.3,5.59,27.57,8.48,42,8.51c14.55,0.03,28.97-2.86,42.39-8.49l-0.07-20.01
		c-12.98,5.52-26.93,8.44-41.04,8.59C228.28,141.06,213.62,138.17,200.01,132.42z"/>
</g>
<path class="st14" d="M374.05,113.84c-10.83,0-21.65,1.25-29.91,3.75c-8.26,2.5-12.38,5.76-12.38,9.03c0,3.27,4.12,6.53,12.38,9.03
	c16.52,4.99,43.29,4.99,59.81,0c8.26-2.5,12.41-5.76,12.41-9.03c0-3.27-4.15-6.53-12.41-9.03
	C395.7,115.09,384.87,113.84,374.05,113.84z"/>
<rect x="330.77" y="112.84" class="st15" width="86.59" height="27.56"/>
<path class="st14" d="M331.77,175.52l0.32,17.93c0,7.02,18.85,13.45,42.12,13.45c23.27,0,42.15-6.43,42.15-13.45l-0.35-19
	c-12.46,5.26-25.77,8.21-39.29,8.71C361.37,183.72,346.07,181.13,331.77,175.52z"/>
<rect x="330.77" y="173.45" class="st15" width="86.59" height="34.45"/>
<path class="st14" d="M332.1,153.64l-0.11,21.15c13.4,4.95,27.59,7.41,41.88,7.24c14.53-0.17,28.91-3.05,42.39-8.49l-0.07-20.01
	c-12.98,5.52-26.93,8.44-41.04,8.59C360.37,162.27,345.72,159.39,332.1,153.64z"/>
<rect x="330.99" y="152.53" class="st15" width="86.26" height="30.51"/>
<path class="st14" d="M332.1,132.42l-0.23,19.88c13.3,5.59,27.57,8.48,42,8.51c14.56,0.03,28.97-2.86,42.39-8.49l-0.07-20.01
	c-6.48,2.75-13.21,4.87-20.1,6.31c-6.87,1.44-13.89,2.21-20.94,2.28C360.37,141.05,345.72,138.17,332.1,132.42z"/>
<rect x="330.87" y="131.32" class="st15" width="86.39" height="30.5"/>
<g>
	<defs>
		<rect id="SVGID_25_" x="462.66" y="112.84" width="86.59" height="27.56"/>
	</defs>
	<clipPath id="SVGID_26_">
		<use xlink:href="#SVGID_25_"  style="overflow:visible;"/>
	</clipPath>
	<path class="st16" d="M505.94,113.84c-10.83,0-21.65,1.25-29.91,3.75c-8.26,2.5-12.38,5.76-12.38,9.03c0,3.27,4.12,6.54,12.38,9.03
		c16.52,4.99,43.29,4.99,59.81,0c8.26-2.5,12.41-5.76,12.41-9.03c0-3.27-4.15-6.53-12.41-9.03
		C527.59,115.09,516.77,113.84,505.94,113.84z"/>
</g>
<g>
	<defs>
		<rect id="SVGID_27_" x="462.66" y="173.45" width="86.59" height="34.45"/>
	</defs>
	<clipPath id="SVGID_28_">
		<use xlink:href="#SVGID_27_"  style="overflow:visible;"/>
	</clipPath>
	<path class="st17" d="M463.66,175.52l0.32,17.93c0,7.02,18.85,13.45,42.12,13.45c23.27,0,42.15-6.43,42.15-13.45l-0.35-19
		c-12.46,5.26-25.77,8.21-39.29,8.71C493.26,183.72,477.96,181.13,463.66,175.52z"/>
</g>
<g>
	<defs>
		<rect id="SVGID_29_" x="462.89" y="152.53" width="86.26" height="30.51"/>
	</defs>
	<clipPath id="SVGID_30_">
		<use xlink:href="#SVGID_29_"  style="overflow:visible;"/>
	</clipPath>
	<path class="st18" d="M464,153.64l-0.11,21.15c13.4,4.95,27.59,7.41,41.88,7.24c14.54-0.17,28.91-3.05,42.39-8.49l-0.07-20.01
		c-12.98,5.52-26.93,8.44-41.04,8.59C492.27,162.27,477.61,159.39,464,153.64z"/>
</g>
<g>
	<defs>
		<rect id="SVGID_31_" x="462.77" y="131.32" width="86.39" height="30.5"/>
	</defs>
	<clipPath id="SVGID_32_">
		<use xlink:href="#SVGID_31_"  style="overflow:visible;"/>
	</clipPath>
	<path class="st19" d="M464,132.42l-0.23,19.88c13.3,5.59,27.57,8.48,42,8.51c14.56,0.03,28.97-2.86,42.39-8.49l-0.07-20.01
		c-12.98,5.52-26.93,8.44-41.04,8.59C492.27,141.06,477.61,138.17,464,132.42z"/>
</g>
<g>
	<defs>
		<rect id="SVGID_33_" x="166.72" y="86.21" width="544.07" height="172.39"/>
	</defs>
	<clipPath id="SVGID_34_">
		<use xlink:href="#SVGID_33_"  style="overflow:visible;"/>
	</clipPath>
	<rect x="171.06" y="89.71" class="st20" width="535.38" height="165.39"/>
</g>
<g>
	<defs>
		<rect id="SVGID_35_" x="512.3" y="14.76" width="144.61" height="87.94"/>
	</defs>
	<clipPath id="SVGID_36_">
		<use xlink:href="#SVGID_35_"  style="overflow:visible;"/>
	</clipPath>
	<path class="st21" d="M583.3,15.76c-17.4,0-32.23,11.7-37.92,28.1c-1.52-0.28-3.08-0.43-4.68-0.43c-15.13,0-27.4,13.05-27.4,29.15
		s12.26,29.13,27.4,29.13c0.29,0,0.57-0.01,0.86-0.02l41.28,0.01c0.16,0,0.31,0.01,0.47,0.01c0.15,0,0.3-0.01,0.46-0.01l49.31,0.01
		c12.61,0,22.84-10.87,22.84-24.29c0-13.42-10.22-24.3-22.84-24.3c-3.39,0-6.61,0.8-9.5,2.21C621.93,33.18,604.54,15.76,583.3,15.76
		z"/>
</g>
<g>
	<defs>
		<rect id="SVGID_37_" x="-529.44" y="-162.24" width="1920" height="1080"/>
	</defs>
	<clipPath id="SVGID_38_">
		<use xlink:href="#SVGID_37_"  style="overflow:visible;"/>
	</clipPath>
	<rect x="190.47" y="314.18" class="st22" width="182.99" height="153"/>
</g>
<g>
	<defs>
		<rect id="SVGID_39_" x="189.53" y="313.23" width="184.89" height="154.89"/>
	</defs>
	<clipPath id="SVGID_40_">
		<use xlink:href="#SVGID_39_"  style="overflow:visible;"/>
	</clipPath>
	<g class="st23">
		<text transform="matrix(1 0 0 1 194.4744 334.1663)" class="st24 st25">name: py2-env </text>
	</g>
	<g class="st23">
		<text transform="matrix(1 0 0 1 194.4744 359.1663)" class="st24 st25">channels: </text>
	</g>
	<g class="st23">
		<text transform="matrix(1 0 0 1 194.4744 384.1663)" class="st24 st25">  - conda-forge </text>
	</g>
	<g class="st23">
		<text transform="matrix(1 0 0 1 194.4744 409.1663)" class="st24 st25">  - defaults </text>
	</g>
	<g class="st23">
		<text transform="matrix(1 0 0 1 194.4744 434.1663)" class="st24 st25">dependencies: </text>
	</g>
	<g class="st23">
		<text transform="matrix(1 0 0 1 194.4744 459.1663)" class="st24 st25">  - python=2.7</text>
	</g>
</g>
<g>
	<defs>
		<rect id="SVGID_41_" x="-529.44" y="-162.24" width="1920" height="1080"/>
	</defs>
	<clipPath id="SVGID_42_">
		<use xlink:href="#SVGID_41_"  style="overflow:visible;"/>
	</clipPath>
	<path class="st26" d="M216.5,301.71h236.36c12.35,0,19.76,0,24.7,2.06c7.12,2.59,12.73,8.2,15.33,15.33
		c2.06,4.94,2.06,12.35,2.06,24.7v93.75c0,12.35,0,19.76-2.06,24.7c-2.59,7.12-8.2,12.73-15.33,15.33
		c-4.94,2.06-12.35,2.06-24.7,2.06H216.5c-12.35,0-19.76,0-24.7-2.06c-7.12-2.59-12.73-8.2-15.33-15.33
		c-2.06-4.94-2.06-12.35-2.06-24.7V343.8c0-12.35,0-19.76,2.06-24.7c2.59-7.12,8.2-12.73,15.33-15.33
		C196.74,301.71,204.15,301.71,216.5,301.71z"/>
	<g class="st27">
		<text transform="matrix(1 0 0 1 88.3435 96.5199)" class="st28 st29">A.</text>
	</g>
	<g class="st27">
		<text transform="matrix(1 0 0 1 95.0778 331.6153)" class="st28 st29">B.</text>
	</g>
	<path class="st26" d="M215.5,502.9h360.33c12.35,0,19.76,0,24.7,2.06c7.12,2.59,12.73,8.2,15.33,15.33
		c2.06,4.94,2.06,12.35,2.06,24.7v104.38c0,12.35,0,19.76-2.06,24.7c-2.59,7.12-8.2,12.73-15.33,15.33
		c-4.94,2.06-12.35,2.06-24.7,2.06H215.5c-12.35,0-19.76,0-24.7-2.06c-7.12-2.59-12.73-8.2-15.33-15.33
		c-2.06-4.94-2.06-12.35-2.06-24.7V545c0-12.35,0-19.76,2.06-24.7c2.59-7.12,8.2-12.73,15.33-15.33
		C195.73,502.9,203.14,502.9,215.5,502.9z"/>
	<rect x="188.55" y="508.19" class="st30" width="281.65" height="178"/>
</g>
<g>
	<defs>
		<rect id="SVGID_43_" x="187.6" y="507.24" width="283.55" height="179.89"/>
	</defs>
	<clipPath id="SVGID_44_">
		<use xlink:href="#SVGID_43_"  style="overflow:visible;"/>
	</clipPath>
	<g class="st31">
		<text transform="matrix(1 0 0 1 192.5501 528.1765)" class="st24 st25">name: snakemake </text>
	</g>
	<g class="st31">
		<text transform="matrix(1 0 0 1 192.5501 553.1765)" class="st24 st25">channels: </text>
	</g>
	<g class="st31">
		<text transform="matrix(1 0 0 1 192.5501 578.1765)" class="st24 st25">  - conda-forge </text>
	</g>
	<g class="st31">
		<text transform="matrix(1 0 0 1 192.5501 603.1765)" class="st24 st25">  - bioconda </text>
	</g>
	<g class="st31">
		<text transform="matrix(1 0 0 1 192.5501 628.1765)" class="st24 st25">  - defaults </text>
	</g>
	<g class="st31">
		<text transform="matrix(1 0 0 1 192.5501 653.1765)" class="st24 st25">dependencies: </text>
	</g>
	<g class="st31">
		<text transform="matrix(1 0 0 1 192.5501 678.1765)" class="st24 st25">  - snakemake-minimal=5.16</text>
	</g>
</g>
<path class="st32" d="M508.94,600.55l-0.1,19.89c12.6,4.66,25.95,6.97,39.38,6.81c13.67-0.16,27.19-2.87,39.86-7.99l-0.06-18.81
	c-12.21,5.19-25.32,7.94-38.59,8.08C535.52,608.67,521.75,605.96,508.94,600.55z"/>
<rect x="507.84" y="599.45" class="st15" width="81.24" height="28.81"/>
<path class="st32" d="M508.94,580.6l-0.22,18.69c12.51,5.26,25.93,7.98,39.49,8c13.69,0.03,27.24-2.69,39.86-7.99l-0.06-18.81
	c-12.21,5.19-25.32,7.94-38.59,8.08C535.52,588.72,521.75,586.01,508.94,580.6z"/>
<rect x="507.72" y="579.5" class="st15" width="81.36" height="28.8"/>
<path class="st14" d="M548.38,522.93c-10.18,0-20.36,1.18-28.12,3.53c-7.77,2.35-11.64,5.42-11.64,8.49c0,3.08,3.87,6.15,11.64,8.49
	c15.53,4.7,40.71,4.7,56.25,0c7.77-2.35,11.67-5.42,11.67-8.49c0-3.08-3.9-6.15-11.67-8.49
	C568.74,524.11,558.56,522.93,548.38,522.93z"/>
<rect x="507.62" y="521.93" class="st15" width="81.55" height="26.03"/>
<path class="st33" d="M508.62,641.94l0.3,16.86c0,6.6,17.73,12.65,39.61,12.65c21.88,0,39.64-6.04,39.64-12.65l-0.33-17.87
	c-11.72,4.94-24.24,7.72-36.95,8.19C536.46,649.66,522.07,647.21,508.62,641.94z"/>
<rect x="507.62" y="639.93" class="st15" width="81.55" height="32.52"/>
<path class="st14" d="M508.94,560.36l-0.1,19.89c12.6,4.66,25.95,6.97,39.38,6.81c13.67-0.16,27.19-2.87,39.86-7.99l-0.06-18.81
	c-12.21,5.19-25.32,7.94-38.59,8.08C535.52,568.48,521.75,565.76,508.94,560.36z"/>
<rect x="507.84" y="559.26" class="st15" width="81.24" height="28.81"/>
<path class="st14" d="M508.94,540.41l-0.22,18.69c12.51,5.26,25.93,7.98,39.49,8c13.69,0.03,27.24-2.69,39.86-7.99l-0.06-18.81
	c-12.21,5.19-25.32,7.94-38.59,8.08C535.52,548.53,521.75,545.81,508.94,540.41z"/>
<rect x="507.72" y="539.31" class="st15" width="81.36" height="28.8"/>
<path class="st32" d="M508.88,620.82l-0.1,19.89c12.6,4.66,25.95,6.97,39.38,6.81c13.67-0.16,27.19-2.87,39.86-7.99l-0.06-18.81
	c-12.21,5.19-25.32,7.94-38.59,8.08C535.47,628.94,521.69,626.23,508.88,620.82z"/>
<rect x="507.78" y="619.72" class="st15" width="81.24" height="28.81"/>
<text transform="matrix(1 0 0 1 97.114 744.9818)" class="st28 st29">C.</text>
<g>
	<path class="st34" d="M501.58,725.99h86.28c2.96,0,4.73,0,5.92,1.1c1.71,1.38,3.05,4.38,3.67,8.19c0.49,2.64,0.49,6.6,0.49,13.19
		v55.75c0,6.6,0,10.56-0.49,13.19c-0.62,3.8-1.96,6.8-3.67,8.19c-1.18,1.1-2.96,1.1-5.92,1.1h-86.28c-2.96,0-4.73,0-5.92-1.1
		c-1.71-1.38-3.05-4.38-3.67-8.19c-0.49-2.64-0.49-6.6-0.49-13.19v-55.75c0-6.6,0-10.56,0.49-13.19c0.62-3.8,1.96-6.8,3.67-8.19
		C496.85,725.99,498.62,725.99,501.58,725.99z"/>
	<g>
		<defs>
			<rect id="SVGID_45_" x="522.3" y="777.04" width="43.39" height="15.39"/>
		</defs>
		<clipPath id="SVGID_46_">
			<use xlink:href="#SVGID_45_"  style="overflow:visible;"/>
		</clipPath>
		<path class="st35" d="M522.89,777.62l-0.06,10.62c6.73,2.49,13.86,3.72,21.03,3.64c7.3-0.09,14.52-1.53,21.29-4.27l-0.03-10.05
			c-6.52,2.77-13.52,4.24-20.61,4.31C537.09,781.96,529.73,780.51,522.89,777.62z"/>
	</g>
	<g>
		<defs>
			<rect id="SVGID_47_" x="522.24" y="766.38" width="43.45" height="15.38"/>
		</defs>
		<clipPath id="SVGID_48_">
			<use xlink:href="#SVGID_47_"  style="overflow:visible;"/>
		</clipPath>
		<path class="st36" d="M522.89,766.97l-0.12,9.98c6.68,2.81,13.85,4.26,21.09,4.28c7.31,0.01,14.55-1.44,21.29-4.27l-0.03-10.05
			c-6.52,2.77-13.52,4.24-20.61,4.31C537.09,771.31,529.73,769.86,522.89,766.97z"/>
	</g>
	<path class="st14" d="M543.96,736.16c-5.44,0-10.87,0.63-15.02,1.88c-4.15,1.25-6.22,2.89-6.22,4.54c0,1.64,2.07,3.28,6.22,4.54
		c8.3,2.51,21.75,2.51,30.04,0c4.15-1.25,6.23-2.89,6.23-4.54c0-1.64-2.08-3.28-6.23-4.54
		C554.83,736.79,549.39,736.16,543.96,736.16z"/>
	<rect x="522.19" y="735.63" class="st15" width="43.56" height="13.9"/>
	<g>
		<defs>
			<rect id="SVGID_49_" x="522.19" y="798.66" width="43.56" height="17.37"/>
		</defs>
		<clipPath id="SVGID_50_">
			<use xlink:href="#SVGID_49_"  style="overflow:visible;"/>
		</clipPath>
		<path class="st37" d="M522.72,799.73l0.16,9c0,3.53,9.47,6.75,21.16,6.75c11.69,0,21.17-3.23,21.17-6.75l-0.18-9.54
			c-6.26,2.64-12.95,4.12-19.73,4.37C537.59,803.85,529.9,802.54,522.72,799.73z"/>
	</g>
	<path class="st14" d="M522.89,756.16l-0.06,10.62c6.73,2.49,13.86,3.72,21.03,3.64c7.3-0.09,14.52-1.53,21.29-4.27l-0.03-10.05
		c-6.52,2.77-13.52,4.24-20.61,4.31C537.09,760.49,529.73,759.04,522.89,756.16z"/>
	<rect x="522.3" y="755.57" class="st15" width="43.39" height="15.39"/>
	<path class="st14" d="M522.89,745.5l-0.12,9.98c6.68,2.81,13.85,4.26,21.09,4.28c7.31,0.01,14.55-1.44,21.29-4.27l-0.03-10.05
		c-6.52,2.77-13.52,4.24-20.61,4.31C537.09,749.84,529.73,748.39,522.89,745.5z"/>
	<rect x="522.24" y="744.91" class="st15" width="43.45" height="15.38"/>
	<g>
		<defs>
			<rect id="SVGID_51_" x="522.27" y="787.86" width="43.39" height="15.39"/>
		</defs>
		<clipPath id="SVGID_52_">
			<use xlink:href="#SVGID_51_"  style="overflow:visible;"/>
		</clipPath>
		<path class="st38" d="M522.86,788.45l-0.06,10.62c6.73,2.49,13.86,3.72,21.03,3.64c7.3-0.09,14.52-1.53,21.29-4.27l-0.03-10.05
			c-6.52,2.77-13.52,4.24-20.61,4.31C537.06,792.79,529.7,791.34,522.86,788.45z"/>
	</g>
</g>
<g>
	<g>
		<defs>
			<rect id="SVGID_53_" x="522.91" y="864.08" width="49.72" height="15.82"/>
		</defs>
		<clipPath id="SVGID_54_">
			<use xlink:href="#SVGID_53_"  style="overflow:visible;"/>
		</clipPath>
		<path class="st39" d="M547.76,864.65c-6.22,0-12.43,0.72-17.17,2.15c-4.74,1.43-7.11,3.31-7.11,5.19c0,1.88,2.36,3.75,7.11,5.19
			c9.48,2.87,24.86,2.87,34.34,0c4.74-1.43,7.12-3.31,7.12-5.19c0-1.88-2.38-3.75-7.12-5.19
			C560.19,865.37,553.98,864.65,547.76,864.65z"/>
	</g>
	<g>
		<defs>
			<rect id="SVGID_55_" x="522.91" y="898.88" width="49.72" height="19.78"/>
		</defs>
		<clipPath id="SVGID_56_">
			<use xlink:href="#SVGID_55_"  style="overflow:visible;"/>
		</clipPath>
		<path class="st40" d="M523.49,900.07l0.18,10.29c0,4.03,10.82,7.72,24.18,7.72c13.36,0,24.2-3.69,24.2-7.72l-0.2-10.91
			c-7.15,3.02-14.8,4.71-22.56,5C540.48,904.78,531.7,903.29,523.49,900.07z"/>
	</g>
	<g>
		<defs>
			<rect id="SVGID_57_" x="523.04" y="886.87" width="49.53" height="17.52"/>
		</defs>
		<clipPath id="SVGID_58_">
			<use xlink:href="#SVGID_57_"  style="overflow:visible;"/>
		</clipPath>
		<path class="st41" d="M523.68,887.51l-0.06,12.14c7.69,2.84,15.84,4.25,24.04,4.16c8.35-0.1,16.6-1.75,24.34-4.88l-0.04-11.49
			c-7.46,3.17-15.46,4.85-23.56,4.93C539.91,892.46,531.5,890.81,523.68,887.51z"/>
	</g>
	<g>
		<defs>
			<rect id="SVGID_59_" x="522.97" y="874.69" width="49.6" height="17.51"/>
		</defs>
		<clipPath id="SVGID_60_">
			<use xlink:href="#SVGID_59_"  style="overflow:visible;"/>
		</clipPath>
		<path class="st42" d="M523.68,875.33l-0.13,11.41c7.63,3.21,15.83,4.87,24.11,4.89c8.36,0.02,16.63-1.64,24.34-4.88l-0.04-11.49
			c-7.46,3.17-15.46,4.85-23.56,4.93C539.91,880.28,531.5,878.63,523.68,875.33z"/>
	</g>
	<path class="st34" d="M506.03,838.61h79.12c4.13,0,6.62,0,8.27,1.18c2.38,1.49,4.26,4.71,5.13,8.8c0.69,2.84,0.69,7.09,0.69,14.18
		v53.83c0,7.09,0,11.35-0.69,14.18c-0.87,4.09-2.75,7.31-5.13,8.8c-1.65,1.18-4.13,1.18-8.27,1.18h-79.12c-4.13,0-6.62,0-8.27-1.18
		c-2.38-1.49-4.26-4.71-5.13-8.8c-0.69-2.84-0.69-7.09-0.69-14.18v-53.83c0-7.09,0-11.35,0.69-14.18c0.87-4.09,2.75-7.31,5.13-8.8
		C499.41,838.61,501.89,838.61,506.03,838.61z"/>
</g>
<g>
	<g>
		<defs>
			<rect id="SVGID_61_" x="183.63" y="717.51" width="232.61" height="290.96"/>
		</defs>
		<clipPath id="SVGID_62_">
			<use xlink:href="#SVGID_61_"  style="overflow:visible;"/>
		</clipPath>
		<rect x="185.49" y="723.41" class="st43" width="228.9" height="279.14"/>
	</g>
	<rect x="194.58" y="730.61" class="st44" width="209.73" height="265.42"/>
	<text transform="matrix(1 0 0 1 209.0406 754.209)"><tspan x="0" y="0" class="st24 st25">step 1:</tspan><tspan x="0" y="20.4" class="st24 st25">    -----------</tspan><tspan x="0" y="40.8" class="st24 st25">    -----------</tspan><tspan x="0" y="61.2" class="st24 st25">    -----------</tspan></text>
	<text transform="matrix(1 0 0 1 208.7271 840.7061)"><tspan x="0" y="0" class="st24 st25">step 2:</tspan><tspan x="0" y="20.4" class="st24 st25">    -----------</tspan><tspan x="0" y="40.8" class="st24 st25">    -----------</tspan><tspan x="0" y="61.2" class="st24 st25">    -----------</tspan></text>
	<text transform="matrix(1 0 0 1 208.7724 922.9413)"><tspan x="0" y="0" class="st24 st25">step 3:</tspan><tspan x="0" y="20.4" class="st24 st25">    -----------</tspan><tspan x="0" y="40.8" class="st24 st25">    -----------</tspan><tspan x="0" y="61.2" class="st24 st25">    -----------</tspan></text>
</g>
<path class="st45" d="M636.44,114.68c-10.83,0-21.65,1.25-29.91,3.75c-8.26,2.5-12.38,5.76-12.38,9.03c0,3.27,4.12,6.53,12.38,9.03
	c16.52,4.99,43.29,4.99,59.81,0c8.26-2.5,12.41-5.76,12.41-9.03c0-3.27-4.15-6.53-12.41-9.03
	C658.09,115.93,647.27,114.68,636.44,114.68z"/>
<rect x="593.16" y="113.68" class="st15" width="86.59" height="27.56"/>
<path class="st45" d="M594.16,176.36l0.32,17.93c0,7.02,18.85,13.45,42.12,13.45c23.27,0,42.15-6.43,42.15-13.45l-0.35-19
	c-12.46,5.26-25.77,8.21-39.29,8.71C623.76,184.56,608.46,181.97,594.16,176.36z"/>
<rect x="593.16" y="174.29" class="st15" width="86.59" height="34.45"/>
<path class="st45" d="M594.5,154.48l-0.11,21.15c13.4,4.95,27.59,7.41,41.88,7.24c14.53-0.17,28.91-3.05,42.39-8.49l-0.07-20.01
	c-12.98,5.52-26.93,8.44-41.04,8.59C622.77,163.11,608.11,160.23,594.5,154.48z"/>
<rect x="593.39" y="153.37" class="st15" width="86.26" height="30.51"/>
<path class="st45" d="M594.5,133.26l-0.23,19.88c13.3,5.59,27.57,8.48,42,8.51c14.56,0.03,28.97-2.86,42.39-8.49l-0.07-20.01
	c-6.48,2.75-13.21,4.87-20.1,6.31c-6.87,1.44-13.89,2.21-20.94,2.28C622.77,141.89,608.12,139.01,594.5,133.26z"/>
<rect x="593.26" y="132.16" class="st15" width="86.39" height="30.5"/>
<text transform="matrix(1 0 0 1 633.4611 235.2008)" class="st6 st7">r</text>
<g>
	<g>
		<path class="st46" d="M78.79,743.43c0.16,0.05,0.32,0.11,0.47,0.17"/>
		<path class="st47" d="M80.21,743.96c9.51,3.8,16.2,12.29,17.14,21.93c1.17,12.09-6.89,24.04-19.54,28.03"/>
		<path class="st46" d="M77.32,794.07c-0.16,0.05-0.32,0.09-0.48,0.14"/>
	</g>
</g>
<line class="st48" x1="390.7" y1="778.47" x2="470.45" y2="778.47"/>
<path class="st48" d="M393.33,959.98c0,0,26.05-3.85,37-13.94c25.47-23.45,19.8-121.19,21.8-134.49
	c2.35-15.66,19.93-12.52,19.93-12.52"/>
<line class="st49" x1="392.82" y1="872.91" x2="466.85" y2="881.98"/>
<polygon class="st50" points="488.73,886.86 463.35,892.01 466.26,873.07 "/>
<polygon class="st50" points="490.25,800.64 465.63,808.68 466.34,789.54 "/>
<polygon class="st50" points="491.17,780.23 466.56,788.27 467.27,769.13 "/>
<g>
	<line class="st51" x1="390.9" y1="810.31" x2="390.9" y2="761.36"/>
	<line class="st51" x1="378.56" y1="807.9" x2="393.18" y2="807.9"/>
	<line class="st51" x1="378.66" y1="763.78" x2="393.29" y2="763.78"/>
</g>
<g>
	<line class="st51" x1="390.65" y1="898.54" x2="390.65" y2="849.59"/>
	<line class="st51" x1="378.3" y1="896.14" x2="392.93" y2="896.14"/>
	<line class="st51" x1="378.4" y1="852.01" x2="393.03" y2="852.01"/>
</g>
<g>
	<line class="st51" x1="390.97" y1="982.8" x2="390.97" y2="933.85"/>
	<line class="st51" x1="378.62" y1="980.39" x2="393.25" y2="980.39"/>
	<line class="st51" x1="378.72" y1="936.27" x2="393.35" y2="936.27"/>
</g>
</svg>
