<?xml version="1.0" encoding="utf-8"?>
<!-- Generator: Adobe Illustrator 24.0.1, SVG Export Plug-In . SVG Version: 6.00 Build 0)  -->
<svg version="1.1" id="Layer_1" xmlns="http://www.w3.org/2000/svg" xmlns:xlink="http://www.w3.org/1999/xlink" x="0px" y="0px"
	 viewBox="0 0 1920 1080" style="enable-background:new 0 0 1920 1080;" xml:space="preserve">
<style type="text/css">
	.st0{clip-path:url(#SVGID_2_);fill:#7C001F;}
	.st1{clip-path:url(#SVGID_4_);fill:#5E5E5E;}
	.st2{clip-path:url(#SVGID_6_);fill:#5E5E5E;}
	.st3{clip-path:url(#SVGID_8_);fill:#7C001F;}
	.st4{clip-path:url(#SVGID_10_);fill:#979797;}
	.st5{clip-path:url(#SVGID_12_);}
	.st6{font-family:'Canela-Regular';}
	.st7{font-size:22px;}
	.st8{clip-path:url(#SVGID_14_);}
	.st9{clip-path:url(#SVGID_16_);}
	.st10{clip-path:url(#SVGID_18_);fill:#7C001F;}
	.st11{clip-path:url(#SVGID_20_);fill:#7C001F;}
	.st12{clip-path:url(#SVGID_22_);fill:#7C001F;}
	.st13{clip-path:url(#SVGID_24_);fill:#7C001F;}
	.st14{fill:#9E9602;}
	.st15{fill:none;}
	.st16{clip-path:url(#SVGID_26_);fill:#5E5E5E;}
	.st17{clip-path:url(#SVGID_28_);fill:#5E5E5E;}
	.st18{clip-path:url(#SVGID_30_);fill:#5E5E5E;}
	.st19{clip-path:url(#SVGID_32_);fill:#5E5E5E;}
	.st20{clip-path:url(#SVGID_34_);fill:none;stroke:#C0C0C0;stroke-width:5;}
	.st21{clip-path:url(#SVGID_36_);fill:#A9A9A9;}
	.st22{opacity:0.7652;clip-path:url(#SVGID_38_);fill:#EBEBEB;}
	.st23{clip-path:url(#SVGID_40_);}
	.st24{font-family:'Menlo-Regular';}
	.st25{font-size:17px;}
	.st26{clip-path:url(#SVGID_42_);fill:none;stroke:#929292;stroke-width:5;}
	.st27{clip-path:url(#SVGID_42_);}
	.st28{font-family:'TimesNewRomanPSMT';}
	.st29{font-size:44px;}
	.st30{opacity:0.7652;clip-path:url(#SVGID_42_);fill:#EBEBEB;}
	.st31{clip-path:url(#SVGID_44_);}
	.st32{fill:#7C001F;}
	.st33{fill:#5E5E5E;}
	.st34{fill:none;stroke:#929292;stroke-width:5;}
	.st35{clip-path:url(#SVGID_46_);fill:#7C001F;}
	.st36{clip-path:url(#SVGID_48_);fill:#7C001F;}
	.st37{clip-path:url(#SVGID_50_);fill:#5E5E5E;}
	.st38{clip-path:url(#SVGID_52_);fill:#7C001F;}
	.st39{clip-path:url(#SVGID_54_);fill:#7C001F;}
	.st40{clip-path:url(#SVGID_56_);fill:#5E5E5E;}
	.st41{clip-path:url(#SVGID_58_);fill:#5E5E5E;}
	.st42{clip-path:url(#SVGID_60_);fill:#7C001F;}
	.st43{clip-path:url(#SVGID_62_);fill:none;stroke:#5B5B5B;stroke-width:5;}
	.st44{opacity:0.7652;fill:#EBEBEB;}
	.st45{fill:#995F2B;}
	.st46{fill:#295DA8;}
	.st47{fill:#563C91;}
	.st48{fill:none;stroke:#3881C3;stroke-miterlimit:10;}
	.st49{fill:none;stroke:#3881C3;stroke-miterlimit:10;stroke-dasharray:1.0101,1.0101;}
	.st50{fill:none;stroke:#3881C3;stroke-width:2;stroke-miterlimit:10;stroke-dasharray:5,1;}
	.st51{fill:none;stroke:#3881C3;stroke-width:6;stroke-miterlimit:10;stroke-dasharray:9,6;}
	.st52{fill:#3881C3;}
	.st53{fill:none;stroke:#3881C3;stroke-width:5;stroke-miterlimit:10;}
</style>
<g>
	<defs>
		<rect id="SVGID_1_" x="905.63" y="330.65" width="86.59" height="27.56"/>
	</defs>
	<clipPath id="SVGID_2_">
		<use xlink:href="#SVGID_1_"  style="overflow:visible;"/>
	</clipPath>
	<path class="st0" d="M948.91,331.65c-10.83,0-21.65,1.25-29.91,3.75c-8.26,2.5-12.38,5.76-12.38,9.03c0,3.27,4.12,6.53,12.38,9.03
		c16.52,4.99,43.29,4.99,59.81,0c8.26-2.5,12.41-5.76,12.41-9.03c0-3.27-4.15-6.53-12.41-9.03
		C970.56,332.9,959.74,331.65,948.91,331.65z"/>
</g>
<g>
	<defs>
		<rect id="SVGID_3_" x="905.63" y="391.26" width="86.59" height="34.45"/>
	</defs>
	<clipPath id="SVGID_4_">
		<use xlink:href="#SVGID_3_"  style="overflow:visible;"/>
	</clipPath>
	<path class="st1" d="M906.63,393.33l0.32,17.93c0,7.02,18.85,13.45,42.12,13.45c23.27,0,42.15-6.43,42.15-13.45l-0.35-19
		c-12.46,5.26-25.77,8.21-39.29,8.71C936.23,401.54,920.93,398.94,906.63,393.33z"/>
</g>
<g>
	<defs>
		<rect id="SVGID_5_" x="905.86" y="370.34" width="86.26" height="30.51"/>
	</defs>
	<clipPath id="SVGID_6_">
		<use xlink:href="#SVGID_5_"  style="overflow:visible;"/>
	</clipPath>
	<path class="st2" d="M906.97,371.45l-0.11,21.15c13.4,4.95,27.59,7.41,41.88,7.24c14.53-0.17,28.91-3.05,42.39-8.49l-0.07-20.01
		c-12.99,5.52-26.93,8.44-41.04,8.59C935.24,380.08,920.58,377.2,906.97,371.45z"/>
</g>
<g>
	<defs>
		<rect id="SVGID_7_" x="905.73" y="349.13" width="86.39" height="30.5"/>
	</defs>
	<clipPath id="SVGID_8_">
		<use xlink:href="#SVGID_7_"  style="overflow:visible;"/>
	</clipPath>
	<path class="st3" d="M906.97,350.23l-0.23,19.88c13.3,5.59,27.57,8.48,42,8.51c14.56,0.03,28.97-2.86,42.39-8.49l-0.07-20.01
		c-12.99,5.52-26.93,8.44-41.04,8.59C935.24,358.87,920.58,355.98,906.97,350.23z"/>
</g>
<g>
	<defs>
		<rect id="SVGID_9_" x="1026.17" y="325.33" width="130.22" height="104.86"/>
	</defs>
	<clipPath id="SVGID_10_">
		<use xlink:href="#SVGID_9_"  style="overflow:visible;"/>
	</clipPath>
	<path class="st4" d="M1040.41,396.89v-57.46h101.74v57.46H1040.41z M1148.39,325.33h-114.23c-4.39,0-8,3.61-8,8v69.69
		c0,4.39,3.61,8,8,8h43.01v12.12h-13.32c-1.26,0-2.29,1.02-2.29,2.28v2.48c0,1.26,1.02,2.29,2.29,2.29h53.69
		c1.26,0,2.29-1.02,2.29-2.29v-2.48c0-1.26-1.02-2.28-2.29-2.28h-12.16v-12.12h43.01c4.39,0,7.99-3.61,7.99-7.99v-69.69
		C1156.39,328.94,1152.78,325.33,1148.39,325.33z"/>
</g>
<g>
	<defs>
		<rect id="SVGID_11_" x="833.58" y="202.78" width="113.95" height="49.5"/>
	</defs>
	<clipPath id="SVGID_12_">
		<use xlink:href="#SVGID_11_"  style="overflow:visible;"/>
	</clipPath>
	<g class="st5">
		<text transform="matrix(1 0 0 1 841.8277 237.2093)"><tspan x="0" y="0" class="st6 st7">b</tspan><tspan x="11.95" y="0" class="st6 st7">i</tspan><tspan x="16.96" y="0" class="st6 st7">o</tspan><tspan x="29.35" y="0" class="st6 st7">c</tspan><tspan x="39.47" y="0" class="st6 st7">on</tspan><tspan x="63.84" y="0" class="st6 st7">d</tspan><tspan x="76.4" y="0" class="st6 st7">a</tspan></text>
	</g>
</g>
<g>
	<defs>
		<rect id="SVGID_13_" x="693.71" y="202.78" width="140.85" height="49.5"/>
	</defs>
	<clipPath id="SVGID_14_">
		<use xlink:href="#SVGID_13_"  style="overflow:visible;"/>
	</clipPath>
	<g class="st8">
		<text transform="matrix(1 0 0 1 701.9628 237.2093)"><tspan x="0" y="0" class="st6 st7">c</tspan><tspan x="10.14" y="0" class="st6 st7">on</tspan><tspan x="34.52" y="0" class="st6 st7">d</tspan><tspan x="47.1" y="0" class="st6 st7">a</tspan><tspan x="57.4" y="0" class="st6 st7">-</tspan><tspan x="63.58" y="0" class="st6 st7">f</tspan><tspan x="70.13" y="0" class="st6 st7">o</tspan><tspan x="82.52" y="0" class="st6 st7">rg</tspan><tspan x="100.74" y="0" class="st6 st7">e</tspan></text>
	</g>
</g>
<g>
	<defs>
		<rect id="SVGID_15_" x="970.91" y="202.78" width="97.71" height="49.5"/>
	</defs>
	<clipPath id="SVGID_16_">
		<use xlink:href="#SVGID_15_"  style="overflow:visible;"/>
	</clipPath>
	<g class="st9">
		<text transform="matrix(1 0 0 1 979.156 237.2093)"><tspan x="0" y="0" class="st6 st7">d</tspan><tspan x="12.39" y="0" class="st6 st7">e</tspan><tspan x="22.79" y="0" class="st6 st7">f</tspan><tspan x="29.37" y="0" class="st6 st7">a</tspan><tspan x="39.11" y="0" class="st6 st7">u</tspan><tspan x="50.42" y="0" class="st6 st7">l</tspan><tspan x="55.46" y="0" class="st6 st7">ts</tspan></text>
	</g>
</g>
<g>
	<defs>
		<rect id="SVGID_17_" x="712.47" y="112.84" width="86.59" height="27.56"/>
	</defs>
	<clipPath id="SVGID_18_">
		<use xlink:href="#SVGID_17_"  style="overflow:visible;"/>
	</clipPath>
	<path class="st10" d="M755.76,113.84c-10.83,0-21.65,1.25-29.91,3.75c-8.26,2.5-12.38,5.76-12.38,9.03c0,3.27,4.12,6.54,12.38,9.03
		c16.52,4.99,43.29,4.99,59.81,0c8.26-2.5,12.41-5.76,12.41-9.03c0-3.27-4.15-6.53-12.41-9.03
		C777.4,115.09,766.58,113.84,755.76,113.84z"/>
</g>
<g>
	<defs>
		<rect id="SVGID_19_" x="712.47" y="173.45" width="86.59" height="34.45"/>
	</defs>
	<clipPath id="SVGID_20_">
		<use xlink:href="#SVGID_19_"  style="overflow:visible;"/>
	</clipPath>
	<path class="st11" d="M713.47,175.52l0.32,17.93c0,7.02,18.85,13.45,42.12,13.45c23.27,0,42.15-6.43,42.15-13.45l-0.35-19
		c-12.46,5.26-25.77,8.21-39.29,8.71C743.08,183.72,727.78,181.13,713.47,175.52z"/>
</g>
<g>
	<defs>
		<rect id="SVGID_21_" x="712.7" y="152.53" width="86.26" height="30.51"/>
	</defs>
	<clipPath id="SVGID_22_">
		<use xlink:href="#SVGID_21_"  style="overflow:visible;"/>
	</clipPath>
	<path class="st12" d="M713.81,153.64l-0.11,21.15c13.4,4.95,27.59,7.41,41.88,7.24c14.53-0.17,28.91-3.05,42.39-8.49l-0.07-20.01
		c-12.98,5.52-26.93,8.44-41.04,8.59C742.08,162.27,727.43,159.39,713.81,153.64z"/>
</g>
<g>
	<defs>
		<rect id="SVGID_23_" x="712.58" y="131.32" width="86.39" height="30.5"/>
	</defs>
	<clipPath id="SVGID_24_">
		<use xlink:href="#SVGID_23_"  style="overflow:visible;"/>
	</clipPath>
	<path class="st13" d="M713.81,132.42l-0.23,19.88c13.3,5.59,27.57,8.48,42,8.51c14.55,0.03,28.97-2.86,42.39-8.49l-0.07-20.01
		c-12.98,5.52-26.93,8.44-41.04,8.59C742.08,141.06,727.43,138.17,713.81,132.42z"/>
</g>
<path class="st14" d="M887.85,113.84c-10.83,0-21.65,1.25-29.91,3.75c-8.26,2.5-12.38,5.76-12.38,9.03c0,3.27,4.12,6.53,12.38,9.03
	c16.52,4.99,43.29,4.99,59.81,0c8.26-2.5,12.41-5.76,12.41-9.03c0-3.27-4.15-6.53-12.41-9.03
	C909.5,115.09,898.68,113.84,887.85,113.84z"/>
<rect x="844.57" y="112.84" class="st15" width="86.59" height="27.56"/>
<path class="st14" d="M845.57,175.52l0.32,17.93c0,7.02,18.85,13.45,42.12,13.45c23.27,0,42.15-6.43,42.15-13.45l-0.35-19
	c-12.46,5.26-25.77,8.21-39.29,8.71C875.17,183.72,859.87,181.13,845.57,175.52z"/>
<rect x="844.57" y="173.45" class="st15" width="86.59" height="34.45"/>
<path class="st14" d="M845.91,153.64l-0.11,21.15c13.4,4.95,27.59,7.41,41.88,7.24c14.53-0.17,28.91-3.05,42.39-8.49l-0.07-20.01
	c-12.98,5.52-26.93,8.44-41.04,8.59C874.18,162.27,859.52,159.39,845.91,153.64z"/>
<rect x="844.8" y="152.53" class="st15" width="86.26" height="30.51"/>
<path class="st14" d="M845.91,132.42l-0.23,19.88c13.3,5.59,27.57,8.48,42,8.51c14.56,0.03,28.97-2.86,42.39-8.49l-0.07-20.01
	c-6.48,2.75-13.21,4.87-20.1,6.31c-6.87,1.44-13.89,2.21-20.94,2.28C874.18,141.05,859.52,138.17,845.91,132.42z"/>
<rect x="844.67" y="131.32" class="st15" width="86.39" height="30.5"/>
<g>
	<defs>
		<rect id="SVGID_25_" x="976.47" y="112.84" width="86.59" height="27.56"/>
	</defs>
	<clipPath id="SVGID_26_">
		<use xlink:href="#SVGID_25_"  style="overflow:visible;"/>
	</clipPath>
	<path class="st16" d="M1019.75,113.84c-10.83,0-21.65,1.25-29.91,3.75c-8.26,2.5-12.38,5.76-12.38,9.03
		c0,3.27,4.12,6.54,12.38,9.03c16.52,4.99,43.29,4.99,59.81,0c8.26-2.5,12.41-5.76,12.41-9.03c0-3.27-4.15-6.53-12.41-9.03
		C1041.39,115.09,1030.57,113.84,1019.75,113.84z"/>
</g>
<g>
	<defs>
		<rect id="SVGID_27_" x="976.47" y="173.45" width="86.59" height="34.45"/>
	</defs>
	<clipPath id="SVGID_28_">
		<use xlink:href="#SVGID_27_"  style="overflow:visible;"/>
	</clipPath>
	<path class="st17" d="M977.47,175.52l0.32,17.93c0,7.02,18.85,13.45,42.12,13.45c23.27,0,42.15-6.43,42.15-13.45l-0.35-19
		c-12.46,5.26-25.77,8.21-39.29,8.71C1007.07,183.72,991.77,181.13,977.47,175.52z"/>
</g>
<g>
	<defs>
		<rect id="SVGID_29_" x="976.69" y="152.53" width="86.26" height="30.51"/>
	</defs>
	<clipPath id="SVGID_30_">
		<use xlink:href="#SVGID_29_"  style="overflow:visible;"/>
	</clipPath>
	<path class="st18" d="M977.8,153.64l-0.11,21.15c13.4,4.95,27.59,7.41,41.88,7.24c14.54-0.17,28.91-3.05,42.39-8.49l-0.07-20.01
		c-12.98,5.52-26.93,8.44-41.04,8.59C1006.07,162.27,991.42,159.39,977.8,153.64z"/>
</g>
<g>
	<defs>
		<rect id="SVGID_31_" x="976.57" y="131.32" width="86.39" height="30.5"/>
	</defs>
	<clipPath id="SVGID_32_">
		<use xlink:href="#SVGID_31_"  style="overflow:visible;"/>
	</clipPath>
	<path class="st19" d="M977.8,132.42l-0.23,19.88c13.3,5.59,27.57,8.48,42,8.51c14.56,0.03,28.97-2.86,42.39-8.49l-0.07-20.01
		c-12.98,5.52-26.93,8.44-41.04,8.59C1006.07,141.06,991.42,138.17,977.8,132.42z"/>
</g>
<g>
	<defs>
		<rect id="SVGID_33_" x="680.52" y="86.21" width="544.07" height="172.39"/>
	</defs>
	<clipPath id="SVGID_34_">
		<use xlink:href="#SVGID_33_"  style="overflow:visible;"/>
	</clipPath>
	<rect x="684.86" y="89.71" class="st20" width="535.38" height="165.39"/>
</g>
<g>
	<defs>
		<rect id="SVGID_35_" x="1026.11" y="14.76" width="144.61" height="87.94"/>
	</defs>
	<clipPath id="SVGID_36_">
		<use xlink:href="#SVGID_35_"  style="overflow:visible;"/>
	</clipPath>
	<path class="st21" d="M1097.1,15.76c-17.4,0-32.23,11.7-37.92,28.1c-1.52-0.28-3.08-0.43-4.68-0.43c-15.13,0-27.4,13.05-27.4,29.15
		s12.26,29.13,27.4,29.13c0.29,0,0.57-0.01,0.86-0.02l41.28,0.01c0.16,0,0.31,0.01,0.47,0.01c0.15,0,0.3-0.01,0.46-0.01l49.31,0.01
		c12.61,0,22.84-10.87,22.84-24.29c0-13.42-10.22-24.3-22.84-24.3c-3.39,0-6.61,0.8-9.5,2.21
		C1135.73,33.18,1118.34,15.76,1097.1,15.76z"/>
</g>
<g>
	<defs>
		<rect id="SVGID_37_" x="-15.64" y="-162.24" width="1920" height="1080"/>
	</defs>
	<clipPath id="SVGID_38_">
		<use xlink:href="#SVGID_37_"  style="overflow:visible;"/>
	</clipPath>
	<rect x="704.28" y="314.18" class="st22" width="182.99" height="153"/>
</g>
<g>
	<defs>
		<rect id="SVGID_39_" x="703.33" y="313.23" width="184.89" height="154.89"/>
	</defs>
	<clipPath id="SVGID_40_">
		<use xlink:href="#SVGID_39_"  style="overflow:visible;"/>
	</clipPath>
	<g class="st23">
		<text transform="matrix(1 0 0 1 708.2776 334.1663)" class="st24 st25">name: py2-env </text>
	</g>
	<g class="st23">
		<text transform="matrix(1 0 0 1 708.2776 359.1663)" class="st24 st25">channels: </text>
	</g>
	<g class="st23">
		<text transform="matrix(1 0 0 1 708.2776 384.1663)" class="st24 st25">  - conda-forge </text>
	</g>
	<g class="st23">
		<text transform="matrix(1 0 0 1 708.2776 409.1663)" class="st24 st25">  - defaults </text>
	</g>
	<g class="st23">
		<text transform="matrix(1 0 0 1 708.2776 434.1663)" class="st24 st25">dependencies: </text>
	</g>
	<g class="st23">
		<text transform="matrix(1 0 0 1 708.2776 459.1663)" class="st24 st25">  - python=2.7</text>
	</g>
</g>
<g>
	<defs>
		<rect id="SVGID_41_" x="-15.64" y="-162.24" width="1920" height="1080"/>
	</defs>
	<clipPath id="SVGID_42_">
		<use xlink:href="#SVGID_41_"  style="overflow:visible;"/>
	</clipPath>
	<path class="st26" d="M730.31,301.71h236.36c12.35,0,19.76,0,24.7,2.06c7.12,2.59,12.73,8.2,15.33,15.33
		c2.06,4.94,2.06,12.35,2.06,24.7v93.75c0,12.35,0,19.76-2.06,24.7c-2.59,7.12-8.2,12.73-15.33,15.33
		c-4.94,2.06-12.35,2.06-24.7,2.06H730.31c-12.35,0-19.76,0-24.7-2.06c-7.12-2.59-12.73-8.2-15.33-15.33
		c-2.06-4.94-2.06-12.35-2.06-24.7V343.8c0-12.35,0-19.76,2.06-24.7c2.59-7.12,8.2-12.73,15.33-15.33
		C710.54,301.71,717.96,301.71,730.31,301.71z"/>
	<g class="st27">
		<text transform="matrix(1 0 0 1 602.1466 96.5199)" class="st28 st29">A.</text>
	</g>
	<g class="st27">
		<text transform="matrix(1 0 0 1 608.881 331.6153)" class="st28 st29">B.</text>
	</g>
	<path class="st26" d="M729.3,502.9h360.33c12.35,0,19.76,0,24.7,2.06c7.12,2.59,12.73,8.2,15.33,15.33
		c2.06,4.94,2.06,12.35,2.06,24.7v104.38c0,12.35,0,19.76-2.06,24.7c-2.59,7.12-8.2,12.73-15.33,15.33
		c-4.94,2.06-12.35,2.06-24.7,2.06H729.3c-12.35,0-19.76,0-24.7-2.06c-7.12-2.59-12.73-8.2-15.33-15.33
		c-2.06-4.94-2.06-12.35-2.06-24.7V545c0-12.35,0-19.76,2.06-24.7c2.59-7.12,8.2-12.73,15.33-15.33
		C709.54,502.9,716.95,502.9,729.3,502.9z"/>
	<rect x="702.35" y="508.19" class="st30" width="281.65" height="178"/>
</g>
<g>
	<defs>
		<rect id="SVGID_43_" x="701.41" y="507.24" width="283.55" height="179.89"/>
	</defs>
	<clipPath id="SVGID_44_">
		<use xlink:href="#SVGID_43_"  style="overflow:visible;"/>
	</clipPath>
	<g class="st31">
		<text transform="matrix(1 0 0 1 706.3532 528.1765)" class="st24 st25">name: snakemake </text>
	</g>
	<g class="st31">
		<text transform="matrix(1 0 0 1 706.3532 553.1765)" class="st24 st25">channels: </text>
	</g>
	<g class="st31">
		<text transform="matrix(1 0 0 1 706.3532 578.1765)" class="st24 st25">  - conda-forge </text>
	</g>
	<g class="st31">
		<text transform="matrix(1 0 0 1 706.3532 603.1765)" class="st24 st25">  - bioconda </text>
	</g>
	<g class="st31">
		<text transform="matrix(1 0 0 1 706.3532 628.1765)" class="st24 st25">  - defaults </text>
	</g>
	<g class="st31">
		<text transform="matrix(1 0 0 1 706.3532 653.1765)" class="st24 st25">dependencies: </text>
	</g>
	<g class="st31">
		<text transform="matrix(1 0 0 1 706.3532 678.1765)" class="st24 st25">  - snakemake-minimal=5.16</text>
	</g>
</g>
<path class="st32" d="M1022.74,600.55l-0.1,19.89c12.6,4.66,25.95,6.97,39.38,6.81c13.67-0.16,27.19-2.87,39.86-7.99l-0.06-18.81
	c-12.21,5.19-25.32,7.94-38.59,8.08C1049.33,608.67,1035.55,605.96,1022.74,600.55z"/>
<rect x="1021.64" y="599.45" class="st15" width="81.24" height="28.81"/>
<path class="st32" d="M1022.74,580.6l-0.22,18.69c12.51,5.26,25.93,7.98,39.49,8c13.69,0.03,27.24-2.69,39.86-7.99l-0.06-18.81
	c-12.21,5.19-25.32,7.94-38.59,8.08C1049.33,588.72,1035.55,586.01,1022.74,580.6z"/>
<rect x="1021.52" y="579.5" class="st15" width="81.36" height="28.8"/>
<path class="st14" d="M1062.19,522.93c-10.18,0-20.36,1.18-28.12,3.53c-7.77,2.35-11.64,5.42-11.64,8.49
	c0,3.08,3.87,6.15,11.64,8.49c15.53,4.7,40.71,4.7,56.25,0c7.77-2.35,11.67-5.42,11.67-8.49c0-3.08-3.9-6.15-11.67-8.49
	C1082.55,524.11,1072.37,522.93,1062.19,522.93z"/>
<rect x="1021.43" y="521.93" class="st15" width="81.55" height="26.03"/>
<path class="st33" d="M1022.43,641.94l0.3,16.86c0,6.6,17.73,12.65,39.61,12.65c21.88,0,39.64-6.04,39.64-12.65l-0.33-17.87
	c-11.72,4.94-24.24,7.72-36.95,8.19C1050.27,649.66,1035.88,647.21,1022.43,641.94z"/>
<rect x="1021.43" y="639.93" class="st15" width="81.55" height="32.52"/>
<path class="st14" d="M1022.74,560.36l-0.1,19.89c12.6,4.66,25.95,6.97,39.38,6.81c13.67-0.16,27.19-2.87,39.86-7.99l-0.06-18.81
	c-12.21,5.19-25.32,7.94-38.59,8.08C1049.33,568.48,1035.55,565.76,1022.74,560.36z"/>
<rect x="1021.64" y="559.26" class="st15" width="81.24" height="28.81"/>
<path class="st14" d="M1022.74,540.41l-0.22,18.69c12.51,5.26,25.93,7.98,39.49,8c13.69,0.03,27.24-2.69,39.86-7.99l-0.06-18.81
	c-12.21,5.19-25.32,7.94-38.59,8.08C1049.33,548.53,1035.55,545.81,1022.74,540.41z"/>
<rect x="1021.52" y="539.31" class="st15" width="81.36" height="28.8"/>
<path class="st32" d="M1022.69,620.82l-0.1,19.89c12.6,4.66,25.95,6.97,39.38,6.81c13.67-0.16,27.19-2.87,39.86-7.99l-0.06-18.81
	c-12.21,5.19-25.32,7.94-38.59,8.08C1049.27,628.94,1035.49,626.23,1022.69,620.82z"/>
<rect x="1021.58" y="619.72" class="st15" width="81.24" height="28.81"/>
<text transform="matrix(1 0 0 1 610.9172 744.9818)" class="st28 st29">C.</text>
<g>
	<path class="st34" d="M1015.38,725.99h86.28c2.96,0,4.73,0,5.92,1.1c1.71,1.38,3.05,4.38,3.67,8.19c0.49,2.64,0.49,6.6,0.49,13.19
		v55.75c0,6.6,0,10.56-0.49,13.19c-0.62,3.8-1.96,6.8-3.67,8.19c-1.18,1.1-2.96,1.1-5.92,1.1h-86.28c-2.96,0-4.73,0-5.92-1.1
		c-1.71-1.38-3.05-4.38-3.67-8.19c-0.49-2.64-0.49-6.6-0.49-13.19v-55.75c0-6.6,0-10.56,0.49-13.19c0.62-3.8,1.96-6.8,3.67-8.19
		C1010.65,725.99,1012.43,725.99,1015.38,725.99z"/>
	<g>
		<defs>
			<rect id="SVGID_45_" x="1036.1" y="777.04" width="43.39" height="15.39"/>
		</defs>
		<clipPath id="SVGID_46_">
			<use xlink:href="#SVGID_45_"  style="overflow:visible;"/>
		</clipPath>
		<path class="st35" d="M1036.69,777.62l-0.06,10.62c6.73,2.49,13.86,3.72,21.03,3.64c7.3-0.09,14.52-1.53,21.29-4.27l-0.03-10.05
			c-6.52,2.77-13.52,4.24-20.61,4.31C1050.89,781.96,1043.53,780.51,1036.69,777.62z"/>
	</g>
	<g>
		<defs>
			<rect id="SVGID_47_" x="1036.04" y="766.38" width="43.45" height="15.38"/>
		</defs>
		<clipPath id="SVGID_48_">
			<use xlink:href="#SVGID_47_"  style="overflow:visible;"/>
		</clipPath>
		<path class="st36" d="M1036.69,766.97l-0.12,9.98c6.68,2.81,13.85,4.26,21.09,4.28c7.31,0.01,14.55-1.44,21.29-4.27l-0.03-10.05
			c-6.52,2.77-13.52,4.24-20.61,4.31C1050.89,771.31,1043.53,769.86,1036.69,766.97z"/>
	</g>
	<path class="st14" d="M1057.76,736.16c-5.44,0-10.87,0.63-15.02,1.88c-4.15,1.25-6.22,2.89-6.22,4.54c0,1.64,2.07,3.28,6.22,4.54
		c8.3,2.51,21.74,2.51,30.04,0c4.15-1.25,6.23-2.89,6.23-4.54c0-1.64-2.08-3.28-6.23-4.54S1063.2,736.16,1057.76,736.16z"/>
	<rect x="1035.99" y="735.63" class="st15" width="43.56" height="13.9"/>
	<g>
		<defs>
			<rect id="SVGID_49_" x="1035.99" y="798.66" width="43.56" height="17.37"/>
		</defs>
		<clipPath id="SVGID_50_">
			<use xlink:href="#SVGID_49_"  style="overflow:visible;"/>
		</clipPath>
		<path class="st37" d="M1036.52,799.73l0.16,9c0,3.53,9.47,6.75,21.16,6.75c11.69,0,21.17-3.23,21.17-6.75l-0.18-9.54
			c-6.26,2.64-12.95,4.12-19.73,4.37C1051.39,803.85,1043.71,802.54,1036.52,799.73z"/>
	</g>
	<path class="st14" d="M1036.69,756.16l-0.06,10.62c6.73,2.49,13.86,3.72,21.03,3.64c7.3-0.09,14.52-1.53,21.29-4.27l-0.03-10.05
		c-6.52,2.77-13.52,4.24-20.61,4.31C1050.89,760.49,1043.53,759.04,1036.69,756.16z"/>
	<rect x="1036.1" y="755.57" class="st15" width="43.39" height="15.39"/>
	<path class="st14" d="M1036.69,745.5l-0.12,9.98c6.68,2.81,13.85,4.26,21.09,4.28c7.31,0.01,14.55-1.44,21.29-4.27l-0.03-10.05
		c-6.52,2.77-13.52,4.24-20.61,4.31C1050.89,749.84,1043.53,748.39,1036.69,745.5z"/>
	<rect x="1036.04" y="744.91" class="st15" width="43.45" height="15.38"/>
	<g>
		<defs>
			<rect id="SVGID_51_" x="1036.07" y="787.86" width="43.39" height="15.39"/>
		</defs>
		<clipPath id="SVGID_52_">
			<use xlink:href="#SVGID_51_"  style="overflow:visible;"/>
		</clipPath>
		<path class="st38" d="M1036.66,788.45l-0.06,10.62c6.73,2.49,13.86,3.72,21.03,3.64c7.3-0.09,14.52-1.53,21.29-4.27l-0.03-10.05
			c-6.52,2.77-13.52,4.24-20.61,4.31C1050.86,792.79,1043.5,791.34,1036.66,788.45z"/>
	</g>
</g>
<g>
	<g>
		<defs>
			<rect id="SVGID_53_" x="1036.72" y="864.08" width="49.72" height="15.82"/>
		</defs>
		<clipPath id="SVGID_54_">
			<use xlink:href="#SVGID_53_"  style="overflow:visible;"/>
		</clipPath>
		<path class="st39" d="M1061.57,864.65c-6.22,0-12.43,0.72-17.17,2.15s-7.11,3.31-7.11,5.19c0,1.88,2.36,3.75,7.11,5.19
			c9.48,2.87,24.86,2.87,34.34,0c4.74-1.43,7.12-3.31,7.12-5.19c0-1.88-2.38-3.75-7.12-5.19
			C1074,865.37,1067.78,864.65,1061.57,864.65z"/>
	</g>
	<g>
		<defs>
			<rect id="SVGID_55_" x="1036.72" y="898.88" width="49.72" height="19.78"/>
		</defs>
		<clipPath id="SVGID_56_">
			<use xlink:href="#SVGID_55_"  style="overflow:visible;"/>
		</clipPath>
		<path class="st40" d="M1037.29,900.07l0.18,10.29c0,4.03,10.82,7.72,24.18,7.72c13.36,0,24.2-3.69,24.2-7.72l-0.2-10.91
			c-7.15,3.02-14.8,4.71-22.56,5C1054.29,904.78,1045.5,903.29,1037.29,900.07z"/>
	</g>
	<g>
		<defs>
			<rect id="SVGID_57_" x="1036.85" y="886.87" width="49.53" height="17.52"/>
		</defs>
		<clipPath id="SVGID_58_">
			<use xlink:href="#SVGID_57_"  style="overflow:visible;"/>
		</clipPath>
		<path class="st41" d="M1037.48,887.51l-0.06,12.14c7.69,2.84,15.84,4.25,24.04,4.16c8.35-0.1,16.6-1.75,24.34-4.88l-0.04-11.49
			c-7.46,3.17-15.46,4.85-23.56,4.93C1053.72,892.46,1045.3,890.81,1037.48,887.51z"/>
	</g>
	<g>
		<defs>
			<rect id="SVGID_59_" x="1036.78" y="874.69" width="49.6" height="17.51"/>
		</defs>
		<clipPath id="SVGID_60_">
			<use xlink:href="#SVGID_59_"  style="overflow:visible;"/>
		</clipPath>
		<path class="st42" d="M1037.48,875.33l-0.13,11.41c7.63,3.21,15.83,4.87,24.11,4.89c8.36,0.02,16.63-1.64,24.34-4.88l-0.04-11.49
			c-7.46,3.17-15.46,4.85-23.56,4.93C1053.72,880.28,1045.3,878.63,1037.48,875.33z"/>
	</g>
	<path class="st34" d="M1019.83,838.61h79.12c4.13,0,6.62,0,8.27,1.18c2.38,1.49,4.26,4.71,5.13,8.8c0.69,2.84,0.69,7.09,0.69,14.18
		v53.83c0,7.09,0,11.35-0.69,14.18c-0.87,4.09-2.75,7.31-5.13,8.8c-1.65,1.18-4.13,1.18-8.27,1.18h-79.12c-4.13,0-6.62,0-8.27-1.18
		c-2.38-1.49-4.26-4.71-5.13-8.8c-0.69-2.84-0.69-7.09-0.69-14.18v-53.83c0-7.09,0-11.35,0.69-14.18c0.87-4.09,2.75-7.31,5.13-8.8
		C1013.21,838.61,1015.69,838.61,1019.83,838.61z"/>
</g>
<g>
	<g>
		<defs>
			<rect id="SVGID_61_" x="697.43" y="717.51" width="232.61" height="290.96"/>
		</defs>
		<clipPath id="SVGID_62_">
			<use xlink:href="#SVGID_61_"  style="overflow:visible;"/>
		</clipPath>
		<rect x="699.29" y="723.41" class="st43" width="228.9" height="279.14"/>
	</g>
	<rect x="708.39" y="730.61" class="st44" width="209.73" height="265.42"/>
	<text transform="matrix(1 0 0 1 722.8438 754.209)"><tspan x="0" y="0" class="st24 st25">step 1:</tspan><tspan x="0" y="20.4" class="st24 st25">    -----------</tspan><tspan x="0" y="40.8" class="st24 st25">    -----------</tspan><tspan x="0" y="61.2" class="st24 st25">    -----------</tspan></text>
	<text transform="matrix(1 0 0 1 722.5303 840.7061)"><tspan x="0" y="0" class="st24 st25">step 2:</tspan><tspan x="0" y="20.4" class="st24 st25">    -----------</tspan><tspan x="0" y="40.8" class="st24 st25">    -----------</tspan><tspan x="0" y="61.2" class="st24 st25">    -----------</tspan></text>
	<text transform="matrix(1 0 0 1 722.5756 922.9413)"><tspan x="0" y="0" class="st24 st25">step 3:</tspan><tspan x="0" y="20.4" class="st24 st25">    -----------</tspan><tspan x="0" y="40.8" class="st24 st25">    -----------</tspan><tspan x="0" y="61.2" class="st24 st25">    -----------</tspan></text>
</g>
<g>
	<polygon class="st45" points="-121.26,858.97 -120.89,912.3 -142.88,912.34 -142.64,916.56 -115.24,915.75 -115.42,885.58 
		-39.8,885.65 -39.7,894.24 -11.26,883.53 -40.19,872.33 -40.06,881.44 -115.68,881.36 -115.9,854.44 -142.88,854.08 
		-142.66,859.13 	"/>
</g>
<g>
	<polygon class="st46" points="-120.84,942.67 -120.47,996 -142.46,996.04 -142.22,1000.25 -114.82,999.45 -115,969.27 
		-71.77,969.32 -65.58,969.32 -65.38,821.69 -41.11,822.2 -41.01,831.79 -12.57,819.69 -41.5,808.49 -41.36,817.6 -69.91,816.92 
		-69.91,965.15 -115.26,965.06 -115.48,938.14 -142.46,937.78 -142.24,942.83 	"/>
</g>
<g>
	<polygon class="st46" points="-122.68,771.84 -122.3,825.17 -144.3,825.21 -144.05,829.42 -116.65,828.62 -116.83,798.44 
		-41.21,798.52 -41.11,807.11 -12.68,796.4 -41.6,785.2 -41.47,794.31 -117.09,794.23 -117.31,767.31 -144.3,766.95 -144.07,772 	
		"/>
</g>
<path class="st47" d="M1150.25,114.68c-10.83,0-21.65,1.25-29.91,3.75c-8.26,2.5-12.38,5.76-12.38,9.03c0,3.27,4.12,6.53,12.38,9.03
	c16.52,4.99,43.29,4.99,59.81,0c8.26-2.5,12.41-5.76,12.41-9.03c0-3.27-4.15-6.53-12.41-9.03
	C1171.89,115.93,1161.07,114.68,1150.25,114.68z"/>
<rect x="1106.96" y="113.68" class="st15" width="86.59" height="27.56"/>
<path class="st47" d="M1107.96,176.36l0.32,17.93c0,7.02,18.85,13.45,42.12,13.45c23.27,0,42.15-6.43,42.15-13.45l-0.35-19
	c-12.46,5.26-25.77,8.21-39.29,8.71C1137.57,184.56,1122.27,181.97,1107.96,176.36z"/>
<rect x="1106.96" y="174.29" class="st15" width="86.59" height="34.45"/>
<path class="st47" d="M1108.3,154.48l-0.11,21.15c13.4,4.95,27.59,7.41,41.88,7.24c14.53-0.17,28.91-3.05,42.39-8.49l-0.07-20.01
	c-12.98,5.52-26.93,8.44-41.04,8.59C1136.57,163.11,1121.92,160.23,1108.3,154.48z"/>
<rect x="1107.19" y="153.37" class="st15" width="86.26" height="30.51"/>
<path class="st47" d="M1108.3,133.26l-0.23,19.88c13.3,5.59,27.57,8.48,42,8.51c14.56,0.03,28.97-2.86,42.39-8.49l-0.07-20.01
	c-6.48,2.75-13.21,4.87-20.1,6.31c-6.87,1.44-13.89,2.21-20.94,2.28C1136.57,141.89,1121.92,139.01,1108.3,133.26z"/>
<rect x="1107.07" y="132.16" class="st15" width="86.39" height="30.5"/>
<text transform="matrix(1 0 0 1 1147.2643 235.2008)" class="st6 st7">r</text>
<g>
	<g>
		<path class="st48" d="M592.6,743.43c0.16,0.05,0.32,0.11,0.47,0.17"/>
		<path class="st49" d="M594.01,743.96c9.51,3.8,16.2,12.29,17.14,21.93c1.17,12.09-6.89,24.04-19.54,28.03"/>
		<path class="st48" d="M591.12,794.07c-0.16,0.05-0.32,0.09-0.48,0.14"/>
	</g>
</g>
<line class="st50" x1="904.51" y1="778.47" x2="984.25" y2="778.47"/>
<path class="st50" d="M907.14,959.98c0,0,26.05-3.85,37-13.94c25.47-23.45,19.8-121.19,21.8-134.49
	c2.35-15.66,19.93-12.52,19.93-12.52"/>
<line class="st51" x1="906.62" y1="872.91" x2="980.65" y2="881.98"/>
<polygon class="st52" points="1002.53,886.86 977.15,892.01 980.07,873.07 "/>
<polygon class="st52" points="1004.05,800.64 979.43,808.68 980.14,789.54 "/>
<polygon class="st52" points="1004.98,780.23 980.36,788.27 981.07,769.13 "/>
<g>
	<line class="st53" x1="904.71" y1="810.31" x2="904.71" y2="761.36"/>
	<line class="st53" x1="892.36" y1="807.9" x2="906.99" y2="807.9"/>
	<line class="st53" x1="892.46" y1="763.78" x2="907.09" y2="763.78"/>
</g>
<g>
	<line class="st53" x1="904.45" y1="898.54" x2="904.45" y2="849.59"/>
	<line class="st53" x1="892.1" y1="896.14" x2="906.73" y2="896.14"/>
	<line class="st53" x1="892.21" y1="852.01" x2="906.83" y2="852.01"/>
</g>
<g>
	<line class="st53" x1="904.77" y1="982.8" x2="904.77" y2="933.85"/>
	<line class="st53" x1="892.42" y1="980.39" x2="907.05" y2="980.39"/>
	<line class="st53" x1="892.53" y1="936.27" x2="907.16" y2="936.27"/>
</g>
</svg>
