<?xml version="1.0" encoding="utf-8"?>
<!-- Generator: Adobe Illustrator 24.0.1, SVG Export Plug-In . SVG Version: 6.00 Build 0)  -->
<svg version="1.1" id="Layer_1" xmlns="http://www.w3.org/2000/svg" xmlns:xlink="http://www.w3.org/1999/xlink" x="0px" y="0px"
	 viewBox="0 0 1438.02 853.23" style="enable-background:new 0 0 1438.02 853.23;" xml:space="preserve">
<style type="text/css">
	.st0{clip-path:url(#SVGID_2_);fill:#FFFFFF;}
	.st1{opacity:0.4482;clip-path:url(#SVGID_4_);enable-background:new    ;}
	.st2{clip-path:url(#SVGID_6_);}
	.st3{clip-path:url(#SVGID_8_);fill:#BEBEBE;}
	.st4{clip-path:url(#SVGID_8_);fill:none;stroke:#000000;stroke-width:7.4539;stroke-linejoin:round;stroke-miterlimit:10;}
	.st5{opacity:0.4971;clip-path:url(#SVGID_10_);enable-background:new    ;}
	.st6{clip-path:url(#SVGID_12_);}
	.st7{clip-path:url(#SVGID_14_);fill:#BEBEBE;}
	.st8{clip-path:url(#SVGID_14_);fill:none;stroke:#000000;stroke-width:7.4539;stroke-linejoin:round;stroke-miterlimit:10;}
	.st9{opacity:0.6129;clip-path:url(#SVGID_16_);enable-background:new    ;}
	.st10{clip-path:url(#SVGID_18_);}
	.st11{clip-path:url(#SVGID_20_);fill:#BEBEBE;}
	.st12{clip-path:url(#SVGID_20_);fill:none;stroke:#000000;stroke-width:7.4539;stroke-linejoin:round;stroke-miterlimit:10;}
	.st13{opacity:0.7039;clip-path:url(#SVGID_22_);enable-background:new    ;}
	.st14{clip-path:url(#SVGID_24_);}
	.st15{clip-path:url(#SVGID_26_);fill:#BEBEBE;}
	.st16{clip-path:url(#SVGID_26_);fill:none;stroke:#000000;stroke-width:7.4539;stroke-linejoin:round;stroke-miterlimit:10;}
	.st17{clip-path:url(#SVGID_28_);fill:#BEBEBE;}
	.st18{clip-path:url(#SVGID_28_);fill:none;stroke:#000000;stroke-width:5.598;stroke-linejoin:round;stroke-miterlimit:10;}
	.st19{clip-path:url(#SVGID_30_);fill:#EBEBEB;}
	.st20{clip-path:url(#SVGID_30_);fill:none;stroke:#000000;stroke-width:3;}
	.st21{clip-path:url(#SVGID_30_);}
	.st22{font-family:'Menlo-Regular';}
	.st23{font-size:29px;}
	.st24{opacity:0.3776;clip-path:url(#SVGID_32_);enable-background:new    ;}
	.st25{clip-path:url(#SVGID_34_);}
	.st26{clip-path:url(#SVGID_36_);fill:#FF8596;}
	.st27{opacity:0.3776;clip-path:url(#SVGID_38_);enable-background:new    ;}
	.st28{clip-path:url(#SVGID_40_);}
	.st29{clip-path:url(#SVGID_42_);fill:#7EE586;}
	.st30{clip-path:url(#SVGID_38_);}
</style>
<g>
	<defs>
		<rect id="SVGID_1_" x="5.99" y="1.04" width="1426.98" height="846.48"/>
	</defs>
	<clipPath id="SVGID_2_">
		<use xlink:href="#SVGID_1_"  style="overflow:visible;"/>
	</clipPath>
	<rect x="5.99" y="1.04" class="st0" width="1426.98" height="846.48"/>
</g>
<g>
	<defs>
		<rect id="SVGID_3_" x="71.62" y="167.66" width="218.28" height="253.41"/>
	</defs>
	<clipPath id="SVGID_4_">
		<use xlink:href="#SVGID_3_"  style="overflow:visible;"/>
	</clipPath>
	<g class="st1">
		<g>
			<defs>
				<rect id="SVGID_5_" x="71.01" y="167.61" width="219" height="254"/>
			</defs>
			<clipPath id="SVGID_6_">
				<use xlink:href="#SVGID_5_"  style="overflow:visible;"/>
			</clipPath>
			<g class="st2">
				<defs>
					<rect id="SVGID_7_" x="71.01" y="167.61" width="219" height="254"/>
				</defs>
				<clipPath id="SVGID_8_">
					<use xlink:href="#SVGID_7_"  style="overflow:visible;"/>
				</clipPath>
				<path class="st3" d="M198.33,246.05c0,7.27,5.9,13.18,13.18,13.18h74.67v144.94c0,7.27-5.9,13.18-13.18,13.18H88.53
					c-7.27,0-13.18-5.9-13.18-13.18V184.56c0-7.27,5.9-13.18,13.18-13.18h109.8V246.05z M215.9,241.66v-64.78
					c1.92,1.24,3.57,2.47,4.94,3.85l56,56c1.37,1.37,2.61,3.02,3.85,4.94H215.9z"/>
				<path class="st4" d="M198.33,246.05c0,7.27,5.9,13.18,13.18,13.18h74.67v144.94c0,7.27-5.9,13.18-13.18,13.18H88.53
					c-7.27,0-13.18-5.9-13.18-13.18V184.56c0-7.27,5.9-13.18,13.18-13.18h109.8V246.05z M215.9,241.66v-64.78
					c1.92,1.24,3.57,2.47,4.94,3.85l56,56c1.37,1.37,2.61,3.02,3.85,4.94H215.9z"/>
			</g>
		</g>
	</g>
</g>
<g>
	<defs>
		<rect id="SVGID_9_" x="103.3" y="203.4" width="218.28" height="253.41"/>
	</defs>
	<clipPath id="SVGID_10_">
		<use xlink:href="#SVGID_9_"  style="overflow:visible;"/>
	</clipPath>
	<g class="st5">
		<g>
			<defs>
				<rect id="SVGID_11_" x="103.01" y="202.61" width="219" height="255"/>
			</defs>
			<clipPath id="SVGID_12_">
				<use xlink:href="#SVGID_11_"  style="overflow:visible;"/>
			</clipPath>
			<g class="st6">
				<defs>
					<rect id="SVGID_13_" x="103.01" y="202.61" width="219" height="255"/>
				</defs>
				<clipPath id="SVGID_14_">
					<use xlink:href="#SVGID_13_"  style="overflow:visible;"/>
				</clipPath>
				<path class="st7" d="M230.01,281.79c0,7.27,5.9,13.18,13.18,13.18h74.67v144.94c0,7.27-5.9,13.18-13.18,13.18H120.2
					c-7.27,0-13.18-5.9-13.18-13.18V220.3c0-7.27,5.9-13.18,13.18-13.18h109.8V281.79z M247.58,277.4v-64.78
					c1.92,1.24,3.57,2.47,4.94,3.85l56,56c1.37,1.37,2.61,3.02,3.85,4.94H247.58z"/>
				<path class="st8" d="M230.01,281.79c0,7.27,5.9,13.18,13.18,13.18h74.67v144.94c0,7.27-5.9,13.18-13.18,13.18H120.2
					c-7.27,0-13.18-5.9-13.18-13.18V220.3c0-7.27,5.9-13.18,13.18-13.18h109.8V281.79z M247.58,277.4v-64.78
					c1.92,1.24,3.57,2.47,4.94,3.85l56,56c1.37,1.37,2.61,3.02,3.85,4.94H247.58z"/>
			</g>
		</g>
	</g>
</g>
<g>
	<defs>
		<rect id="SVGID_15_" x="143.67" y="242.77" width="218.28" height="253.41"/>
	</defs>
	<clipPath id="SVGID_16_">
		<use xlink:href="#SVGID_15_"  style="overflow:visible;"/>
	</clipPath>
	<g class="st9">
		<g>
			<defs>
				<rect id="SVGID_17_" x="143.01" y="242.61" width="219" height="254"/>
			</defs>
			<clipPath id="SVGID_18_">
				<use xlink:href="#SVGID_17_"  style="overflow:visible;"/>
			</clipPath>
			<g class="st10">
				<defs>
					<rect id="SVGID_19_" x="143.01" y="242.61" width="219" height="254"/>
				</defs>
				<clipPath id="SVGID_20_">
					<use xlink:href="#SVGID_19_"  style="overflow:visible;"/>
				</clipPath>
				<path class="st11" d="M270.38,321.17c0,7.27,5.9,13.18,13.18,13.18h74.67v144.94c0,7.27-5.9,13.18-13.18,13.18H160.58
					c-7.27,0-13.18-5.9-13.18-13.18V259.68c0-7.27,5.9-13.18,13.18-13.18h109.8V321.17z M287.95,316.77v-64.78
					c1.92,1.24,3.57,2.47,4.94,3.85l56,56c1.37,1.37,2.61,3.02,3.85,4.94H287.95z"/>
				<path class="st12" d="M270.38,321.17c0,7.27,5.9,13.18,13.18,13.18h74.67v144.94c0,7.27-5.9,13.18-13.18,13.18H160.58
					c-7.27,0-13.18-5.9-13.18-13.18V259.68c0-7.27,5.9-13.18,13.18-13.18h109.8V321.17z M287.95,316.77v-64.78
					c1.92,1.24,3.57,2.47,4.94,3.85l56,56c1.37,1.37,2.61,3.02,3.85,4.94H287.95z"/>
			</g>
		</g>
	</g>
</g>
<g>
	<defs>
		<rect id="SVGID_21_" x="174.74" y="287.78" width="218.28" height="253.41"/>
	</defs>
	<clipPath id="SVGID_22_">
		<use xlink:href="#SVGID_21_"  style="overflow:visible;"/>
	</clipPath>
	<g class="st13">
		<g>
			<defs>
				<rect id="SVGID_23_" x="174.01" y="287.61" width="220" height="254"/>
			</defs>
			<clipPath id="SVGID_24_">
				<use xlink:href="#SVGID_23_"  style="overflow:visible;"/>
			</clipPath>
			<g class="st14">
				<defs>
					<rect id="SVGID_25_" x="174.01" y="287.61" width="220" height="254"/>
				</defs>
				<clipPath id="SVGID_26_">
					<use xlink:href="#SVGID_25_"  style="overflow:visible;"/>
				</clipPath>
				<path class="st15" d="M301.45,366.18c0,7.27,5.9,13.18,13.18,13.18h74.67v144.94c0,7.27-5.9,13.18-13.18,13.18H191.65
					c-7.27,0-13.18-5.9-13.18-13.18V304.69c0-7.27,5.9-13.18,13.18-13.18h109.8V366.18z M319.02,361.78V297
					c1.92,1.24,3.57,2.47,4.94,3.85l56,56c1.37,1.37,2.61,3.02,3.85,4.94H319.02z"/>
				<path class="st16" d="M301.45,366.18c0,7.27,5.9,13.18,13.18,13.18h74.67v144.94c0,7.27-5.9,13.18-13.18,13.18H191.65
					c-7.27,0-13.18-5.9-13.18-13.18V304.69c0-7.27,5.9-13.18,13.18-13.18h109.8V366.18z M319.02,361.78V297
					c1.92,1.24,3.57,2.47,4.94,3.85l56,56c1.37,1.37,2.61,3.02,3.85,4.94H319.02z"/>
			</g>
		</g>
	</g>
</g>
<g>
	<defs>
		<rect id="SVGID_27_" x="213.42" y="337.1" width="217.37" height="252.66"/>
	</defs>
	<clipPath id="SVGID_28_">
		<use xlink:href="#SVGID_27_"  style="overflow:visible;"/>
	</clipPath>
	<path class="st17" d="M375.05,459.02v-8.82c0-2.48-1.93-4.41-4.41-4.41h-97.06c-2.48,0-4.41,1.93-4.41,4.41v8.82
		c0,2.48,1.93,4.41,4.41,4.41h97.06C373.12,463.44,375.05,461.5,375.05,459.02z M375.05,494.32v-8.82c0-2.48-1.93-4.41-4.41-4.41
		h-97.06c-2.48,0-4.41,1.93-4.41,4.41v8.82c0,2.48,1.93,4.41,4.41,4.41h97.06C373.12,498.73,375.05,496.8,375.05,494.32z
		 M375.05,529.61v-8.82c0-2.48-1.93-4.41-4.41-4.41h-97.06c-2.48,0-4.41,1.93-4.41,4.41v8.82c0,2.48,1.93,4.41,4.41,4.41h97.06
		C373.12,534.02,375.05,532.09,375.05,529.61z M352.99,428.14h75v145.59c0,7.31-5.93,13.24-13.24,13.24h-185.3
		c-7.31,0-13.24-5.93-13.24-13.24V353.14c0-7.3,5.93-13.24,13.24-13.24h110.3v75C339.75,422.21,345.68,428.14,352.99,428.14z
		 M418.61,405.53c1.38,1.38,2.62,3.04,3.87,4.96H357.4v-65.07c1.93,1.24,3.58,2.48,4.96,3.87L418.61,405.53z"/>
	<path class="st18" d="M375.05,459.02v-8.82c0-2.48-1.93-4.41-4.41-4.41h-97.06c-2.48,0-4.41,1.93-4.41,4.41v8.82
		c0,2.48,1.93,4.41,4.41,4.41h97.06C373.12,463.44,375.05,461.5,375.05,459.02z M375.05,494.32v-8.82c0-2.48-1.93-4.41-4.41-4.41
		h-97.06c-2.48,0-4.41,1.93-4.41,4.41v8.82c0,2.48,1.93,4.41,4.41,4.41h97.06C373.12,498.73,375.05,496.8,375.05,494.32z
		 M375.05,529.61v-8.82c0-2.48-1.93-4.41-4.41-4.41h-97.06c-2.48,0-4.41,1.93-4.41,4.41v8.82c0,2.48,1.93,4.41,4.41,4.41h97.06
		C373.12,534.02,375.05,532.09,375.05,529.61z M352.99,428.14h75v145.59c0,7.31-5.93,13.24-13.24,13.24h-185.3
		c-7.31,0-13.24-5.93-13.24-13.24V353.14c0-7.3,5.93-13.24,13.24-13.24h110.3v75C339.75,422.21,345.68,428.14,352.99,428.14z
		 M418.61,405.53c1.38,1.38,2.62,3.04,3.87,4.96H357.4v-65.07c1.93,1.24,3.58,2.48,4.96,3.87L418.61,405.53z"/>
</g>
<g>
	<defs>
		<rect id="SVGID_29_" x="-240.99" y="-113.39" width="1920" height="1080"/>
	</defs>
	<clipPath id="SVGID_30_">
		<use xlink:href="#SVGID_29_"  style="overflow:visible;"/>
	</clipPath>
	<rect x="501.15" y="174.98" class="st19" width="339.42" height="407.47"/>
	<rect x="501.15" y="174.98" class="st20" width="339.42" height="407.47"/>
	<rect x="1025.47" y="174.98" class="st19" width="339.42" height="407.47"/>
	<rect x="1025.47" y="174.98" class="st20" width="339.42" height="407.47"/>
	<g class="st21">
		<text transform="matrix(1 0 0 1 509.5604 225.0716)" class="st22 st23">Hello world</text>
	</g>
	<g class="st21">
		<text transform="matrix(1 0 0 1 509.5604 334.2716)" class="st22 st23">This code is great</text>
	</g>
	<g class="st21">
		<text transform="matrix(1 0 0 1 509.5604 443.4716)" class="st22 st23">The best doce ever </text>
	</g>
	<g class="st21">
		<text transform="matrix(1 0 0 1 509.5604 552.6716)" class="st22 st23">Here is my code</text>
	</g>
	<g class="st21">
		<text transform="matrix(1 0 0 1 1037.5449 443.4716)" class="st22 st23">The best code ever </text>
	</g>
	<g class="st21">
		<text transform="matrix(1 0 0 1 1037.8773 224.5493)" class="st22 st23">Hello world</text>
	</g>
	<g class="st21">
		<text transform="matrix(1 0 0 1 1037.8773 333.7493)" class="st22 st23">This code is great</text>
	</g>
	<g class="st21">
		<text transform="matrix(1 0 0 1 1037.8773 552.1494)" class="st22 st23">Here is my code</text>
	</g>
</g>
<g>
	<defs>
		<rect id="SVGID_31_" x="-240.99" y="-113.39" width="1920" height="1080"/>
	</defs>
	<clipPath id="SVGID_32_">
		<use xlink:href="#SVGID_31_"  style="overflow:visible;"/>
	</clipPath>
	<g class="st24">
		<g>
			<defs>
				<rect id="SVGID_33_" x="503.01" y="397.61" width="336" height="68"/>
			</defs>
			<clipPath id="SVGID_34_">
				<use xlink:href="#SVGID_33_"  style="overflow:visible;"/>
			</clipPath>
			<g class="st25">
				<defs>
					<rect id="SVGID_35_" x="503.01" y="397.61" width="336" height="68"/>
				</defs>
				<clipPath id="SVGID_36_">
					<use xlink:href="#SVGID_35_"  style="overflow:visible;"/>
				</clipPath>
				<rect x="503.15" y="397.82" class="st26" width="335.42" height="67.42"/>
			</g>
		</g>
	</g>
</g>
<g>
	<defs>
		<rect id="SVGID_37_" x="-240.99" y="-113.39" width="1920" height="1080"/>
	</defs>
	<clipPath id="SVGID_38_">
		<use xlink:href="#SVGID_37_"  style="overflow:visible;"/>
	</clipPath>
	<g class="st27">
		<g>
			<defs>
				<rect id="SVGID_39_" x="1027.01" y="397.61" width="336" height="68"/>
			</defs>
			<clipPath id="SVGID_40_">
				<use xlink:href="#SVGID_39_"  style="overflow:visible;"/>
			</clipPath>
			<g class="st28">
				<defs>
					<rect id="SVGID_41_" x="1027.01" y="397.61" width="336" height="68"/>
				</defs>
				<clipPath id="SVGID_42_">
					<use xlink:href="#SVGID_41_"  style="overflow:visible;"/>
				</clipPath>
				<rect x="1027.47" y="397.82" class="st29" width="335.42" height="67.42"/>
			</g>
		</g>
	</g>
	<polygon class="st30" points="958.04,385.04 958.04,398.48 998.02,378.71 958.04,358.94 958.04,372.38 877.6,372.38 877.6,385.04 	
		"/>
</g>
<text transform="matrix(1 0 0 1 530.4193 627.5282)" class="st22 st23">commit   4c38c2c</text>
<text transform="matrix(1 0 0 1 1053.1575 627.5649)" class="st22 st23">commit   5c6c28d</text>
</svg>
