<?xml version="1.0" encoding="utf-8"?>
<!-- Generator: Adobe Illustrator 24.0.1, SVG Export Plug-In . SVG Version: 6.00 Build 0)  -->
<svg version="1.1" id="Layer_1" xmlns="http://www.w3.org/2000/svg" xmlns:xlink="http://www.w3.org/1999/xlink" x="0px" y="0px"
	 viewBox="0 0 1920 1080" style="enable-background:new 0 0 1920 1080;" xml:space="preserve">
<style type="text/css">
	.st0{clip-path:url(#SVGID_2_);fill:#FFFFFF;}
	.st1{opacity:0.4482;clip-path:url(#SVGID_4_);enable-background:new    ;}
	.st2{clip-path:url(#SVGID_6_);}
	.st3{clip-path:url(#SVGID_8_);fill:#BEBEBE;}
	.st4{clip-path:url(#SVGID_8_);fill:none;stroke:#000000;stroke-width:7.4539;stroke-linejoin:round;stroke-miterlimit:10;}
	.st5{opacity:0.4971;clip-path:url(#SVGID_10_);enable-background:new    ;}
	.st6{clip-path:url(#SVGID_12_);}
	.st7{clip-path:url(#SVGID_14_);fill:#BEBEBE;}
	.st8{clip-path:url(#SVGID_14_);fill:none;stroke:#000000;stroke-width:7.4539;stroke-linejoin:round;stroke-miterlimit:10;}
	.st9{opacity:0.6129;clip-path:url(#SVGID_16_);enable-background:new    ;}
	.st10{clip-path:url(#SVGID_18_);}
	.st11{clip-path:url(#SVGID_20_);fill:#BEBEBE;}
	.st12{clip-path:url(#SVGID_20_);fill:none;stroke:#000000;stroke-width:7.4539;stroke-linejoin:round;stroke-miterlimit:10;}
	.st13{opacity:0.7039;clip-path:url(#SVGID_22_);enable-background:new    ;}
	.st14{clip-path:url(#SVGID_24_);}
	.st15{clip-path:url(#SVGID_26_);fill:#BEBEBE;}
	.st16{clip-path:url(#SVGID_26_);fill:none;stroke:#000000;stroke-width:7.4539;stroke-linejoin:round;stroke-miterlimit:10;}
	.st17{clip-path:url(#SVGID_28_);fill:#BEBEBE;}
	.st18{clip-path:url(#SVGID_28_);fill:none;stroke:#000000;stroke-width:5.598;stroke-linejoin:round;stroke-miterlimit:10;}
	.st19{clip-path:url(#SVGID_30_);fill:#EBEBEB;}
	.st20{clip-path:url(#SVGID_30_);fill:none;stroke:#000000;stroke-width:3;}
	.st21{clip-path:url(#SVGID_30_);}
	.st22{opacity:0.3776;clip-path:url(#SVGID_32_);enable-background:new    ;}
	.st23{clip-path:url(#SVGID_34_);}
	.st24{clip-path:url(#SVGID_36_);fill:#FF8596;}
	.st25{opacity:0.3776;clip-path:url(#SVGID_38_);enable-background:new    ;}
	.st26{clip-path:url(#SVGID_40_);}
	.st27{clip-path:url(#SVGID_42_);fill:#7EE586;}
	.st28{clip-path:url(#SVGID_38_);}
</style>
<g>
	<defs>
		<rect id="SVGID_1_" width="1920" height="1080"/>
	</defs>
	<clipPath id="SVGID_2_">
		<use xlink:href="#SVGID_1_"  style="overflow:visible;"/>
	</clipPath>
	<rect class="st0" width="1920" height="1080"/>
</g>
<g>
	<defs>
		<rect id="SVGID_3_" x="312.62" y="281.04" width="218.28" height="253.41"/>
	</defs>
	<clipPath id="SVGID_4_">
		<use xlink:href="#SVGID_3_"  style="overflow:visible;"/>
	</clipPath>
	<g class="st1">
		<g>
			<defs>
				<rect id="SVGID_5_" x="312" y="281" width="219" height="254"/>
			</defs>
			<clipPath id="SVGID_6_">
				<use xlink:href="#SVGID_5_"  style="overflow:visible;"/>
			</clipPath>
			<g class="st2">
				<defs>
					<rect id="SVGID_7_" x="312" y="281" width="219" height="254"/>
				</defs>
				<clipPath id="SVGID_8_">
					<use xlink:href="#SVGID_7_"  style="overflow:visible;"/>
				</clipPath>
				<path class="st3" d="M439.32,359.44c0,7.27,5.9,13.18,13.18,13.18h74.67v144.94c0,7.27-5.9,13.18-13.18,13.18H329.52
					c-7.27,0-13.18-5.9-13.18-13.18V297.95c0-7.27,5.9-13.18,13.18-13.18h109.8V359.44z M456.89,355.04v-64.78
					c1.92,1.24,3.57,2.47,4.94,3.85l56,56c1.37,1.37,2.61,3.02,3.85,4.94H456.89z"/>
				<path class="st4" d="M439.32,359.44c0,7.27,5.9,13.18,13.18,13.18h74.67v144.94c0,7.27-5.9,13.18-13.18,13.18H329.52
					c-7.27,0-13.18-5.9-13.18-13.18V297.95c0-7.27,5.9-13.18,13.18-13.18h109.8V359.44z M456.89,355.04v-64.78
					c1.92,1.24,3.57,2.47,4.94,3.85l56,56c1.37,1.37,2.61,3.02,3.85,4.94H456.89z"/>
			</g>
		</g>
	</g>
</g>
<g>
	<defs>
		<rect id="SVGID_9_" x="344.29" y="316.78" width="218.28" height="253.41"/>
	</defs>
	<clipPath id="SVGID_10_">
		<use xlink:href="#SVGID_9_"  style="overflow:visible;"/>
	</clipPath>
	<g class="st5">
		<g>
			<defs>
				<rect id="SVGID_11_" x="344" y="316" width="219" height="255"/>
			</defs>
			<clipPath id="SVGID_12_">
				<use xlink:href="#SVGID_11_"  style="overflow:visible;"/>
			</clipPath>
			<g class="st6">
				<defs>
					<rect id="SVGID_13_" x="344" y="316" width="219" height="255"/>
				</defs>
				<clipPath id="SVGID_14_">
					<use xlink:href="#SVGID_13_"  style="overflow:visible;"/>
				</clipPath>
				<path class="st7" d="M471,395.18c0,7.27,5.9,13.18,13.18,13.18h74.67v144.94c0,7.27-5.9,13.18-13.18,13.18H361.2
					c-7.27,0-13.18-5.9-13.18-13.18V333.68c0-7.27,5.9-13.18,13.18-13.18H471V395.18z M488.57,390.78V326
					c1.92,1.24,3.57,2.47,4.94,3.85l56,56c1.37,1.37,2.61,3.02,3.85,4.94H488.57z"/>
				<path class="st8" d="M471,395.18c0,7.27,5.9,13.18,13.18,13.18h74.67v144.94c0,7.27-5.9,13.18-13.18,13.18H361.2
					c-7.27,0-13.18-5.9-13.18-13.18V333.68c0-7.27,5.9-13.18,13.18-13.18H471V395.18z M488.57,390.78V326
					c1.92,1.24,3.57,2.47,4.94,3.85l56,56c1.37,1.37,2.61,3.02,3.85,4.94H488.57z"/>
			</g>
		</g>
	</g>
</g>
<g>
	<defs>
		<rect id="SVGID_15_" x="384.67" y="356.16" width="218.28" height="253.41"/>
	</defs>
	<clipPath id="SVGID_16_">
		<use xlink:href="#SVGID_15_"  style="overflow:visible;"/>
	</clipPath>
	<g class="st9">
		<g>
			<defs>
				<rect id="SVGID_17_" x="384" y="356" width="219" height="254"/>
			</defs>
			<clipPath id="SVGID_18_">
				<use xlink:href="#SVGID_17_"  style="overflow:visible;"/>
			</clipPath>
			<g class="st10">
				<defs>
					<rect id="SVGID_19_" x="384" y="356" width="219" height="254"/>
				</defs>
				<clipPath id="SVGID_20_">
					<use xlink:href="#SVGID_19_"  style="overflow:visible;"/>
				</clipPath>
				<path class="st11" d="M511.37,434.55c0,7.27,5.9,13.18,13.18,13.18h74.67v144.94c0,7.27-5.9,13.18-13.18,13.18H401.57
					c-7.27,0-13.18-5.9-13.18-13.18V373.06c0-7.27,5.9-13.18,13.18-13.18h109.8V434.55z M528.94,430.16v-64.78
					c1.92,1.24,3.57,2.47,4.94,3.85l56,56c1.37,1.37,2.61,3.02,3.85,4.94H528.94z"/>
				<path class="st12" d="M511.37,434.55c0,7.27,5.9,13.18,13.18,13.18h74.67v144.94c0,7.27-5.9,13.18-13.18,13.18H401.57
					c-7.27,0-13.18-5.9-13.18-13.18V373.06c0-7.27,5.9-13.18,13.18-13.18h109.8V434.55z M528.94,430.16v-64.78
					c1.92,1.24,3.57,2.47,4.94,3.85l56,56c1.37,1.37,2.61,3.02,3.85,4.94H528.94z"/>
			</g>
		</g>
	</g>
</g>
<g>
	<defs>
		<rect id="SVGID_21_" x="415.73" y="401.17" width="218.28" height="253.41"/>
	</defs>
	<clipPath id="SVGID_22_">
		<use xlink:href="#SVGID_21_"  style="overflow:visible;"/>
	</clipPath>
	<g class="st13">
		<g>
			<defs>
				<rect id="SVGID_23_" x="415" y="401" width="220" height="254"/>
			</defs>
			<clipPath id="SVGID_24_">
				<use xlink:href="#SVGID_23_"  style="overflow:visible;"/>
			</clipPath>
			<g class="st14">
				<defs>
					<rect id="SVGID_25_" x="415" y="401" width="220" height="254"/>
				</defs>
				<clipPath id="SVGID_26_">
					<use xlink:href="#SVGID_25_"  style="overflow:visible;"/>
				</clipPath>
				<path class="st15" d="M542.44,479.56c0,7.27,5.9,13.18,13.18,13.18h74.67v144.94c0,7.27-5.9,13.18-13.18,13.18H432.64
					c-7.27,0-13.18-5.9-13.18-13.18V418.07c0-7.27,5.9-13.18,13.18-13.18h109.8V479.56z M560.01,475.17v-64.78
					c1.92,1.24,3.57,2.47,4.94,3.85l56,56c1.37,1.37,2.61,3.02,3.85,4.94H560.01z"/>
				<path class="st16" d="M542.44,479.56c0,7.27,5.9,13.18,13.18,13.18h74.67v144.94c0,7.27-5.9,13.18-13.18,13.18H432.64
					c-7.27,0-13.18-5.9-13.18-13.18V418.07c0-7.27,5.9-13.18,13.18-13.18h109.8V479.56z M560.01,475.17v-64.78
					c1.92,1.24,3.57,2.47,4.94,3.85l56,56c1.37,1.37,2.61,3.02,3.85,4.94H560.01z"/>
			</g>
		</g>
	</g>
</g>
<g>
	<defs>
		<rect id="SVGID_27_" x="454.42" y="450.49" width="217.37" height="252.66"/>
	</defs>
	<clipPath id="SVGID_28_">
		<use xlink:href="#SVGID_27_"  style="overflow:visible;"/>
	</clipPath>
	<path class="st17" d="M616.04,572.41v-8.82c0-2.48-1.93-4.41-4.41-4.41h-97.06c-2.48,0-4.41,1.93-4.41,4.41v8.82
		c0,2.48,1.93,4.41,4.41,4.41h97.06C614.11,576.82,616.04,574.89,616.04,572.41z M616.04,607.7v-8.82c0-2.48-1.93-4.41-4.41-4.41
		h-97.06c-2.48,0-4.41,1.93-4.41,4.41v8.82c0,2.48,1.93,4.41,4.41,4.41h97.06C614.11,612.12,616.04,610.18,616.04,607.7z
		 M616.04,643v-8.82c0-2.48-1.93-4.41-4.41-4.41h-97.06c-2.48,0-4.41,1.93-4.41,4.41V643c0,2.48,1.93,4.41,4.41,4.41h97.06
		C614.11,647.41,616.04,645.48,616.04,643z M593.98,541.53h75v145.59c0,7.31-5.93,13.24-13.24,13.24h-185.3
		c-7.31,0-13.24-5.93-13.24-13.24V466.52c0-7.3,5.93-13.24,13.24-13.24h110.3v75C580.75,535.6,586.68,541.53,593.98,541.53z
		 M659.6,518.92c1.38,1.38,2.62,3.04,3.87,4.96h-65.07V458.8c1.93,1.24,3.58,2.48,4.96,3.87L659.6,518.92z"/>
	<path class="st18" d="M616.04,572.41v-8.82c0-2.48-1.93-4.41-4.41-4.41h-97.06c-2.48,0-4.41,1.93-4.41,4.41v8.82
		c0,2.48,1.93,4.41,4.41,4.41h97.06C614.11,576.82,616.04,574.89,616.04,572.41z M616.04,607.7v-8.82c0-2.48-1.93-4.41-4.41-4.41
		h-97.06c-2.48,0-4.41,1.93-4.41,4.41v8.82c0,2.48,1.93,4.41,4.41,4.41h97.06C614.11,612.12,616.04,610.18,616.04,607.7z
		 M616.04,643v-8.82c0-2.48-1.93-4.41-4.41-4.41h-97.06c-2.48,0-4.41,1.93-4.41,4.41V643c0,2.48,1.93,4.41,4.41,4.41h97.06
		C614.11,647.41,616.04,645.48,616.04,643z M593.98,541.53h75v145.59c0,7.31-5.93,13.24-13.24,13.24h-185.3
		c-7.31,0-13.24-5.93-13.24-13.24V466.52c0-7.3,5.93-13.24,13.24-13.24h110.3v75C580.75,535.6,586.68,541.53,593.98,541.53z
		 M659.6,518.92c1.38,1.38,2.62,3.04,3.87,4.96h-65.07V458.8c1.93,1.24,3.58,2.48,4.96,3.87L659.6,518.92z"/>
</g>
<g>
	<defs>
		<rect id="SVGID_29_" width="1920" height="1080"/>
	</defs>
	<clipPath id="SVGID_30_">
		<use xlink:href="#SVGID_29_"  style="overflow:visible;"/>
	</clipPath>
	<rect x="742.15" y="288.36" class="st19" width="339.42" height="407.47"/>
	<rect x="742.15" y="288.36" class="st20" width="339.42" height="407.47"/>
	<rect x="1266.46" y="288.36" class="st19" width="339.42" height="407.47"/>
	<rect x="1266.46" y="288.36" class="st20" width="339.42" height="407.47"/>
	<g class="st21">
		<path d="M752.49,317.32h2.88v8.1h7.83v-8.1h2.88v21.14h-2.88v-10.63h-7.83v10.63h-2.88V317.32z"/>
		<path d="M783.87,329.23v1.27h-11.29v0.08c-0.08,2.16,0.34,3.71,1.24,4.66c0.9,0.94,2.17,1.42,3.82,1.42c0.83,0,1.7-0.13,2.61-0.4
			c0.91-0.26,1.87-0.67,2.9-1.2v2.59c-0.99,0.41-1.95,0.71-2.87,0.91c-0.92,0.2-1.81,0.3-2.67,0.3c-2.46,0-4.39-0.74-5.78-2.22
			s-2.08-3.51-2.08-6.11c0-2.53,0.68-4.55,2.04-6.06c1.36-1.51,3.17-2.27,5.44-2.27c2.02,0,3.61,0.68,4.78,2.05
			C783.17,325.64,783.8,327.29,783.87,329.23z M781.27,328.46c-0.11-1.09-0.51-2.04-1.2-2.84s-1.67-1.2-2.95-1.2
			c-1.26,0-2.29,0.42-3.1,1.25c-0.81,0.83-1.25,1.77-1.33,2.8L781.27,328.46z"/>
		<path d="M795.65,332.72c0,1.17,0.21,2.05,0.64,2.65s1.06,0.89,1.9,0.89h3.04v2.2h-3.3c-1.56,0-2.76-0.5-3.62-1.49
			c-0.85-1-1.28-2.41-1.28-4.24v-14.34h-4.18v-2.04h6.78V332.72z"/>
		<path d="M813.11,332.72c0,1.17,0.21,2.05,0.64,2.65c0.43,0.59,1.06,0.89,1.91,0.89h3.04v2.2h-3.3c-1.56,0-2.76-0.5-3.62-1.49
			s-1.28-2.41-1.28-4.24v-14.34h-4.18v-2.04h6.78V332.72z"/>
		<path d="M829.11,322.22c2.2,0,3.88,0.71,5.05,2.14s1.75,3.49,1.75,6.19c0,2.71-0.58,4.77-1.74,6.2s-2.85,2.13-5.05,2.13
			c-2.2,0-3.88-0.71-5.04-2.13s-1.74-3.49-1.74-6.2c0-2.7,0.58-4.76,1.74-6.19S826.91,322.22,829.11,322.22z M829.11,324.42
			c-1.32,0-2.32,0.51-3,1.54s-1.02,2.55-1.02,4.57c0,2.01,0.34,3.53,1.02,4.57c0.68,1.03,1.68,1.55,3,1.55
			c1.33,0,2.34-0.52,3.02-1.55c0.68-1.03,1.02-2.56,1.02-4.57c0-2.02-0.34-3.54-1.02-4.57S830.44,324.42,829.11,324.42z"/>
		<path d="M855.31,322.6h2.58l2.76,12.81l2.27-8.18h2.22l2.29,8.18l2.76-12.81h2.58l-3.71,15.86h-2.49l-2.53-8.69l-2.52,8.69h-2.49
			L855.31,322.6z"/>
		<path d="M881.49,322.22c2.2,0,3.88,0.71,5.05,2.14c1.17,1.43,1.75,3.49,1.75,6.19c0,2.71-0.58,4.77-1.74,6.2s-2.85,2.13-5.06,2.13
			c-2.2,0-3.88-0.71-5.04-2.13s-1.74-3.49-1.74-6.2c0-2.7,0.58-4.76,1.74-6.19S879.29,322.22,881.49,322.22z M881.49,324.42
			c-1.32,0-2.32,0.51-3,1.54s-1.02,2.55-1.02,4.57c0,2.01,0.34,3.53,1.02,4.57c0.68,1.03,1.68,1.55,3,1.55
			c1.33,0,2.34-0.52,3.02-1.55c0.68-1.03,1.02-2.56,1.02-4.57c0-2.02-0.34-3.54-1.02-4.57S882.82,324.42,881.49,324.42z"/>
		<path d="M906.58,325.87c-0.56-0.43-1.12-0.75-1.7-0.95c-0.58-0.2-1.21-0.3-1.9-0.3c-1.62,0-2.87,0.51-3.72,1.53
			c-0.86,1.02-1.29,2.49-1.29,4.42v7.89h-2.62V322.6h2.62v3.1c0.43-1.12,1.1-1.99,2-2.58s1.97-0.9,3.21-0.9
			c0.64,0,1.24,0.08,1.8,0.24c0.56,0.16,1.09,0.41,1.6,0.75V325.87z"/>
		<path d="M917.87,332.72c0,1.17,0.21,2.05,0.64,2.65c0.43,0.59,1.06,0.89,1.91,0.89h3.04v2.2h-3.3c-1.56,0-2.76-0.5-3.62-1.49
			s-1.28-2.41-1.28-4.24v-14.34h-4.18v-2.04h6.78V332.72z"/>
		<path d="M937.3,324.62v-8.2h2.61v22.03h-2.61v-2c-0.43,0.78-1.01,1.38-1.73,1.79c-0.72,0.41-1.56,0.62-2.5,0.62
			c-1.92,0-3.42-0.74-4.52-2.23c-1.1-1.49-1.65-3.54-1.65-6.15c0-2.58,0.55-4.6,1.66-6.07s2.61-2.2,4.52-2.2
			c0.95,0,1.79,0.21,2.52,0.62C936.31,323.24,936.88,323.84,937.3,324.62z M929.64,330.54c0,2.02,0.32,3.54,0.96,4.57
			c0.64,1.03,1.59,1.54,2.85,1.54c1.25,0,2.21-0.52,2.87-1.56c0.66-1.04,0.98-2.56,0.98-4.56c0-2.01-0.33-3.53-0.98-4.57
			c-0.66-1.03-1.61-1.55-2.87-1.55c-1.26,0-2.2,0.51-2.85,1.54C929.96,327,929.64,328.52,929.64,330.54z"/>
	</g>
	<g class="st21">
		<path d="M751.22,426.52h16.13v2.41h-6.61v18.73h-2.87v-18.73h-6.64V426.52z"/>
		<path d="M782.89,437.83v9.83h-2.62v-9.83c0-1.43-0.25-2.47-0.75-3.14c-0.5-0.67-1.28-1.01-2.35-1.01c-1.22,0-2.16,0.43-2.81,1.3
			c-0.66,0.86-0.98,2.1-0.98,3.72v8.96h-2.61v-22.03h2.61v8.55c0.46-0.91,1.09-1.59,1.88-2.06c0.79-0.47,1.73-0.7,2.82-0.7
			c1.61,0,2.82,0.53,3.62,1.59C782.5,434.07,782.89,435.68,782.89,437.83z"/>
		<path d="M789.95,431.85h6.67v13.78h5.17v2.03h-12.94v-2.03h5.17v-11.75h-4.06V431.85z M794.01,425.69h2.61v3.29h-2.61V425.69z"/>
		<path d="M816.71,432.35v2.55c-0.75-0.43-1.5-0.76-2.25-0.98c-0.75-0.22-1.52-0.33-2.31-0.33c-1.18,0-2.06,0.19-2.64,0.57
			c-0.58,0.38-0.87,0.96-0.87,1.75c0,0.71,0.22,1.24,0.65,1.59c0.43,0.35,1.51,0.69,3.24,1.02l1.05,0.2
			c1.29,0.25,2.27,0.74,2.94,1.47c0.67,0.74,1,1.7,1,2.88c0,1.57-0.56,2.79-1.67,3.67c-1.11,0.88-2.66,1.32-4.64,1.32
			c-0.78,0-1.6-0.08-2.46-0.25c-0.86-0.17-1.79-0.41-2.79-0.74v-2.69c0.97,0.5,1.9,0.88,2.79,1.13c0.89,0.25,1.73,0.38,2.52,0.38
			c1.15,0,2.04-0.23,2.68-0.7c0.63-0.47,0.95-1.12,0.95-1.96c0-1.21-1.16-2.04-3.47-2.51l-0.11-0.03l-0.98-0.2
			c-1.5-0.29-2.6-0.79-3.29-1.48c-0.69-0.69-1.03-1.64-1.03-2.84c0-1.52,0.51-2.69,1.54-3.52c1.03-0.83,2.5-1.24,4.4-1.24
			c0.85,0,1.67,0.08,2.45,0.23C815.18,431.8,815.95,432.04,816.71,432.35z"/>
		<path d="M852.87,446.85c-0.7,0.41-1.42,0.71-2.16,0.91c-0.74,0.2-1.5,0.3-2.27,0.3c-2.45,0-4.37-0.74-5.76-2.21
			s-2.07-3.51-2.07-6.12s0.69-4.64,2.07-6.12s3.3-2.21,5.76-2.21c0.76,0,1.51,0.1,2.24,0.3c0.73,0.2,1.46,0.5,2.2,0.92v2.73
			c-0.69-0.61-1.38-1.06-2.08-1.33c-0.69-0.27-1.48-0.41-2.36-0.41c-1.63,0-2.89,0.53-3.77,1.59c-0.88,1.06-1.32,2.57-1.32,4.53
			c0,1.96,0.44,3.46,1.32,4.52c0.88,1.06,2.14,1.59,3.76,1.59c0.91,0,1.72-0.14,2.44-0.42c0.72-0.28,1.38-0.71,2-1.3V446.85z"/>
		<path d="M864.03,431.42c2.2,0,3.88,0.71,5.05,2.14s1.75,3.49,1.75,6.19c0,2.71-0.58,4.77-1.74,6.2s-2.85,2.13-5.05,2.13
			c-2.2,0-3.88-0.71-5.04-2.13s-1.74-3.49-1.74-6.2c0-2.7,0.58-4.76,1.74-6.19S861.83,431.42,864.03,431.42z M864.03,433.62
			c-1.32,0-2.32,0.51-3,1.54s-1.02,2.55-1.02,4.57c0,2.01,0.34,3.53,1.02,4.57c0.68,1.03,1.68,1.55,3,1.55
			c1.33,0,2.34-0.52,3.02-1.55c0.68-1.03,1.02-2.56,1.02-4.57c0-2.02-0.34-3.54-1.02-4.57S865.36,433.62,864.03,433.62z"/>
		<path d="M884.92,433.82v-8.2h2.61v22.03h-2.61v-2c-0.43,0.78-1.01,1.38-1.73,1.79c-0.72,0.41-1.56,0.62-2.5,0.62
			c-1.92,0-3.42-0.74-4.52-2.23c-1.1-1.49-1.65-3.54-1.65-6.15c0-2.58,0.55-4.6,1.66-6.07s2.61-2.2,4.52-2.2
			c0.95,0,1.79,0.21,2.52,0.62C883.93,432.44,884.5,433.04,884.92,433.82z M877.26,439.74c0,2.02,0.32,3.54,0.96,4.57
			c0.64,1.03,1.59,1.54,2.85,1.54c1.26,0,2.21-0.52,2.87-1.56c0.66-1.04,0.98-2.56,0.98-4.56c0-2.01-0.33-3.53-0.98-4.57
			c-0.66-1.03-1.61-1.55-2.87-1.55c-1.25,0-2.2,0.51-2.85,1.54C877.58,436.2,877.26,437.72,877.26,439.74z"/>
		<path d="M906.09,438.42v1.27H894.8v0.08c-0.08,2.16,0.34,3.71,1.24,4.66c0.9,0.94,2.17,1.42,3.82,1.42c0.83,0,1.7-0.13,2.61-0.4
			c0.91-0.26,1.87-0.67,2.9-1.2v2.59c-0.99,0.41-1.95,0.71-2.87,0.91c-0.92,0.2-1.81,0.3-2.67,0.3c-2.46,0-4.39-0.74-5.78-2.22
			s-2.08-3.51-2.08-6.11c0-2.53,0.68-4.55,2.04-6.06c1.36-1.51,3.17-2.27,5.44-2.27c2.02,0,3.61,0.68,4.78,2.05
			S906.01,436.49,906.09,438.42z M903.48,437.66c-0.11-1.09-0.51-2.04-1.2-2.84c-0.68-0.8-1.67-1.2-2.95-1.2
			c-1.25,0-2.29,0.42-3.1,1.25c-0.81,0.83-1.26,1.77-1.33,2.8L903.48,437.66z"/>
		<path d="M929.62,431.85h6.67v13.78h5.17v2.03h-12.94v-2.03h5.17v-11.75h-4.06V431.85z M933.69,425.69h2.61v3.29h-2.61V425.69z"/>
		<path d="M956.38,432.35v2.55c-0.75-0.43-1.5-0.76-2.25-0.98c-0.75-0.22-1.52-0.33-2.31-0.33c-1.18,0-2.06,0.19-2.64,0.57
			c-0.58,0.38-0.87,0.96-0.87,1.75c0,0.71,0.22,1.24,0.65,1.59c0.43,0.35,1.51,0.69,3.24,1.02l1.05,0.2
			c1.29,0.25,2.27,0.74,2.94,1.47c0.67,0.74,1,1.7,1,2.88c0,1.57-0.56,2.79-1.67,3.67c-1.11,0.88-2.66,1.32-4.64,1.32
			c-0.78,0-1.6-0.08-2.46-0.25c-0.86-0.17-1.79-0.41-2.79-0.74v-2.69c0.97,0.5,1.9,0.88,2.79,1.13c0.89,0.25,1.73,0.38,2.52,0.38
			c1.15,0,2.04-0.23,2.68-0.7c0.63-0.47,0.95-1.12,0.95-1.96c0-1.21-1.16-2.04-3.47-2.51l-0.11-0.03l-0.98-0.2
			c-1.5-0.29-2.6-0.79-3.29-1.48c-0.69-0.69-1.03-1.64-1.03-2.84c0-1.52,0.51-2.69,1.54-3.52c1.03-0.83,2.5-1.24,4.4-1.24
			c0.85,0,1.67,0.08,2.45,0.23C954.86,431.8,955.63,432.04,956.38,432.35z"/>
		<path d="M992.28,446.64c0,2.38-0.56,4.18-1.68,5.41c-1.12,1.23-2.78,1.84-4.96,1.84c-0.72,0-1.47-0.07-2.25-0.2
			c-0.78-0.13-1.57-0.33-2.35-0.58v-2.58c0.93,0.43,1.77,0.75,2.52,0.96c0.76,0.21,1.45,0.31,2.08,0.31c1.41,0,2.43-0.38,3.07-1.15
			c0.64-0.76,0.96-1.98,0.96-3.64v-0.11v-1.77c-0.42,0.89-0.98,1.55-1.7,1.98c-0.72,0.43-1.59,0.65-2.62,0.65
			c-1.85,0-3.33-0.74-4.43-2.22c-1.1-1.48-1.66-3.46-1.66-5.95c0-2.49,0.55-4.48,1.66-5.96s2.58-2.22,4.43-2.22
			c1.02,0,1.88,0.2,2.59,0.61s1.28,1.03,1.73,1.88v-2.05h2.61V446.64z M989.67,439.6c0-1.96-0.32-3.44-0.96-4.45
			c-0.64-1.01-1.56-1.52-2.78-1.52c-1.27,0-2.25,0.51-2.92,1.52c-0.67,1.01-1,2.5-1,4.45c0,1.95,0.34,3.44,1.01,4.47
			c0.68,1.02,1.66,1.54,2.94,1.54c1.2,0,2.12-0.51,2.75-1.54C989.36,443.03,989.67,441.54,989.67,439.6z"/>
		<path d="M1011.34,435.07c-0.56-0.43-1.12-0.75-1.7-0.95c-0.58-0.2-1.21-0.3-1.9-0.3c-1.62,0-2.87,0.51-3.72,1.53
			c-0.86,1.02-1.29,2.49-1.29,4.42v7.89h-2.62V431.8h2.62v3.1c0.43-1.12,1.1-1.99,2-2.58s1.97-0.9,3.21-0.9
			c0.64,0,1.24,0.08,1.8,0.24c0.56,0.16,1.09,0.41,1.6,0.75V435.07z"/>
		<path d="M1028.3,438.42v1.27h-11.29v0.08c-0.08,2.16,0.34,3.71,1.24,4.66c0.9,0.94,2.17,1.42,3.82,1.42c0.83,0,1.7-0.13,2.61-0.4
			c0.91-0.26,1.87-0.67,2.9-1.2v2.59c-0.99,0.41-1.95,0.71-2.87,0.91c-0.92,0.2-1.81,0.3-2.67,0.3c-2.46,0-4.39-0.74-5.78-2.22
			s-2.08-3.51-2.08-6.11c0-2.53,0.68-4.55,2.04-6.06c1.36-1.51,3.17-2.27,5.44-2.27c2.02,0,3.61,0.68,4.78,2.05
			C1027.61,434.84,1028.23,436.49,1028.3,438.42z M1025.7,437.66c-0.11-1.09-0.51-2.04-1.2-2.84s-1.67-1.2-2.95-1.2
			c-1.26,0-2.29,0.42-3.1,1.25c-0.81,0.83-1.25,1.77-1.33,2.8L1025.7,437.66z"/>
		<path d="M1044.9,438.61v9.05h-2.62v-2.35c-0.56,0.94-1.26,1.64-2.1,2.09c-0.85,0.45-1.87,0.67-3.08,0.67
			c-1.61,0-2.9-0.46-3.87-1.37s-1.44-2.13-1.44-3.66c0-1.77,0.59-3.11,1.78-4.02s2.92-1.37,5.22-1.37h3.5v-0.41
			c-0.01-1.26-0.33-2.18-0.96-2.75c-0.63-0.57-1.64-0.86-3.03-0.86c-0.89,0-1.78,0.13-2.69,0.38s-1.79,0.63-2.65,1.12v-2.61
			c0.96-0.37,1.89-0.64,2.77-0.83c0.88-0.18,1.74-0.28,2.57-0.28c1.31,0,2.43,0.19,3.36,0.58c0.93,0.39,1.68,0.97,2.26,1.74
			c0.36,0.47,0.61,1.06,0.76,1.75C1044.82,436.18,1044.9,437.22,1044.9,438.61z M1039.84,439.68h-0.86c-1.52,0-2.66,0.27-3.43,0.8
			s-1.15,1.33-1.15,2.39c0,0.95,0.29,1.69,0.86,2.22c0.58,0.53,1.37,0.79,2.39,0.79c1.44,0,2.56-0.5,3.38-1.49s1.24-2.37,1.25-4.13
			v-0.58H1039.84z"/>
		<path d="M1056.06,427.29v4.5h5.92v2.03h-5.92v8.61c0,1.17,0.22,1.99,0.67,2.45c0.44,0.46,1.22,0.69,2.32,0.69h2.93v2.08h-3.19
			c-1.95,0-3.33-0.39-4.13-1.18c-0.8-0.78-1.2-2.13-1.2-4.05v-8.61h-4.23v-2.03h4.23v-4.5H1056.06z"/>
	</g>
	<g class="st21">
		<path d="M751.22,535.72h16.13v2.41h-6.61v18.73h-2.87v-18.73h-6.64V535.72z"/>
		<path d="M782.89,547.03v9.83h-2.62v-9.83c0-1.43-0.25-2.47-0.75-3.14c-0.5-0.67-1.28-1.01-2.35-1.01c-1.22,0-2.16,0.43-2.81,1.3
			c-0.66,0.86-0.98,2.1-0.98,3.72v8.96h-2.61v-22.03h2.61v8.55c0.46-0.91,1.09-1.59,1.88-2.06c0.79-0.47,1.73-0.7,2.82-0.7
			c1.61,0,2.82,0.53,3.62,1.59C782.5,543.27,782.89,544.88,782.89,547.03z"/>
		<path d="M801.33,547.62v1.27h-11.29v0.08c-0.08,2.16,0.34,3.71,1.24,4.66c0.9,0.94,2.17,1.42,3.82,1.42c0.83,0,1.7-0.13,2.61-0.4
			c0.91-0.26,1.87-0.67,2.9-1.2v2.59c-0.99,0.41-1.95,0.71-2.87,0.91c-0.92,0.2-1.81,0.3-2.67,0.3c-2.46,0-4.39-0.74-5.78-2.22
			s-2.08-3.51-2.08-6.11c0-2.53,0.68-4.55,2.04-6.06c1.36-1.51,3.17-2.27,5.44-2.27c2.02,0,3.61,0.68,4.78,2.05
			S801.25,545.69,801.33,547.62z M798.73,546.86c-0.11-1.09-0.51-2.04-1.2-2.84c-0.68-0.8-1.67-1.2-2.95-1.2
			c-1.25,0-2.29,0.42-3.1,1.25c-0.81,0.83-1.26,1.77-1.33,2.8L798.73,546.86z"/>
		<path d="M825.73,543.02c0.42-0.77,0.99-1.37,1.72-1.79c0.73-0.42,1.58-0.62,2.54-0.62c1.91,0,3.41,0.73,4.5,2.2
			c1.09,1.47,1.64,3.49,1.64,6.07c0,2.62-0.55,4.67-1.65,6.15c-1.1,1.49-2.61,2.23-4.52,2.23c-0.94,0-1.78-0.21-2.5-0.62
			c-0.72-0.41-1.3-1.01-1.74-1.79v2h-2.61v-22.03h2.61V543.02z M833.39,548.94c0-2.02-0.32-3.54-0.96-4.57
			c-0.64-1.03-1.59-1.54-2.85-1.54c-1.26,0-2.22,0.52-2.87,1.55c-0.65,1.03-0.98,2.56-0.98,4.57c0,2,0.33,3.52,0.98,4.56
			c0.65,1.04,1.61,1.56,2.87,1.56c1.26,0,2.2-0.51,2.85-1.54C833.07,552.49,833.39,550.96,833.39,548.94z"/>
		<path d="M853.71,547.62v1.27h-11.29v0.08c-0.08,2.16,0.34,3.71,1.24,4.66c0.9,0.94,2.17,1.42,3.82,1.42c0.83,0,1.7-0.13,2.61-0.4
			c0.91-0.26,1.87-0.67,2.9-1.2v2.59c-0.99,0.41-1.95,0.71-2.87,0.91c-0.92,0.2-1.81,0.3-2.67,0.3c-2.46,0-4.39-0.74-5.78-2.22
			s-2.08-3.51-2.08-6.11c0-2.53,0.68-4.55,2.04-6.06c1.36-1.51,3.17-2.27,5.44-2.27c2.02,0,3.61,0.68,4.78,2.05
			C853.01,544.04,853.63,545.69,853.71,547.62z M851.1,546.86c-0.11-1.09-0.51-2.04-1.2-2.84s-1.67-1.2-2.95-1.2
			c-1.26,0-2.29,0.42-3.1,1.25c-0.81,0.83-1.25,1.77-1.33,2.8L851.1,546.86z"/>
		<path d="M869.09,541.55v2.55c-0.75-0.43-1.5-0.76-2.25-0.98c-0.76-0.22-1.52-0.33-2.31-0.33c-1.18,0-2.06,0.19-2.64,0.57
			c-0.58,0.38-0.87,0.96-0.87,1.75c0,0.71,0.22,1.24,0.65,1.59c0.43,0.35,1.52,0.69,3.24,1.02l1.05,0.2
			c1.29,0.25,2.27,0.74,2.94,1.47c0.67,0.74,1,1.7,1,2.88c0,1.57-0.56,2.79-1.67,3.67c-1.11,0.88-2.66,1.32-4.64,1.32
			c-0.78,0-1.61-0.08-2.46-0.25c-0.86-0.17-1.79-0.41-2.79-0.74v-2.69c0.97,0.5,1.9,0.88,2.79,1.13c0.89,0.25,1.73,0.38,2.52,0.38
			c1.15,0,2.04-0.23,2.68-0.7c0.63-0.47,0.95-1.12,0.95-1.96c0-1.21-1.16-2.04-3.47-2.51l-0.11-0.03l-0.98-0.2
			c-1.5-0.29-2.6-0.79-3.29-1.48c-0.69-0.69-1.03-1.64-1.03-2.84c0-1.52,0.51-2.69,1.54-3.52c1.03-0.83,2.5-1.24,4.4-1.24
			c0.85,0,1.67,0.08,2.45,0.23C867.56,541,868.33,541.24,869.09,541.55z"/>
		<path d="M881.46,536.5v4.5h5.92v2.03h-5.92v8.61c0,1.17,0.22,1.99,0.67,2.45c0.44,0.46,1.22,0.69,2.32,0.69h2.93v2.08h-3.19
			c-1.95,0-3.33-0.39-4.13-1.18c-0.8-0.78-1.2-2.13-1.2-4.05v-8.61h-4.23V541h4.23v-4.5H881.46z"/>
		<path d="M919.84,543.02v-8.2h2.61v22.03h-2.61v-2c-0.43,0.78-1.01,1.38-1.73,1.79c-0.72,0.41-1.56,0.62-2.5,0.62
			c-1.92,0-3.42-0.74-4.52-2.23c-1.1-1.49-1.65-3.54-1.65-6.15c0-2.58,0.55-4.6,1.66-6.07s2.61-2.2,4.52-2.2
			c0.95,0,1.79,0.21,2.52,0.62C918.85,541.64,919.42,542.24,919.84,543.02z M912.18,548.94c0,2.02,0.32,3.54,0.96,4.57
			c0.64,1.03,1.59,1.54,2.85,1.54c1.26,0,2.21-0.52,2.87-1.56c0.66-1.04,0.98-2.56,0.98-4.56c0-2.01-0.33-3.53-0.98-4.57
			c-0.66-1.03-1.61-1.55-2.87-1.55c-1.25,0-2.2,0.51-2.85,1.54C912.5,545.4,912.18,546.92,912.18,548.94z"/>
		<path d="M933.87,540.62c2.2,0,3.88,0.71,5.05,2.14s1.75,3.49,1.75,6.19c0,2.71-0.58,4.77-1.74,6.2s-2.85,2.13-5.05,2.13
			c-2.2,0-3.88-0.71-5.04-2.13s-1.74-3.49-1.74-6.2c0-2.7,0.58-4.76,1.74-6.19S931.67,540.62,933.87,540.62z M933.87,542.82
			c-1.32,0-2.32,0.51-3,1.54s-1.02,2.55-1.02,4.57c0,2.01,0.34,3.53,1.02,4.57c0.68,1.03,1.68,1.55,3,1.55
			c1.33,0,2.34-0.52,3.02-1.55c0.68-1.03,1.02-2.56,1.02-4.57c0-2.02-0.34-3.54-1.02-4.57S935.2,542.82,933.87,542.82z"/>
		<path d="M957.63,556.05c-0.7,0.41-1.42,0.71-2.16,0.91c-0.74,0.2-1.5,0.3-2.27,0.3c-2.45,0-4.37-0.74-5.76-2.21
			s-2.07-3.51-2.07-6.12s0.69-4.64,2.07-6.12s3.3-2.21,5.76-2.21c0.76,0,1.51,0.1,2.24,0.3c0.73,0.2,1.46,0.5,2.2,0.92v2.73
			c-0.69-0.61-1.38-1.06-2.08-1.33c-0.69-0.27-1.48-0.41-2.36-0.41c-1.63,0-2.89,0.53-3.77,1.59c-0.88,1.06-1.32,2.57-1.32,4.53
			c0,1.96,0.44,3.46,1.32,4.52c0.88,1.06,2.14,1.59,3.76,1.59c0.91,0,1.72-0.14,2.44-0.42c0.72-0.28,1.38-0.71,2-1.3V556.05z"/>
		<path d="M975.93,547.62v1.27h-11.29v0.08c-0.08,2.16,0.34,3.71,1.24,4.66c0.9,0.94,2.17,1.42,3.82,1.42c0.83,0,1.7-0.13,2.61-0.4
			c0.91-0.26,1.87-0.67,2.9-1.2v2.59c-0.99,0.41-1.95,0.71-2.87,0.91c-0.92,0.2-1.81,0.3-2.67,0.3c-2.46,0-4.39-0.74-5.78-2.22
			s-2.08-3.51-2.08-6.11c0-2.53,0.68-4.55,2.04-6.06c1.36-1.51,3.17-2.27,5.44-2.27c2.02,0,3.61,0.68,4.78,2.05
			S975.85,545.69,975.93,547.62z M973.32,546.86c-0.11-1.09-0.51-2.04-1.2-2.84c-0.68-0.8-1.67-1.2-2.95-1.2
			c-1.25,0-2.29,0.42-3.1,1.25c-0.81,0.83-1.26,1.77-1.33,2.8L973.32,546.86z"/>
		<path d="M1010.84,547.62v1.27h-11.29v0.08c-0.08,2.16,0.34,3.71,1.24,4.66c0.9,0.94,2.17,1.42,3.82,1.42c0.83,0,1.7-0.13,2.61-0.4
			c0.91-0.26,1.87-0.67,2.9-1.2v2.59c-0.99,0.41-1.95,0.71-2.87,0.91c-0.92,0.2-1.81,0.3-2.67,0.3c-2.46,0-4.39-0.74-5.78-2.22
			s-2.08-3.51-2.08-6.11c0-2.53,0.68-4.55,2.04-6.06c1.36-1.51,3.17-2.27,5.44-2.27c2.02,0,3.61,0.68,4.78,2.05
			S1010.77,545.69,1010.84,547.62z M1008.24,546.86c-0.11-1.09-0.51-2.04-1.2-2.84c-0.68-0.8-1.67-1.2-2.95-1.2
			c-1.25,0-2.29,0.42-3.1,1.25c-0.81,0.83-1.26,1.77-1.33,2.8L1008.24,546.86z"/>
		<path d="M1013.86,541h2.71l4.6,13.31l4.62-13.31h2.71l-5.64,15.86h-3.36L1013.86,541z"/>
		<path d="M1045.76,547.62v1.27h-11.29v0.08c-0.08,2.16,0.34,3.71,1.24,4.66c0.9,0.94,2.17,1.42,3.82,1.42c0.83,0,1.7-0.13,2.61-0.4
			c0.91-0.26,1.87-0.67,2.9-1.2v2.59c-0.99,0.41-1.95,0.71-2.87,0.91c-0.92,0.2-1.81,0.3-2.67,0.3c-2.46,0-4.39-0.74-5.78-2.22
			s-2.08-3.51-2.08-6.11c0-2.53,0.68-4.55,2.04-6.06c1.36-1.51,3.17-2.27,5.44-2.27c2.02,0,3.61,0.68,4.78,2.05
			S1045.69,545.69,1045.76,547.62z M1043.16,546.86c-0.11-1.09-0.51-2.04-1.2-2.84c-0.68-0.8-1.67-1.2-2.95-1.2
			c-1.25,0-2.29,0.42-3.1,1.25c-0.81,0.83-1.26,1.77-1.33,2.8L1043.16,546.86z"/>
		<path d="M1063.72,544.27c-0.56-0.43-1.12-0.75-1.7-0.95c-0.58-0.2-1.21-0.3-1.9-0.3c-1.62,0-2.87,0.51-3.72,1.53
			c-0.86,1.02-1.29,2.49-1.29,4.42v7.89h-2.62V541h2.62v3.1c0.43-1.12,1.1-1.99,2-2.58c0.9-0.6,1.97-0.9,3.21-0.9
			c0.64,0,1.24,0.08,1.8,0.24c0.56,0.16,1.09,0.41,1.6,0.75V544.27z"/>
	</g>
	<g class="st21">
		<path d="M752.49,644.92h2.88v8.1h7.83v-8.1h2.88v21.14h-2.88v-10.63h-7.83v10.63h-2.88V644.92z"/>
		<path d="M783.87,656.83v1.27h-11.29v0.08c-0.08,2.16,0.34,3.71,1.24,4.66c0.9,0.94,2.17,1.42,3.82,1.42c0.83,0,1.7-0.13,2.61-0.4
			c0.91-0.26,1.87-0.67,2.9-1.2v2.59c-0.99,0.41-1.95,0.71-2.87,0.91c-0.92,0.2-1.81,0.3-2.67,0.3c-2.46,0-4.39-0.74-5.78-2.22
			s-2.08-3.51-2.08-6.11c0-2.53,0.68-4.55,2.04-6.06c1.36-1.51,3.17-2.27,5.44-2.27c2.02,0,3.61,0.68,4.78,2.05
			C783.17,653.24,783.8,654.89,783.87,656.83z M781.27,656.06c-0.11-1.09-0.51-2.04-1.2-2.84s-1.67-1.2-2.95-1.2
			c-1.26,0-2.29,0.42-3.1,1.25c-0.81,0.83-1.25,1.77-1.33,2.8L781.27,656.06z"/>
		<path d="M801.83,653.47c-0.56-0.43-1.12-0.75-1.7-0.95c-0.58-0.2-1.21-0.3-1.9-0.3c-1.62,0-2.87,0.51-3.72,1.53
			c-0.86,1.02-1.29,2.49-1.29,4.42v7.89h-2.62V650.2h2.62v3.1c0.43-1.12,1.1-1.99,2-2.58s1.97-0.9,3.21-0.9
			c0.64,0,1.24,0.08,1.8,0.24c0.56,0.16,1.09,0.41,1.6,0.75V653.47z"/>
		<path d="M818.79,656.83v1.27H807.5v0.08c-0.08,2.16,0.34,3.71,1.24,4.66c0.9,0.94,2.17,1.42,3.82,1.42c0.83,0,1.7-0.13,2.61-0.4
			c0.91-0.26,1.87-0.67,2.9-1.2v2.59c-0.99,0.41-1.95,0.71-2.87,0.91c-0.92,0.2-1.81,0.3-2.67,0.3c-2.46,0-4.39-0.74-5.78-2.22
			s-2.08-3.51-2.08-6.11c0-2.53,0.68-4.55,2.04-6.06c1.36-1.51,3.17-2.27,5.44-2.27c2.02,0,3.61,0.68,4.78,2.05
			C818.09,653.24,818.71,654.89,818.79,656.83z M816.18,656.06c-0.11-1.09-0.51-2.04-1.2-2.84s-1.67-1.2-2.95-1.2
			c-1.26,0-2.29,0.42-3.1,1.25c-0.81,0.83-1.25,1.77-1.33,2.8L816.18,656.06z"/>
		<path d="M842.32,650.25h6.67v13.78h5.17v2.03h-12.94v-2.03h5.17v-11.75h-4.06V650.25z M846.39,644.09h2.61v3.29h-2.61V644.09z"/>
		<path d="M869.09,650.75v2.55c-0.75-0.43-1.5-0.76-2.25-0.98c-0.76-0.22-1.52-0.33-2.31-0.33c-1.18,0-2.06,0.19-2.64,0.57
			c-0.58,0.38-0.87,0.96-0.87,1.75c0,0.71,0.22,1.24,0.65,1.59c0.43,0.35,1.52,0.69,3.24,1.02l1.05,0.2
			c1.29,0.25,2.27,0.74,2.94,1.47c0.67,0.74,1,1.7,1,2.88c0,1.57-0.56,2.79-1.67,3.67c-1.11,0.88-2.66,1.32-4.64,1.32
			c-0.78,0-1.61-0.08-2.46-0.25c-0.86-0.17-1.79-0.41-2.79-0.74v-2.69c0.97,0.5,1.9,0.88,2.79,1.13c0.89,0.25,1.73,0.38,2.52,0.38
			c1.15,0,2.04-0.23,2.68-0.7c0.63-0.47,0.95-1.12,0.95-1.96c0-1.21-1.16-2.04-3.47-2.51l-0.11-0.03l-0.98-0.2
			c-1.5-0.29-2.6-0.79-3.29-1.48c-0.69-0.69-1.03-1.64-1.03-2.84c0-1.52,0.51-2.69,1.54-3.52c1.03-0.83,2.5-1.24,4.4-1.24
			c0.85,0,1.67,0.08,2.45,0.23C867.56,650.21,868.33,650.44,869.09,650.75z"/>
		<path d="M899.8,651.81c0.32-0.68,0.73-1.18,1.22-1.51c0.5-0.33,1.09-0.49,1.79-0.49c1.27,0,2.17,0.49,2.7,1.48
			c0.52,0.99,0.79,2.84,0.79,5.57v9.19h-2.38v-9.08c0-2.24-0.12-3.63-0.38-4.17s-0.71-0.81-1.37-0.81c-0.76,0-1.27,0.29-1.55,0.87
			c-0.28,0.58-0.42,1.95-0.42,4.11v9.08h-2.38v-9.08c0-2.27-0.13-3.66-0.4-4.19c-0.27-0.53-0.75-0.79-1.45-0.79
			c-0.69,0-1.17,0.29-1.44,0.87c-0.27,0.58-0.4,1.95-0.4,4.11v9.08h-2.37V650.2h2.37v1.36c0.31-0.57,0.7-1,1.17-1.3
			c0.47-0.3,1-0.45,1.59-0.45c0.72,0,1.31,0.17,1.79,0.5C899.17,650.64,899.54,651.14,899.8,651.81z"/>
		<path d="M919.84,660.96c-0.43,1.1-0.99,2.56-1.66,4.36c-0.93,2.49-1.56,4.01-1.88,4.56c-0.43,0.74-0.98,1.29-1.63,1.66
			c-0.65,0.37-1.41,0.55-2.28,0.55h-2.1v-2.18h1.54c0.76,0,1.36-0.22,1.8-0.67c0.43-0.44,0.99-1.59,1.66-3.44l-6.13-15.6h2.76
			l4.7,12.4l4.63-12.4h2.76L919.84,660.96z"/>
		<path d="M957.63,665.25c-0.7,0.41-1.42,0.71-2.16,0.91c-0.74,0.2-1.5,0.3-2.27,0.3c-2.45,0-4.37-0.74-5.76-2.21
			s-2.07-3.51-2.07-6.12s0.69-4.64,2.07-6.12s3.3-2.21,5.76-2.21c0.76,0,1.51,0.1,2.24,0.3c0.73,0.2,1.46,0.5,2.2,0.92v2.73
			c-0.69-0.61-1.38-1.06-2.08-1.33c-0.69-0.27-1.48-0.41-2.36-0.41c-1.63,0-2.89,0.53-3.77,1.59c-0.88,1.06-1.32,2.57-1.32,4.53
			c0,1.96,0.44,3.46,1.32,4.52c0.88,1.06,2.14,1.59,3.76,1.59c0.91,0,1.72-0.14,2.44-0.42c0.72-0.28,1.38-0.71,2-1.3V665.25z"/>
		<path d="M968.79,649.82c2.2,0,3.88,0.71,5.05,2.14s1.75,3.49,1.75,6.19c0,2.71-0.58,4.77-1.74,6.2s-2.85,2.13-5.05,2.13
			c-2.2,0-3.88-0.71-5.04-2.13s-1.74-3.49-1.74-6.2c0-2.7,0.58-4.76,1.74-6.19S966.59,649.82,968.79,649.82z M968.79,652.02
			c-1.32,0-2.32,0.51-3,1.54s-1.02,2.55-1.02,4.57c0,2.01,0.34,3.53,1.02,4.57c0.68,1.03,1.68,1.55,3,1.55
			c1.33,0,2.34-0.52,3.02-1.55c0.68-1.03,1.02-2.56,1.02-4.57c0-2.02-0.34-3.54-1.02-4.57S970.12,652.02,968.79,652.02z"/>
		<path d="M989.67,652.22v-8.2h2.61v22.03h-2.61v-2c-0.43,0.78-1.01,1.38-1.73,1.79c-0.72,0.41-1.56,0.62-2.5,0.62
			c-1.92,0-3.42-0.74-4.52-2.23c-1.1-1.49-1.65-3.54-1.65-6.15c0-2.58,0.55-4.6,1.66-6.07s2.61-2.2,4.52-2.2
			c0.95,0,1.79,0.21,2.52,0.62C988.69,650.84,989.26,651.44,989.67,652.22z M982.01,658.14c0,2.02,0.32,3.54,0.96,4.57
			c0.64,1.03,1.59,1.54,2.85,1.54c1.26,0,2.21-0.52,2.87-1.56c0.66-1.04,0.98-2.56,0.98-4.56c0-2.01-0.33-3.53-0.98-4.57
			c-0.66-1.03-1.61-1.55-2.87-1.55c-1.25,0-2.2,0.51-2.85,1.54C982.33,654.6,982.01,656.12,982.01,658.14z"/>
		<path d="M1010.84,656.83v1.27h-11.29v0.08c-0.08,2.16,0.34,3.71,1.24,4.66c0.9,0.94,2.17,1.42,3.82,1.42c0.83,0,1.7-0.13,2.61-0.4
			c0.91-0.26,1.87-0.67,2.9-1.2v2.59c-0.99,0.41-1.95,0.71-2.87,0.91c-0.92,0.2-1.81,0.3-2.67,0.3c-2.46,0-4.39-0.74-5.78-2.22
			s-2.08-3.51-2.08-6.11c0-2.53,0.68-4.55,2.04-6.06c1.36-1.51,3.17-2.27,5.44-2.27c2.02,0,3.61,0.68,4.78,2.05
			S1010.77,654.89,1010.84,656.83z M1008.24,656.06c-0.11-1.09-0.51-2.04-1.2-2.84c-0.68-0.8-1.67-1.2-2.95-1.2
			c-1.25,0-2.29,0.42-3.1,1.25c-0.81,0.83-1.26,1.77-1.33,2.8L1008.24,656.06z"/>
	</g>
	<g class="st21">
		<path d="M1279.2,535.72h16.13v2.41h-6.61v18.73h-2.87v-18.73h-6.64V535.72z"/>
		<path d="M1310.88,547.03v9.83h-2.62v-9.83c0-1.43-0.25-2.47-0.75-3.14c-0.5-0.67-1.28-1.01-2.35-1.01c-1.22,0-2.16,0.43-2.81,1.3
			c-0.66,0.86-0.98,2.1-0.98,3.72v8.96h-2.61v-22.03h2.61v8.55c0.46-0.91,1.09-1.59,1.88-2.06c0.79-0.47,1.73-0.7,2.82-0.7
			c1.61,0,2.82,0.53,3.62,1.59C1310.48,543.27,1310.88,544.88,1310.88,547.03z"/>
		<path d="M1329.32,547.62v1.27h-11.29v0.08c-0.08,2.16,0.34,3.71,1.24,4.66c0.9,0.94,2.17,1.42,3.82,1.42c0.83,0,1.7-0.13,2.61-0.4
			c0.91-0.26,1.87-0.67,2.9-1.2v2.59c-0.99,0.41-1.95,0.71-2.87,0.91c-0.92,0.2-1.81,0.3-2.67,0.3c-2.46,0-4.39-0.74-5.78-2.22
			s-2.08-3.51-2.08-6.11c0-2.53,0.68-4.55,2.04-6.06c1.36-1.51,3.17-2.27,5.44-2.27c2.02,0,3.61,0.68,4.78,2.05
			S1329.24,545.69,1329.32,547.62z M1326.71,546.86c-0.11-1.09-0.51-2.04-1.2-2.84c-0.68-0.8-1.67-1.2-2.95-1.2
			c-1.25,0-2.29,0.42-3.1,1.25c-0.81,0.83-1.26,1.77-1.33,2.8L1326.71,546.86z"/>
		<path d="M1353.71,543.02c0.42-0.77,0.99-1.37,1.72-1.79c0.73-0.42,1.58-0.62,2.54-0.62c1.91,0,3.41,0.73,4.5,2.2
			c1.09,1.47,1.64,3.49,1.64,6.07c0,2.62-0.55,4.67-1.65,6.15c-1.1,1.49-2.61,2.23-4.52,2.23c-0.94,0-1.78-0.21-2.5-0.62
			c-0.72-0.41-1.3-1.01-1.74-1.79v2h-2.61v-22.03h2.61V543.02z M1361.37,548.94c0-2.02-0.32-3.54-0.96-4.57
			c-0.64-1.03-1.59-1.54-2.85-1.54c-1.26,0-2.22,0.52-2.87,1.55c-0.65,1.03-0.98,2.56-0.98,4.57c0,2,0.33,3.52,0.98,4.56
			c0.65,1.04,1.61,1.56,2.87,1.56c1.26,0,2.2-0.51,2.85-1.54C1361.05,552.49,1361.37,550.96,1361.37,548.94z"/>
		<path d="M1381.69,547.62v1.27h-11.29v0.08c-0.08,2.16,0.34,3.71,1.24,4.66c0.9,0.94,2.17,1.42,3.82,1.42c0.83,0,1.7-0.13,2.61-0.4
			c0.91-0.26,1.87-0.67,2.9-1.2v2.59c-0.99,0.41-1.95,0.71-2.87,0.91c-0.92,0.2-1.81,0.3-2.67,0.3c-2.46,0-4.39-0.74-5.78-2.22
			s-2.08-3.51-2.08-6.11c0-2.53,0.68-4.55,2.04-6.06c1.36-1.51,3.17-2.27,5.44-2.27c2.02,0,3.61,0.68,4.78,2.05
			C1381,544.04,1381.62,545.69,1381.69,547.62z M1379.09,546.86c-0.11-1.09-0.51-2.04-1.2-2.84s-1.67-1.2-2.95-1.2
			c-1.26,0-2.29,0.42-3.1,1.25c-0.81,0.83-1.25,1.77-1.33,2.8L1379.09,546.86z"/>
		<path d="M1397.07,541.55v2.55c-0.75-0.43-1.5-0.76-2.25-0.98c-0.76-0.22-1.52-0.33-2.31-0.33c-1.18,0-2.06,0.19-2.64,0.57
			c-0.58,0.38-0.87,0.96-0.87,1.75c0,0.71,0.22,1.24,0.65,1.59c0.43,0.35,1.52,0.69,3.24,1.02l1.05,0.2
			c1.29,0.25,2.27,0.74,2.94,1.47c0.67,0.74,1,1.7,1,2.88c0,1.57-0.56,2.79-1.67,3.67c-1.11,0.88-2.66,1.32-4.64,1.32
			c-0.78,0-1.61-0.08-2.46-0.25c-0.86-0.17-1.79-0.41-2.79-0.74v-2.69c0.97,0.5,1.9,0.88,2.79,1.13c0.89,0.25,1.73,0.38,2.52,0.38
			c1.15,0,2.04-0.23,2.68-0.7c0.63-0.47,0.95-1.12,0.95-1.96c0-1.21-1.16-2.04-3.47-2.51l-0.11-0.03l-0.98-0.2
			c-1.5-0.29-2.6-0.79-3.29-1.48c-0.69-0.69-1.03-1.64-1.03-2.84c0-1.52,0.51-2.69,1.54-3.52c1.03-0.83,2.5-1.24,4.4-1.24
			c0.85,0,1.67,0.08,2.45,0.23C1395.55,541,1396.32,541.24,1397.07,541.55z"/>
		<path d="M1409.45,536.5v4.5h5.92v2.03h-5.92v8.61c0,1.17,0.22,1.99,0.67,2.45c0.44,0.46,1.22,0.69,2.32,0.69h2.93v2.08h-3.19
			c-1.95,0-3.33-0.39-4.13-1.18c-0.8-0.78-1.2-2.13-1.2-4.05v-8.61h-4.23V541h4.23v-4.5H1409.45z"/>
		<path d="M1450.7,556.05c-0.7,0.41-1.42,0.71-2.16,0.91c-0.74,0.2-1.5,0.3-2.27,0.3c-2.45,0-4.37-0.74-5.76-2.21
			s-2.07-3.51-2.07-6.12s0.69-4.64,2.07-6.12s3.3-2.21,5.76-2.21c0.76,0,1.51,0.1,2.24,0.3c0.73,0.2,1.46,0.5,2.2,0.92v2.73
			c-0.69-0.61-1.38-1.06-2.08-1.33c-0.69-0.27-1.48-0.41-2.36-0.41c-1.63,0-2.89,0.53-3.77,1.59c-0.88,1.06-1.32,2.57-1.32,4.53
			c0,1.96,0.44,3.46,1.32,4.52c0.88,1.06,2.14,1.59,3.76,1.59c0.91,0,1.72-0.14,2.44-0.42c0.72-0.28,1.38-0.71,2-1.3V556.05z"/>
		<path d="M1461.85,540.62c2.2,0,3.88,0.71,5.05,2.14s1.75,3.49,1.75,6.19c0,2.71-0.58,4.77-1.74,6.2s-2.85,2.13-5.05,2.13
			c-2.2,0-3.88-0.71-5.04-2.13s-1.74-3.49-1.74-6.2c0-2.7,0.58-4.76,1.74-6.19S1459.65,540.62,1461.85,540.62z M1461.85,542.82
			c-1.32,0-2.32,0.51-3,1.54s-1.02,2.55-1.02,4.57c0,2.01,0.34,3.53,1.02,4.57c0.68,1.03,1.68,1.55,3,1.55
			c1.33,0,2.34-0.52,3.02-1.55c0.68-1.03,1.02-2.56,1.02-4.57c0-2.02-0.34-3.54-1.02-4.57S1463.19,542.82,1461.85,542.82z"/>
		<path d="M1482.74,543.02v-8.2h2.61v22.03h-2.61v-2c-0.43,0.78-1.01,1.38-1.73,1.79c-0.72,0.41-1.56,0.62-2.5,0.62
			c-1.92,0-3.42-0.74-4.52-2.23c-1.1-1.49-1.65-3.54-1.65-6.15c0-2.58,0.55-4.6,1.66-6.07s2.61-2.2,4.52-2.2
			c0.95,0,1.79,0.21,2.52,0.62C1481.75,541.64,1482.33,542.24,1482.74,543.02z M1475.08,548.94c0,2.02,0.32,3.54,0.96,4.57
			c0.64,1.03,1.59,1.54,2.85,1.54c1.26,0,2.21-0.52,2.87-1.56c0.66-1.04,0.98-2.56,0.98-4.56c0-2.01-0.33-3.53-0.98-4.57
			c-0.66-1.03-1.61-1.55-2.87-1.55c-1.25,0-2.2,0.51-2.85,1.54C1475.4,545.4,1475.08,546.92,1475.08,548.94z"/>
		<path d="M1503.91,547.62v1.27h-11.29v0.08c-0.08,2.16,0.34,3.71,1.24,4.66c0.9,0.94,2.17,1.42,3.82,1.42c0.83,0,1.7-0.13,2.61-0.4
			c0.91-0.26,1.87-0.67,2.9-1.2v2.59c-0.99,0.41-1.95,0.71-2.87,0.91c-0.92,0.2-1.81,0.3-2.67,0.3c-2.46,0-4.39-0.74-5.78-2.22
			s-2.08-3.51-2.08-6.11c0-2.53,0.68-4.55,2.04-6.06c1.36-1.51,3.17-2.27,5.44-2.27c2.02,0,3.61,0.68,4.78,2.05
			S1503.83,545.69,1503.91,547.62z M1501.3,546.86c-0.11-1.09-0.51-2.04-1.2-2.84c-0.68-0.8-1.67-1.2-2.95-1.2
			c-1.25,0-2.29,0.42-3.1,1.25c-0.81,0.83-1.26,1.77-1.33,2.8L1501.3,546.86z"/>
		<path d="M1538.83,547.62v1.27h-11.29v0.08c-0.08,2.16,0.34,3.71,1.24,4.66c0.9,0.94,2.17,1.42,3.82,1.42c0.83,0,1.7-0.13,2.61-0.4
			c0.91-0.26,1.87-0.67,2.9-1.2v2.59c-0.99,0.41-1.95,0.71-2.87,0.91c-0.92,0.2-1.81,0.3-2.67,0.3c-2.46,0-4.39-0.74-5.78-2.22
			s-2.08-3.51-2.08-6.11c0-2.53,0.68-4.55,2.04-6.06c1.36-1.51,3.17-2.27,5.44-2.27c2.02,0,3.61,0.68,4.78,2.05
			S1538.75,545.69,1538.83,547.62z M1536.22,546.86c-0.11-1.09-0.51-2.04-1.2-2.84c-0.68-0.8-1.67-1.2-2.95-1.2
			c-1.25,0-2.29,0.42-3.1,1.25c-0.81,0.83-1.26,1.77-1.33,2.8L1536.22,546.86z"/>
		<path d="M1541.84,541h2.71l4.6,13.31l4.62-13.31h2.71l-5.64,15.86h-3.36L1541.84,541z"/>
		<path d="M1573.75,547.62v1.27h-11.29v0.08c-0.08,2.16,0.34,3.71,1.24,4.66c0.9,0.94,2.17,1.42,3.82,1.42c0.83,0,1.7-0.13,2.61-0.4
			c0.91-0.26,1.87-0.67,2.9-1.2v2.59c-0.99,0.41-1.95,0.71-2.87,0.91c-0.92,0.2-1.81,0.3-2.67,0.3c-2.46,0-4.39-0.74-5.78-2.22
			s-2.08-3.51-2.08-6.11c0-2.53,0.68-4.55,2.04-6.06c1.36-1.51,3.17-2.27,5.44-2.27c2.02,0,3.61,0.68,4.78,2.05
			S1573.67,545.69,1573.75,547.62z M1571.14,546.86c-0.11-1.09-0.51-2.04-1.2-2.84c-0.68-0.8-1.67-1.2-2.95-1.2
			c-1.25,0-2.29,0.42-3.1,1.25c-0.81,0.83-1.26,1.77-1.33,2.8L1571.14,546.86z"/>
		<path d="M1591.7,544.27c-0.56-0.43-1.12-0.75-1.7-0.95c-0.58-0.2-1.21-0.3-1.9-0.3c-1.62,0-2.87,0.51-3.72,1.53
			c-0.86,1.02-1.29,2.49-1.29,4.42v7.89h-2.62V541h2.62v3.1c0.43-1.12,1.1-1.99,2-2.58c0.9-0.6,1.97-0.9,3.21-0.9
			c0.64,0,1.24,0.08,1.8,0.24c0.56,0.16,1.09,0.41,1.6,0.75V544.27z"/>
	</g>
	<g class="st21">
		<path d="M1280.81,316.79h2.87v8.1h7.83v-8.1h2.87v21.14h-2.87V327.3h-7.83v10.63h-2.87V316.79z"/>
		<path d="M1312.19,328.7v1.27h-11.29v0.08c-0.08,2.16,0.34,3.71,1.24,4.66c0.9,0.94,2.17,1.42,3.82,1.42c0.83,0,1.7-0.13,2.61-0.4
			c0.91-0.26,1.87-0.67,2.9-1.2v2.59c-0.99,0.41-1.95,0.71-2.87,0.91c-0.92,0.2-1.81,0.3-2.67,0.3c-2.46,0-4.39-0.74-5.78-2.22
			s-2.08-3.51-2.08-6.11c0-2.53,0.68-4.55,2.04-6.06c1.36-1.51,3.17-2.27,5.44-2.27c2.02,0,3.61,0.68,4.78,2.05
			S1312.11,326.77,1312.19,328.7z M1309.58,327.94c-0.11-1.09-0.51-2.04-1.2-2.84c-0.68-0.8-1.67-1.2-2.95-1.2
			c-1.25,0-2.29,0.42-3.1,1.25c-0.81,0.83-1.26,1.77-1.33,2.8L1309.58,327.94z"/>
		<path d="M1323.97,332.2c0,1.17,0.21,2.05,0.64,2.65c0.43,0.59,1.06,0.89,1.91,0.89h3.04v2.2h-3.3c-1.56,0-2.76-0.5-3.62-1.49
			s-1.28-2.41-1.28-4.24v-14.34h-4.18v-2.04h6.78V332.2z"/>
		<path d="M1341.43,332.2c0,1.17,0.21,2.05,0.64,2.65s1.06,0.89,1.9,0.89h3.04v2.2h-3.3c-1.56,0-2.76-0.5-3.62-1.49
			c-0.85-1-1.28-2.41-1.28-4.24v-14.34h-4.18v-2.04h6.78V332.2z"/>
		<path d="M1357.43,321.69c2.2,0,3.88,0.71,5.05,2.14c1.17,1.43,1.75,3.49,1.75,6.19c0,2.71-0.58,4.77-1.74,6.2
			s-2.85,2.13-5.06,2.13c-2.2,0-3.88-0.71-5.04-2.13s-1.74-3.49-1.74-6.2c0-2.7,0.58-4.76,1.74-6.19S1355.23,321.69,1357.43,321.69z
			 M1357.43,323.9c-1.32,0-2.32,0.51-3,1.54s-1.02,2.55-1.02,4.57c0,2.01,0.34,3.53,1.02,4.57c0.68,1.03,1.68,1.55,3,1.55
			c1.33,0,2.34-0.52,3.02-1.55c0.68-1.03,1.02-2.56,1.02-4.57c0-2.02-0.34-3.54-1.02-4.57S1358.76,323.9,1357.43,323.9z"/>
		<path d="M1383.63,322.08h2.58l2.76,12.81l2.27-8.18h2.22l2.29,8.18l2.76-12.81h2.58l-3.71,15.86h-2.49l-2.54-8.69l-2.52,8.69
			h-2.49L1383.63,322.08z"/>
		<path d="M1409.81,321.69c2.2,0,3.88,0.71,5.05,2.14s1.75,3.49,1.75,6.19c0,2.71-0.58,4.77-1.74,6.2s-2.85,2.13-5.05,2.13
			c-2.2,0-3.88-0.71-5.04-2.13s-1.74-3.49-1.74-6.2c0-2.7,0.58-4.76,1.74-6.19S1407.61,321.69,1409.81,321.69z M1409.81,323.9
			c-1.32,0-2.32,0.51-3,1.54s-1.02,2.55-1.02,4.57c0,2.01,0.34,3.53,1.02,4.57c0.68,1.03,1.68,1.55,3,1.55
			c1.33,0,2.34-0.52,3.02-1.55c0.68-1.03,1.02-2.56,1.02-4.57c0-2.02-0.34-3.54-1.02-4.57S1411.14,323.9,1409.81,323.9z"/>
		<path d="M1434.9,325.35c-0.56-0.43-1.12-0.75-1.7-0.95c-0.58-0.2-1.21-0.3-1.9-0.3c-1.62,0-2.87,0.51-3.72,1.53
			c-0.86,1.02-1.29,2.49-1.29,4.42v7.89h-2.62v-15.86h2.62v3.1c0.43-1.12,1.1-1.99,2-2.58c0.9-0.6,1.97-0.9,3.21-0.9
			c0.64,0,1.24,0.08,1.8,0.24c0.56,0.16,1.09,0.41,1.6,0.75V325.35z"/>
		<path d="M1446.19,332.2c0,1.17,0.21,2.05,0.64,2.65s1.06,0.89,1.9,0.89h3.04v2.2h-3.3c-1.56,0-2.76-0.5-3.62-1.49
			c-0.85-1-1.28-2.41-1.28-4.24v-14.34h-4.18v-2.04h6.78V332.2z"/>
		<path d="M1465.61,324.1v-8.2h2.61v22.03h-2.61v-2c-0.43,0.78-1.01,1.38-1.73,1.79c-0.72,0.41-1.56,0.62-2.5,0.62
			c-1.92,0-3.42-0.74-4.52-2.23c-1.1-1.49-1.65-3.54-1.65-6.15c0-2.58,0.55-4.6,1.66-6.07s2.61-2.2,4.52-2.2
			c0.95,0,1.79,0.21,2.52,0.62C1464.63,322.72,1465.2,323.32,1465.61,324.1z M1457.95,330.02c0,2.02,0.32,3.54,0.96,4.57
			c0.64,1.03,1.59,1.54,2.85,1.54c1.26,0,2.21-0.52,2.87-1.56c0.66-1.04,0.98-2.56,0.98-4.56c0-2.01-0.33-3.53-0.98-4.57
			c-0.66-1.03-1.61-1.55-2.87-1.55c-1.25,0-2.2,0.51-2.85,1.54C1458.27,326.48,1457.95,328,1457.95,330.02z"/>
	</g>
	<g class="st21">
		<path d="M1279.54,425.99h16.13v2.41h-6.61v18.73h-2.88V428.4h-6.64V425.99z"/>
		<path d="M1311.21,437.31v9.83h-2.62v-9.83c0-1.43-0.25-2.47-0.75-3.14c-0.5-0.67-1.28-1.01-2.35-1.01c-1.22,0-2.15,0.43-2.81,1.3
			c-0.66,0.86-0.98,2.1-0.98,3.72v8.96h-2.61V425.1h2.61v8.55c0.46-0.91,1.09-1.59,1.88-2.06c0.79-0.47,1.73-0.7,2.82-0.7
			c1.61,0,2.82,0.53,3.62,1.59C1310.81,433.55,1311.21,435.16,1311.21,437.31z"/>
		<path d="M1318.26,431.33h6.67v13.78h5.17v2.03h-12.94v-2.03h5.17v-11.75h-4.06V431.33z M1322.33,425.17h2.61v3.29h-2.61V425.17z"
			/>
		<path d="M1345.03,431.83v2.55c-0.75-0.43-1.5-0.76-2.25-0.98c-0.76-0.22-1.52-0.33-2.31-0.33c-1.18,0-2.06,0.19-2.64,0.57
			c-0.58,0.38-0.87,0.96-0.87,1.75c0,0.71,0.22,1.24,0.65,1.59c0.43,0.35,1.52,0.69,3.24,1.02l1.05,0.2
			c1.29,0.25,2.27,0.74,2.94,1.47c0.67,0.74,1,1.7,1,2.88c0,1.57-0.56,2.79-1.67,3.67c-1.11,0.88-2.66,1.32-4.64,1.32
			c-0.78,0-1.61-0.08-2.46-0.25c-0.86-0.17-1.79-0.41-2.79-0.74v-2.69c0.97,0.5,1.9,0.88,2.79,1.13c0.89,0.25,1.73,0.38,2.52,0.38
			c1.15,0,2.04-0.23,2.68-0.7c0.63-0.47,0.95-1.12,0.95-1.96c0-1.21-1.16-2.04-3.47-2.51l-0.11-0.03l-0.98-0.2
			c-1.5-0.29-2.6-0.79-3.29-1.48c-0.69-0.69-1.03-1.64-1.03-2.84c0-1.52,0.51-2.69,1.54-3.52c1.03-0.83,2.5-1.24,4.4-1.24
			c0.85,0,1.67,0.08,2.45,0.23C1343.5,431.28,1344.27,431.52,1345.03,431.83z"/>
		<path d="M1381.19,446.33c-0.7,0.41-1.42,0.71-2.16,0.91s-1.5,0.3-2.27,0.3c-2.46,0-4.37-0.74-5.76-2.21
			c-1.38-1.47-2.08-3.51-2.08-6.12s0.69-4.64,2.08-6.12c1.38-1.47,3.3-2.21,5.76-2.21c0.76,0,1.51,0.1,2.24,0.3
			c0.73,0.2,1.46,0.5,2.19,0.92v2.73c-0.69-0.61-1.38-1.06-2.07-1.33c-0.69-0.27-1.48-0.41-2.36-0.41c-1.63,0-2.89,0.53-3.77,1.59
			c-0.88,1.06-1.32,2.57-1.32,4.53c0,1.96,0.44,3.46,1.32,4.52c0.88,1.06,2.14,1.59,3.76,1.59c0.91,0,1.72-0.14,2.44-0.42
			c0.72-0.28,1.38-0.71,2-1.3V446.33z"/>
		<path d="M1392.35,430.89c2.2,0,3.88,0.71,5.05,2.14c1.17,1.43,1.75,3.49,1.75,6.19c0,2.71-0.58,4.77-1.74,6.2
			s-2.85,2.13-5.06,2.13c-2.2,0-3.88-0.71-5.04-2.13s-1.74-3.49-1.74-6.2c0-2.7,0.58-4.76,1.74-6.19S1390.15,430.89,1392.35,430.89z
			 M1392.35,433.1c-1.32,0-2.32,0.51-3,1.54s-1.02,2.55-1.02,4.57c0,2.01,0.34,3.53,1.02,4.57c0.68,1.03,1.68,1.55,3,1.55
			c1.33,0,2.34-0.52,3.02-1.55c0.68-1.03,1.02-2.56,1.02-4.57c0-2.02-0.34-3.54-1.02-4.57S1393.68,433.1,1392.35,433.1z"/>
		<path d="M1413.24,433.3v-8.2h2.61v22.03h-2.61v-2c-0.43,0.78-1.01,1.38-1.73,1.79c-0.72,0.41-1.56,0.62-2.5,0.62
			c-1.92,0-3.42-0.74-4.52-2.23c-1.1-1.49-1.65-3.54-1.65-6.15c0-2.58,0.55-4.6,1.66-6.07s2.61-2.2,4.52-2.2
			c0.95,0,1.79,0.21,2.52,0.62C1412.25,431.92,1412.82,432.52,1413.24,433.3z M1405.57,439.22c0,2.02,0.32,3.54,0.96,4.57
			c0.64,1.03,1.59,1.54,2.85,1.54c1.25,0,2.21-0.52,2.87-1.56c0.66-1.04,0.98-2.56,0.98-4.56c0-2.01-0.33-3.53-0.98-4.57
			c-0.66-1.03-1.61-1.55-2.87-1.55c-1.26,0-2.2,0.51-2.85,1.54C1405.9,435.68,1405.57,437.2,1405.57,439.22z"/>
		<path d="M1434.4,437.9v1.27h-11.29v0.08c-0.08,2.16,0.34,3.71,1.24,4.66c0.9,0.94,2.17,1.42,3.82,1.42c0.83,0,1.7-0.13,2.61-0.4
			c0.91-0.26,1.87-0.67,2.9-1.2v2.59c-0.99,0.41-1.95,0.71-2.87,0.91c-0.92,0.2-1.81,0.3-2.67,0.3c-2.46,0-4.39-0.74-5.78-2.22
			s-2.08-3.51-2.08-6.11c0-2.53,0.68-4.55,2.04-6.06c1.36-1.51,3.17-2.27,5.44-2.27c2.02,0,3.61,0.68,4.78,2.05
			C1433.71,434.32,1434.33,435.97,1434.4,437.9z M1431.8,437.14c-0.11-1.09-0.51-2.04-1.2-2.84s-1.67-1.2-2.95-1.2
			c-1.26,0-2.29,0.42-3.1,1.25c-0.81,0.83-1.25,1.77-1.33,2.8L1431.8,437.14z"/>
		<path d="M1457.94,431.33h6.67v13.78h5.17v2.03h-12.94v-2.03h5.17v-11.75h-4.06V431.33z M1462,425.17h2.61v3.29H1462V425.17z"/>
		<path d="M1484.7,431.83v2.55c-0.75-0.43-1.5-0.76-2.25-0.98c-0.76-0.22-1.52-0.33-2.31-0.33c-1.18,0-2.06,0.19-2.64,0.57
			c-0.58,0.38-0.87,0.96-0.87,1.75c0,0.71,0.22,1.24,0.65,1.59c0.43,0.35,1.52,0.69,3.24,1.02l1.05,0.2
			c1.29,0.25,2.27,0.74,2.94,1.47c0.67,0.74,1,1.7,1,2.88c0,1.57-0.56,2.79-1.67,3.67c-1.11,0.88-2.66,1.32-4.64,1.32
			c-0.78,0-1.61-0.08-2.46-0.25c-0.86-0.17-1.79-0.41-2.79-0.74v-2.69c0.97,0.5,1.9,0.88,2.79,1.13c0.89,0.25,1.73,0.38,2.52,0.38
			c1.15,0,2.04-0.23,2.68-0.7c0.63-0.47,0.95-1.12,0.95-1.96c0-1.21-1.16-2.04-3.47-2.51l-0.11-0.03l-0.98-0.2
			c-1.5-0.29-2.6-0.79-3.29-1.48c-0.69-0.69-1.03-1.64-1.03-2.84c0-1.52,0.51-2.69,1.54-3.52c1.03-0.83,2.5-1.24,4.4-1.24
			c0.85,0,1.67,0.08,2.45,0.23C1483.18,431.28,1483.95,431.52,1484.7,431.83z"/>
		<path d="M1520.6,446.12c0,2.38-0.56,4.18-1.69,5.41c-1.12,1.23-2.78,1.84-4.96,1.84c-0.72,0-1.47-0.07-2.25-0.2
			c-0.78-0.13-1.57-0.33-2.35-0.58v-2.58c0.92,0.43,1.76,0.75,2.52,0.96c0.75,0.21,1.45,0.31,2.08,0.31c1.41,0,2.43-0.38,3.07-1.15
			c0.64-0.76,0.96-1.98,0.96-3.64v-0.11v-1.77c-0.42,0.89-0.98,1.55-1.7,1.98c-0.72,0.43-1.59,0.65-2.62,0.65
			c-1.85,0-3.33-0.74-4.43-2.22c-1.1-1.48-1.66-3.46-1.66-5.95c0-2.49,0.55-4.48,1.66-5.96s2.58-2.22,4.43-2.22
			c1.02,0,1.88,0.2,2.59,0.61s1.28,1.03,1.73,1.88v-2.05h2.61V446.12z M1517.99,439.08c0-1.96-0.32-3.44-0.96-4.45
			c-0.64-1.01-1.56-1.52-2.78-1.52c-1.27,0-2.25,0.51-2.92,1.52c-0.67,1.01-1.01,2.5-1.01,4.45c0,1.95,0.34,3.44,1.01,4.47
			s1.65,1.54,2.94,1.54c1.2,0,2.12-0.51,2.75-1.54C1517.67,442.51,1517.99,441.02,1517.99,439.08z"/>
		<path d="M1539.66,434.55c-0.56-0.43-1.12-0.75-1.7-0.95c-0.58-0.2-1.21-0.3-1.9-0.3c-1.62,0-2.87,0.51-3.72,1.53
			c-0.86,1.02-1.29,2.49-1.29,4.42v7.89h-2.62v-15.86h2.62v3.1c0.43-1.12,1.1-1.99,2-2.58c0.9-0.6,1.97-0.9,3.21-0.9
			c0.64,0,1.24,0.08,1.8,0.24c0.56,0.16,1.09,0.41,1.6,0.75V434.55z"/>
		<path d="M1556.62,437.9v1.27h-11.29v0.08c-0.08,2.16,0.34,3.71,1.24,4.66c0.9,0.94,2.17,1.42,3.82,1.42c0.83,0,1.7-0.13,2.61-0.4
			c0.91-0.26,1.87-0.67,2.9-1.2v2.59c-0.99,0.41-1.95,0.71-2.87,0.91c-0.92,0.2-1.81,0.3-2.67,0.3c-2.46,0-4.39-0.74-5.78-2.22
			s-2.08-3.51-2.08-6.11c0-2.53,0.68-4.55,2.04-6.06c1.36-1.51,3.17-2.27,5.44-2.27c2.02,0,3.61,0.68,4.78,2.05
			S1556.54,435.97,1556.62,437.9z M1554.02,437.14c-0.11-1.09-0.51-2.04-1.2-2.84c-0.68-0.8-1.67-1.2-2.95-1.2
			c-1.25,0-2.29,0.42-3.1,1.25c-0.81,0.83-1.26,1.77-1.33,2.8L1554.02,437.14z"/>
		<path d="M1573.22,438.09v9.05h-2.62v-2.35c-0.56,0.94-1.26,1.64-2.1,2.09s-1.87,0.67-3.08,0.67c-1.61,0-2.9-0.46-3.87-1.37
			s-1.44-2.13-1.44-3.66c0-1.77,0.59-3.11,1.78-4.02c1.19-0.92,2.92-1.37,5.22-1.37h3.5v-0.41c-0.01-1.26-0.33-2.18-0.96-2.75
			c-0.63-0.57-1.64-0.86-3.03-0.86c-0.89,0-1.78,0.13-2.69,0.38s-1.79,0.63-2.65,1.12V432c0.96-0.37,1.89-0.64,2.77-0.83
			c0.88-0.18,1.74-0.28,2.57-0.28c1.31,0,2.43,0.19,3.36,0.58s1.68,0.97,2.26,1.74c0.36,0.47,0.61,1.06,0.76,1.75
			C1573.14,435.66,1573.22,436.7,1573.22,438.09z M1568.16,439.16h-0.86c-1.52,0-2.67,0.27-3.43,0.8c-0.77,0.53-1.15,1.33-1.15,2.39
			c0,0.95,0.29,1.69,0.86,2.22c0.58,0.53,1.37,0.79,2.39,0.79c1.43,0,2.56-0.5,3.38-1.49s1.24-2.37,1.25-4.13v-0.58H1568.16z"/>
		<path d="M1584.38,426.77v4.5h5.92v2.03h-5.92v8.61c0,1.17,0.22,1.99,0.67,2.45c0.44,0.46,1.22,0.69,2.32,0.69h2.93v2.08h-3.19
			c-1.95,0-3.33-0.39-4.13-1.18c-0.8-0.78-1.2-2.13-1.2-4.05v-8.61h-4.23v-2.03h4.23v-4.5H1584.38z"/>
	</g>
	<g class="st21">
		<path d="M1280.81,644.39h2.87v8.1h7.83v-8.1h2.87v21.14h-2.87V654.9h-7.83v10.63h-2.87V644.39z"/>
		<path d="M1312.19,656.3v1.27h-11.29v0.08c-0.08,2.16,0.34,3.71,1.24,4.66c0.9,0.94,2.17,1.42,3.82,1.42c0.83,0,1.7-0.13,2.61-0.4
			c0.91-0.26,1.87-0.67,2.9-1.2v2.59c-0.99,0.41-1.95,0.71-2.87,0.91c-0.92,0.2-1.81,0.3-2.67,0.3c-2.46,0-4.39-0.74-5.78-2.22
			s-2.08-3.51-2.08-6.11c0-2.53,0.68-4.55,2.04-6.06c1.36-1.51,3.17-2.27,5.44-2.27c2.02,0,3.61,0.68,4.78,2.05
			S1312.11,654.37,1312.19,656.3z M1309.58,655.54c-0.11-1.09-0.51-2.04-1.2-2.84c-0.68-0.8-1.67-1.2-2.95-1.2
			c-1.25,0-2.29,0.42-3.1,1.25c-0.81,0.83-1.26,1.77-1.33,2.8L1309.58,655.54z"/>
		<path d="M1330.14,652.95c-0.56-0.43-1.12-0.75-1.7-0.95c-0.58-0.2-1.21-0.3-1.9-0.3c-1.62,0-2.87,0.51-3.72,1.53
			c-0.86,1.02-1.29,2.49-1.29,4.42v7.89h-2.62v-15.86h2.62v3.1c0.43-1.12,1.1-1.99,2-2.58c0.9-0.6,1.97-0.9,3.21-0.9
			c0.64,0,1.24,0.08,1.8,0.24c0.56,0.16,1.09,0.41,1.6,0.75V652.95z"/>
		<path d="M1347.11,656.3v1.27h-11.29v0.08c-0.08,2.16,0.34,3.71,1.24,4.66c0.9,0.94,2.17,1.42,3.82,1.42c0.83,0,1.7-0.13,2.61-0.4
			c0.91-0.26,1.87-0.67,2.9-1.2v2.59c-0.99,0.41-1.95,0.71-2.87,0.91c-0.92,0.2-1.81,0.3-2.67,0.3c-2.46,0-4.39-0.74-5.78-2.22
			s-2.08-3.51-2.08-6.11c0-2.53,0.68-4.55,2.04-6.06c1.36-1.51,3.17-2.27,5.44-2.27c2.02,0,3.61,0.68,4.78,2.05
			S1347.03,654.37,1347.11,656.3z M1344.5,655.54c-0.11-1.09-0.51-2.04-1.2-2.84c-0.68-0.8-1.67-1.2-2.95-1.2
			c-1.25,0-2.29,0.42-3.1,1.25c-0.81,0.83-1.26,1.77-1.33,2.8L1344.5,655.54z"/>
		<path d="M1370.64,649.73h6.67v13.78h5.17v2.03h-12.94v-2.03h5.17v-11.75h-4.06V649.73z M1374.71,643.57h2.61v3.29h-2.61V643.57z"
			/>
		<path d="M1397.4,650.23v2.55c-0.75-0.43-1.5-0.76-2.25-0.98c-0.75-0.22-1.52-0.33-2.31-0.33c-1.18,0-2.06,0.19-2.64,0.57
			c-0.58,0.38-0.87,0.96-0.87,1.75c0,0.71,0.22,1.24,0.65,1.59c0.43,0.35,1.51,0.69,3.24,1.02l1.05,0.2
			c1.29,0.25,2.27,0.74,2.94,1.47c0.67,0.74,1,1.7,1,2.88c0,1.57-0.56,2.79-1.67,3.67c-1.11,0.88-2.66,1.32-4.64,1.32
			c-0.78,0-1.6-0.08-2.46-0.25c-0.86-0.17-1.79-0.41-2.79-0.74v-2.69c0.97,0.5,1.9,0.88,2.79,1.13c0.89,0.25,1.73,0.38,2.52,0.38
			c1.15,0,2.04-0.23,2.68-0.7c0.63-0.47,0.95-1.12,0.95-1.96c0-1.21-1.16-2.04-3.47-2.51l-0.11-0.03l-0.98-0.2
			c-1.5-0.29-2.6-0.79-3.29-1.48c-0.69-0.69-1.03-1.64-1.03-2.84c0-1.52,0.51-2.69,1.54-3.52c1.03-0.83,2.5-1.24,4.4-1.24
			c0.85,0,1.67,0.08,2.45,0.23C1395.88,649.68,1396.65,649.92,1397.4,650.23z"/>
		<path d="M1428.12,651.29c0.32-0.68,0.73-1.18,1.22-1.51c0.5-0.33,1.09-0.49,1.79-0.49c1.27,0,2.17,0.49,2.7,1.48
			c0.52,0.99,0.79,2.84,0.79,5.57v9.19h-2.38v-9.08c0-2.24-0.12-3.63-0.38-4.17c-0.25-0.54-0.71-0.81-1.37-0.81
			c-0.75,0-1.27,0.29-1.55,0.87c-0.28,0.58-0.42,1.95-0.42,4.11v9.08h-2.38v-9.08c0-2.27-0.13-3.66-0.4-4.19
			c-0.27-0.53-0.75-0.79-1.45-0.79c-0.69,0-1.17,0.29-1.44,0.87c-0.27,0.58-0.4,1.95-0.4,4.11v9.08h-2.36v-15.86h2.36v1.36
			c0.31-0.57,0.7-1,1.17-1.3c0.47-0.3,1-0.45,1.59-0.45c0.72,0,1.31,0.17,1.79,0.5S1427.85,650.62,1428.12,651.29z"/>
		<path d="M1448.15,660.44c-0.43,1.1-0.99,2.56-1.66,4.36c-0.93,2.49-1.56,4.01-1.88,4.56c-0.43,0.74-0.98,1.29-1.63,1.66
			c-0.65,0.37-1.41,0.55-2.28,0.55h-2.1v-2.18h1.54c0.76,0,1.36-0.22,1.8-0.67c0.43-0.44,0.99-1.59,1.66-3.44l-6.13-15.6h2.76
			l4.7,12.4l4.63-12.4h2.76L1448.15,660.44z"/>
		<path d="M1485.95,664.73c-0.7,0.41-1.42,0.71-2.16,0.91s-1.5,0.3-2.27,0.3c-2.46,0-4.37-0.74-5.76-2.21
			c-1.38-1.47-2.08-3.51-2.08-6.12s0.69-4.64,2.08-6.12c1.38-1.47,3.3-2.21,5.76-2.21c0.76,0,1.51,0.1,2.24,0.3
			c0.73,0.2,1.46,0.5,2.19,0.92v2.73c-0.69-0.61-1.38-1.06-2.07-1.33c-0.69-0.27-1.48-0.41-2.36-0.41c-1.63,0-2.89,0.53-3.77,1.59
			c-0.88,1.06-1.32,2.57-1.32,4.53c0,1.96,0.44,3.46,1.32,4.52c0.88,1.06,2.14,1.59,3.76,1.59c0.91,0,1.72-0.14,2.44-0.42
			c0.72-0.28,1.38-0.71,2-1.3V664.73z"/>
		<path d="M1497.11,649.29c2.2,0,3.88,0.71,5.05,2.14c1.17,1.43,1.75,3.49,1.75,6.19c0,2.71-0.58,4.77-1.74,6.2
			s-2.85,2.13-5.06,2.13c-2.2,0-3.88-0.71-5.04-2.13s-1.74-3.49-1.74-6.2c0-2.7,0.58-4.76,1.74-6.19S1494.91,649.29,1497.11,649.29z
			 M1497.11,651.5c-1.32,0-2.32,0.51-3,1.54s-1.02,2.55-1.02,4.57c0,2.01,0.34,3.53,1.02,4.57c0.68,1.03,1.68,1.55,3,1.55
			c1.33,0,2.34-0.52,3.02-1.55c0.68-1.03,1.02-2.56,1.02-4.57c0-2.02-0.34-3.54-1.02-4.57S1498.44,651.5,1497.11,651.5z"/>
		<path d="M1517.99,651.7v-8.2h2.61v22.03h-2.61v-2c-0.43,0.78-1.01,1.38-1.73,1.79c-0.72,0.41-1.56,0.62-2.5,0.62
			c-1.92,0-3.42-0.74-4.52-2.23c-1.1-1.49-1.65-3.54-1.65-6.15c0-2.58,0.55-4.6,1.66-6.07s2.61-2.2,4.52-2.2
			c0.95,0,1.79,0.21,2.52,0.62C1517.01,650.32,1517.58,650.92,1517.99,651.7z M1510.33,657.62c0,2.02,0.32,3.54,0.96,4.57
			c0.64,1.03,1.59,1.54,2.85,1.54c1.25,0,2.21-0.52,2.87-1.56c0.66-1.04,0.98-2.56,0.98-4.56c0-2.01-0.33-3.53-0.98-4.57
			c-0.66-1.03-1.61-1.55-2.87-1.55c-1.26,0-2.2,0.51-2.85,1.54C1510.65,654.08,1510.33,655.6,1510.33,657.62z"/>
		<path d="M1539.16,656.3v1.27h-11.29v0.08c-0.08,2.16,0.34,3.71,1.24,4.66c0.9,0.94,2.17,1.42,3.82,1.42c0.83,0,1.7-0.13,2.61-0.4
			c0.91-0.26,1.87-0.67,2.9-1.2v2.59c-0.99,0.41-1.95,0.71-2.87,0.91c-0.92,0.2-1.81,0.3-2.67,0.3c-2.46,0-4.39-0.74-5.78-2.22
			s-2.08-3.51-2.08-6.11c0-2.53,0.68-4.55,2.04-6.06c1.36-1.51,3.17-2.27,5.44-2.27c2.02,0,3.61,0.68,4.78,2.05
			C1538.46,652.72,1539.09,654.37,1539.16,656.3z M1536.56,655.54c-0.11-1.09-0.51-2.04-1.2-2.84s-1.67-1.2-2.95-1.2
			c-1.26,0-2.29,0.42-3.1,1.25c-0.81,0.83-1.25,1.77-1.33,2.8L1536.56,655.54z"/>
	</g>
</g>
<g>
	<defs>
		<rect id="SVGID_31_" width="1920" height="1080"/>
	</defs>
	<clipPath id="SVGID_32_">
		<use xlink:href="#SVGID_31_"  style="overflow:visible;"/>
	</clipPath>
	<g class="st22">
		<g>
			<defs>
				<rect id="SVGID_33_" x="744" y="511" width="336" height="68"/>
			</defs>
			<clipPath id="SVGID_34_">
				<use xlink:href="#SVGID_33_"  style="overflow:visible;"/>
			</clipPath>
			<g class="st23">
				<defs>
					<rect id="SVGID_35_" x="744" y="511" width="336" height="68"/>
				</defs>
				<clipPath id="SVGID_36_">
					<use xlink:href="#SVGID_35_"  style="overflow:visible;"/>
				</clipPath>
				<rect x="744.15" y="511.2" class="st24" width="335.42" height="67.42"/>
			</g>
		</g>
	</g>
</g>
<g>
	<defs>
		<rect id="SVGID_37_" width="1920" height="1080"/>
	</defs>
	<clipPath id="SVGID_38_">
		<use xlink:href="#SVGID_37_"  style="overflow:visible;"/>
	</clipPath>
	<g class="st25">
		<g>
			<defs>
				<rect id="SVGID_39_" x="1268" y="511" width="336" height="68"/>
			</defs>
			<clipPath id="SVGID_40_">
				<use xlink:href="#SVGID_39_"  style="overflow:visible;"/>
			</clipPath>
			<g class="st26">
				<defs>
					<rect id="SVGID_41_" x="1268" y="511" width="336" height="68"/>
				</defs>
				<clipPath id="SVGID_42_">
					<use xlink:href="#SVGID_41_"  style="overflow:visible;"/>
				</clipPath>
				<rect x="1268.46" y="511.2" class="st27" width="335.42" height="67.42"/>
			</g>
		</g>
	</g>
	<polygon class="st28" points="1199.03,498.42 1199.03,511.87 1239.01,492.1 1199.03,472.33 1199.03,485.77 1118.59,485.77 
		1118.59,498.42 	"/>
</g>
<g>
	<path d="M786.44,740.11c-0.7,0.41-1.42,0.71-2.16,0.91c-0.74,0.2-1.5,0.3-2.27,0.3c-2.45,0-4.37-0.74-5.76-2.21
		s-2.07-3.51-2.07-6.12s0.69-4.64,2.07-6.12s3.3-2.21,5.76-2.21c0.76,0,1.51,0.1,2.24,0.3c0.73,0.2,1.46,0.5,2.2,0.92v2.73
		c-0.69-0.61-1.38-1.06-2.08-1.33c-0.69-0.27-1.48-0.41-2.36-0.41c-1.63,0-2.89,0.53-3.77,1.59c-0.88,1.06-1.32,2.57-1.32,4.53
		c0,1.96,0.44,3.46,1.32,4.52c0.88,1.06,2.14,1.59,3.76,1.59c0.91,0,1.72-0.14,2.44-0.42c0.72-0.28,1.38-0.71,2-1.3V740.11z"/>
	<path d="M797.59,724.67c2.2,0,3.88,0.71,5.05,2.14s1.75,3.49,1.75,6.19c0,2.71-0.58,4.77-1.74,6.2s-2.85,2.13-5.05,2.13
		c-2.2,0-3.88-0.71-5.04-2.13s-1.74-3.49-1.74-6.2c0-2.7,0.58-4.76,1.74-6.19S795.39,724.67,797.59,724.67z M797.59,726.88
		c-1.32,0-2.32,0.51-3,1.54s-1.02,2.55-1.02,4.57c0,2.01,0.34,3.53,1.02,4.57c0.68,1.03,1.68,1.55,3,1.55
		c1.33,0,2.34-0.52,3.02-1.55c0.68-1.03,1.02-2.56,1.02-4.57c0-2.02-0.34-3.54-1.02-4.57S798.92,726.88,797.59,726.88z"/>
	<path d="M815.9,726.67c0.32-0.68,0.73-1.18,1.22-1.51c0.5-0.33,1.09-0.49,1.79-0.49c1.27,0,2.17,0.49,2.7,1.48
		c0.52,0.99,0.79,2.84,0.79,5.57v9.19h-2.38v-9.08c0-2.24-0.12-3.63-0.38-4.17c-0.25-0.54-0.71-0.81-1.37-0.81
		c-0.75,0-1.27,0.29-1.55,0.87c-0.28,0.58-0.42,1.95-0.42,4.11v9.08h-2.38v-9.08c0-2.27-0.13-3.66-0.4-4.19
		c-0.27-0.53-0.75-0.79-1.45-0.79c-0.69,0-1.17,0.29-1.44,0.87c-0.27,0.58-0.4,1.95-0.4,4.11v9.08h-2.36v-15.86h2.36v1.36
		c0.31-0.57,0.7-1,1.17-1.3c0.47-0.3,1-0.45,1.59-0.45c0.72,0,1.31,0.17,1.79,0.5S815.64,726,815.9,726.67z"/>
	<path d="M833.36,726.67c0.32-0.68,0.73-1.18,1.22-1.51c0.5-0.33,1.09-0.49,1.79-0.49c1.27,0,2.17,0.49,2.7,1.48
		c0.52,0.99,0.79,2.84,0.79,5.57v9.19h-2.38v-9.08c0-2.24-0.12-3.63-0.38-4.17s-0.71-0.81-1.37-0.81c-0.76,0-1.27,0.29-1.55,0.87
		c-0.28,0.58-0.42,1.95-0.42,4.11v9.08h-2.38v-9.08c0-2.27-0.13-3.66-0.4-4.19c-0.27-0.53-0.75-0.79-1.45-0.79
		c-0.69,0-1.17,0.29-1.44,0.87c-0.27,0.58-0.4,1.95-0.4,4.11v9.08h-2.37v-15.86h2.37v1.36c0.31-0.57,0.7-1,1.17-1.3
		c0.47-0.3,1-0.45,1.59-0.45c0.72,0,1.31,0.17,1.79,0.5C832.73,725.5,833.1,726,833.36,726.67z"/>
	<path d="M845.72,725.11h6.67v13.78h5.17v2.03h-12.94v-2.03h5.17v-11.75h-4.06V725.11z M849.79,718.95h2.61v3.29h-2.61V718.95z"/>
	<path d="M867.4,720.55v4.5h5.92v2.03h-5.92v8.61c0,1.17,0.22,1.99,0.67,2.45c0.44,0.46,1.22,0.69,2.32,0.69h2.93v2.08h-3.19
		c-1.95,0-3.33-0.39-4.13-1.18c-0.8-0.78-1.2-2.13-1.2-4.05v-8.61h-4.23v-2.03h4.23v-4.5H867.4z"/>
	<path d="M938.49,719.77h3.31v13.78h2.82v2.32h-2.82v5.04h-2.85v-5.04h-8.96v-2.71L938.49,719.77z M938.95,722.38l-6.67,11.17h6.67
		V722.38z"/>
	<path d="M961.03,740.11c-0.7,0.41-1.42,0.71-2.16,0.91c-0.74,0.2-1.5,0.3-2.27,0.3c-2.45,0-4.37-0.74-5.76-2.21
		s-2.07-3.51-2.07-6.12s0.69-4.64,2.07-6.12s3.3-2.21,5.76-2.21c0.76,0,1.51,0.1,2.24,0.3c0.73,0.2,1.46,0.5,2.2,0.92v2.73
		c-0.69-0.61-1.38-1.06-2.08-1.33c-0.69-0.27-1.48-0.41-2.36-0.41c-1.63,0-2.89,0.53-3.77,1.59c-0.88,1.06-1.32,2.57-1.32,4.53
		c0,1.96,0.44,3.46,1.32,4.52c0.88,1.06,2.14,1.59,3.76,1.59c0.91,0,1.72-0.14,2.44-0.42c0.72-0.28,1.38-0.71,2-1.3V740.11z"/>
	<path d="M974.45,729.6c1.39,0.37,2.45,1.02,3.19,1.96s1.1,2.11,1.1,3.52c0,1.94-0.65,3.47-1.96,4.58s-3.12,1.66-5.43,1.66
		c-0.97,0-1.96-0.09-2.97-0.27c-1.01-0.18-2-0.44-2.97-0.78v-2.85c0.96,0.5,1.91,0.87,2.85,1.12c0.93,0.25,1.86,0.37,2.79,0.37
		c1.57,0,2.77-0.35,3.61-1.06c0.84-0.71,1.26-1.73,1.26-3.06c0-1.23-0.42-2.2-1.26-2.92c-0.84-0.72-1.98-1.08-3.41-1.08h-2.18v-2.35
		h2.18c1.31,0,2.34-0.29,3.07-0.86s1.1-1.38,1.1-2.41c0-1.09-0.34-1.92-1.03-2.5c-0.68-0.58-1.66-0.87-2.92-0.87
		c-0.84,0-1.71,0.09-2.61,0.28c-0.9,0.19-1.84,0.47-2.82,0.85v-2.63c1.14-0.3,2.16-0.53,3.05-0.68c0.89-0.15,1.68-0.23,2.37-0.23
		c2.06,0,3.7,0.52,4.94,1.55c1.23,1.03,1.85,2.4,1.85,4.11c0,1.16-0.32,2.13-0.97,2.9C976.63,728.73,975.69,729.28,974.45,729.6z"/>
	<path d="M987.16,729.69c-1.22-0.31-2.17-0.89-2.85-1.74c-0.68-0.85-1.03-1.87-1.03-3.07c0-1.68,0.57-3.01,1.71-4
		c1.14-0.99,2.7-1.48,4.66-1.48c1.97,0,3.53,0.49,4.67,1.48c1.14,0.99,1.71,2.32,1.71,4c0,1.2-0.34,2.22-1.03,3.07
		c-0.68,0.85-1.63,1.43-2.85,1.74c1.42,0.31,2.5,0.94,3.25,1.88c0.75,0.94,1.13,2.17,1.13,3.67c0,1.91-0.61,3.4-1.83,4.47
		s-2.9,1.61-5.06,1.61s-3.83-0.54-5.05-1.61s-1.82-2.56-1.82-4.45c0-1.51,0.38-2.74,1.12-3.69
		C984.66,730.63,985.74,730,987.16,729.69z M989.65,730.88c-1.27,0-2.26,0.36-2.95,1.07c-0.69,0.71-1.04,1.72-1.04,3.02
		s0.35,2.32,1.05,3.04c0.7,0.72,1.68,1.08,2.94,1.08c1.28,0,2.27-0.36,2.97-1.07c0.69-0.71,1.04-1.73,1.04-3.05
		c0-1.29-0.35-2.3-1.06-3.02C991.9,731.23,990.91,730.88,989.65,730.88z M986.12,725.14c0,1.13,0.3,2,0.91,2.59
		c0.6,0.6,1.48,0.89,2.62,0.89c1.15,0,2.03-0.3,2.63-0.89c0.6-0.59,0.91-1.46,0.91-2.59c0-1.15-0.3-2.03-0.9-2.63
		c-0.6-0.6-1.48-0.91-2.64-0.91c-1.14,0-2.02,0.3-2.62,0.91C986.42,723.12,986.12,724,986.12,725.14z"/>
	<path d="M1013.41,740.11c-0.7,0.41-1.42,0.71-2.16,0.91s-1.5,0.3-2.27,0.3c-2.46,0-4.37-0.74-5.76-2.21
		c-1.38-1.47-2.08-3.51-2.08-6.12s0.69-4.64,2.08-6.12c1.38-1.47,3.3-2.21,5.76-2.21c0.76,0,1.51,0.1,2.24,0.3
		c0.73,0.2,1.46,0.5,2.19,0.92v2.73c-0.69-0.61-1.38-1.06-2.07-1.33c-0.69-0.27-1.48-0.41-2.36-0.41c-1.63,0-2.89,0.53-3.77,1.59
		c-0.88,1.06-1.32,2.57-1.32,4.53c0,1.96,0.44,3.46,1.32,4.52c0.88,1.06,2.14,1.59,3.76,1.59c0.91,0,1.72-0.14,2.44-0.42
		c0.72-0.28,1.38-0.71,2-1.3V740.11z"/>
	<path d="M1021.13,738.51h9.71v2.41H1018v-2.41c1.77-1.86,3.31-3.5,4.63-4.93c1.32-1.43,2.23-2.43,2.73-3.02
		c0.94-1.15,1.58-2.08,1.91-2.8c0.33-0.71,0.5-1.44,0.5-2.19c0-1.18-0.35-2.1-1.04-2.78c-0.69-0.67-1.64-1-2.85-1
		c-0.86,0-1.76,0.16-2.71,0.47c-0.94,0.31-1.94,0.78-3,1.42v-2.89c0.97-0.46,1.93-0.81,2.87-1.05c0.94-0.24,1.87-0.35,2.78-0.35
		c2.07,0,3.73,0.55,4.99,1.65c1.26,1.1,1.89,2.54,1.89,4.33c0,0.91-0.21,1.81-0.63,2.72c-0.42,0.91-1.1,1.91-2.05,3
		c-0.53,0.61-1.3,1.46-2.3,2.55C1024.71,734.72,1023.18,736.34,1021.13,738.51z"/>
	<path d="M1048.33,740.11c-0.7,0.41-1.42,0.71-2.16,0.91s-1.5,0.3-2.27,0.3c-2.46,0-4.37-0.74-5.76-2.21
		c-1.38-1.47-2.08-3.51-2.08-6.12s0.69-4.64,2.08-6.12c1.38-1.47,3.3-2.21,5.76-2.21c0.76,0,1.51,0.1,2.24,0.3
		c0.73,0.2,1.46,0.5,2.19,0.92v2.73c-0.69-0.61-1.38-1.06-2.07-1.33c-0.69-0.27-1.48-0.41-2.36-0.41c-1.63,0-2.89,0.53-3.77,1.59
		c-0.88,1.06-1.32,2.57-1.32,4.53c0,1.96,0.44,3.46,1.32,4.52c0.88,1.06,2.14,1.59,3.76,1.59c0.91,0,1.72-0.14,2.44-0.42
		c0.72-0.28,1.38-0.71,2-1.3V740.11z"/>
</g>
<g>
	<path d="M1309.17,740.14c-0.7,0.41-1.42,0.71-2.16,0.91c-0.74,0.2-1.5,0.3-2.27,0.3c-2.45,0-4.37-0.74-5.76-2.21
		s-2.07-3.51-2.07-6.12s0.69-4.64,2.07-6.12s3.3-2.21,5.76-2.21c0.76,0,1.51,0.1,2.24,0.3c0.73,0.2,1.46,0.5,2.2,0.92v2.73
		c-0.69-0.61-1.38-1.06-2.08-1.33c-0.69-0.27-1.48-0.41-2.36-0.41c-1.63,0-2.89,0.53-3.77,1.59c-0.88,1.06-1.32,2.57-1.32,4.53
		c0,1.96,0.44,3.46,1.32,4.52c0.88,1.06,2.14,1.59,3.76,1.59c0.91,0,1.72-0.14,2.44-0.42c0.72-0.28,1.38-0.71,2-1.3V740.14z"/>
	<path d="M1320.33,724.71c2.2,0,3.88,0.71,5.05,2.14s1.75,3.49,1.75,6.19c0,2.71-0.58,4.77-1.74,6.2s-2.85,2.13-5.05,2.13
		c-2.2,0-3.88-0.71-5.04-2.13s-1.74-3.49-1.74-6.2c0-2.7,0.58-4.76,1.74-6.19S1318.13,724.71,1320.33,724.71z M1320.33,726.92
		c-1.32,0-2.32,0.51-3,1.54s-1.02,2.55-1.02,4.57c0,2.01,0.34,3.53,1.02,4.57c0.68,1.03,1.68,1.55,3,1.55
		c1.33,0,2.34-0.52,3.02-1.55c0.68-1.03,1.02-2.56,1.02-4.57c0-2.02-0.34-3.54-1.02-4.57S1321.66,726.92,1320.33,726.92z"/>
	<path d="M1338.64,726.71c0.32-0.68,0.73-1.18,1.22-1.51c0.5-0.33,1.09-0.49,1.79-0.49c1.27,0,2.17,0.49,2.7,1.48
		c0.52,0.99,0.79,2.84,0.79,5.57v9.19h-2.38v-9.08c0-2.24-0.12-3.63-0.38-4.17c-0.25-0.54-0.71-0.81-1.37-0.81
		c-0.75,0-1.27,0.29-1.55,0.87c-0.28,0.58-0.42,1.95-0.42,4.11v9.08h-2.38v-9.08c0-2.27-0.13-3.66-0.4-4.19
		c-0.27-0.53-0.75-0.79-1.45-0.79c-0.69,0-1.17,0.29-1.44,0.87c-0.27,0.58-0.4,1.95-0.4,4.11v9.08h-2.36v-15.86h2.36v1.36
		c0.31-0.57,0.7-1,1.17-1.3c0.47-0.3,1-0.45,1.59-0.45c0.72,0,1.31,0.17,1.79,0.5S1338.38,726.04,1338.64,726.71z"/>
	<path d="M1356.1,726.71c0.32-0.68,0.73-1.18,1.22-1.51c0.5-0.33,1.09-0.49,1.79-0.49c1.27,0,2.17,0.49,2.7,1.48
		c0.52,0.99,0.79,2.84,0.79,5.57v9.19h-2.38v-9.08c0-2.24-0.12-3.63-0.38-4.17s-0.71-0.81-1.37-0.81c-0.76,0-1.27,0.29-1.55,0.87
		c-0.28,0.58-0.42,1.95-0.42,4.11v9.08h-2.38v-9.08c0-2.27-0.13-3.66-0.4-4.19c-0.27-0.53-0.75-0.79-1.45-0.79
		c-0.69,0-1.17,0.29-1.44,0.87c-0.27,0.58-0.4,1.95-0.4,4.11v9.08h-2.37v-15.86h2.37v1.36c0.31-0.57,0.7-1,1.17-1.3
		c0.47-0.3,1-0.45,1.59-0.45c0.72,0,1.31,0.17,1.79,0.5C1355.47,725.54,1355.84,726.04,1356.1,726.71z"/>
	<path d="M1368.46,725.15h6.67v13.78h5.17v2.03h-12.94v-2.03h5.17v-11.75h-4.06V725.15z M1372.53,718.99h2.61v3.29h-2.61V718.99z"/>
	<path d="M1390.14,720.59v4.5h5.92v2.03h-5.92v8.61c0,1.17,0.22,1.99,0.67,2.45c0.44,0.46,1.22,0.69,2.32,0.69h2.93v2.08h-3.19
		c-1.95,0-3.33-0.39-4.13-1.18c-0.8-0.78-1.2-2.13-1.2-4.05v-8.61h-4.23v-2.03h4.23v-4.5H1390.14z"/>
	<path d="M1454.22,719.81h10.71v2.41h-8.1v5.2c0.41-0.15,0.81-0.26,1.23-0.33c0.41-0.07,0.82-0.11,1.24-0.11
		c2.19,0,3.93,0.65,5.21,1.94c1.28,1.29,1.93,3.04,1.93,5.25c0,2.23-0.67,3.98-2.02,5.27c-1.34,1.28-3.18,1.93-5.52,1.93
		c-1.12,0-2.15-0.08-3.08-0.23c-0.93-0.15-1.76-0.38-2.5-0.68v-2.9c0.87,0.47,1.74,0.82,2.62,1.05s1.77,0.35,2.69,0.35
		c1.58,0,2.79-0.42,3.65-1.25c0.85-0.83,1.28-2.01,1.28-3.54c0-1.51-0.44-2.69-1.32-3.53s-2.11-1.26-3.69-1.26
		c-0.76,0-1.51,0.09-2.24,0.26c-0.73,0.17-1.42,0.44-2.08,0.79V719.81z"/>
	<path d="M1483.77,740.14c-0.7,0.41-1.42,0.71-2.16,0.91c-0.74,0.2-1.5,0.3-2.27,0.3c-2.45,0-4.37-0.74-5.76-2.21
		s-2.07-3.51-2.07-6.12s0.69-4.64,2.07-6.12s3.3-2.21,5.76-2.21c0.76,0,1.51,0.1,2.24,0.3c0.73,0.2,1.46,0.5,2.2,0.92v2.73
		c-0.69-0.61-1.38-1.06-2.08-1.33c-0.69-0.27-1.48-0.41-2.36-0.41c-1.63,0-2.89,0.53-3.77,1.59c-0.88,1.06-1.32,2.57-1.32,4.53
		c0,1.96,0.44,3.46,1.32,4.52c0.88,1.06,2.14,1.59,3.76,1.59c0.91,0,1.72-0.14,2.44-0.42c0.72-0.28,1.38-0.71,2-1.3V740.14z"/>
	<path d="M1500.24,720.28v2.63c-0.59-0.35-1.23-0.62-1.9-0.8c-0.67-0.18-1.37-0.28-2.1-0.28c-1.81,0-3.19,0.68-4.12,2.05
		s-1.4,3.37-1.4,6.03c0.45-0.94,1.08-1.67,1.88-2.17c0.8-0.5,1.72-0.76,2.76-0.76c2.04,0,3.62,0.63,4.74,1.88
		c1.12,1.25,1.68,3.02,1.68,5.32c0,2.29-0.58,4.05-1.73,5.31c-1.15,1.26-2.77,1.88-4.86,1.88c-2.45,0-4.25-0.88-5.39-2.64
		c-1.14-1.76-1.71-4.53-1.71-8.32c0-3.57,0.69-6.29,2.06-8.16c1.37-1.87,3.36-2.81,5.97-2.81c0.7,0,1.4,0.07,2.1,0.22
		C1498.91,719.79,1499.58,720,1500.24,720.28z M1495.14,729.21c-1.22,0-2.18,0.44-2.87,1.32c-0.7,0.88-1.05,2.09-1.05,3.64
		c0,1.55,0.35,2.76,1.05,3.64c0.7,0.88,1.66,1.32,2.87,1.32c1.27,0,2.22-0.42,2.86-1.25c0.64-0.83,0.96-2.07,0.96-3.7
		c0-1.64-0.32-2.88-0.96-3.71C1497.36,729.63,1496.4,729.21,1495.14,729.21z"/>
	<path d="M1518.69,740.14c-0.7,0.41-1.42,0.71-2.16,0.91c-0.74,0.2-1.5,0.3-2.27,0.3c-2.45,0-4.37-0.74-5.76-2.21
		s-2.07-3.51-2.07-6.12s0.69-4.64,2.07-6.12s3.3-2.21,5.76-2.21c0.76,0,1.51,0.1,2.24,0.3c0.73,0.2,1.46,0.5,2.2,0.92v2.73
		c-0.69-0.61-1.38-1.06-2.08-1.33c-0.69-0.27-1.48-0.41-2.36-0.41c-1.63,0-2.89,0.53-3.77,1.59c-0.88,1.06-1.32,2.57-1.32,4.53
		c0,1.96,0.44,3.46,1.32,4.52c0.88,1.06,2.14,1.59,3.76,1.59c0.91,0,1.72-0.14,2.44-0.42c0.72-0.28,1.38-0.71,2-1.3V740.14z"/>
	<path d="M1526.4,738.54h9.71v2.41h-12.84v-2.41c1.76-1.86,3.31-3.5,4.63-4.93c1.32-1.43,2.23-2.43,2.73-3.02
		c0.94-1.15,1.58-2.08,1.91-2.8c0.33-0.71,0.5-1.44,0.5-2.19c0-1.18-0.35-2.1-1.04-2.78c-0.69-0.67-1.64-1-2.85-1
		c-0.86,0-1.76,0.16-2.7,0.47c-0.94,0.31-1.95,0.78-3,1.42v-2.89c0.97-0.46,1.93-0.81,2.87-1.05c0.94-0.24,1.87-0.35,2.78-0.35
		c2.07,0,3.73,0.55,4.99,1.65c1.26,1.1,1.89,2.54,1.89,4.33c0,0.91-0.21,1.81-0.63,2.72s-1.1,1.91-2.05,3
		c-0.53,0.61-1.3,1.46-2.3,2.55C1529.99,734.76,1528.46,736.38,1526.4,738.54z"/>
	<path d="M1544.81,729.72c-1.22-0.31-2.17-0.89-2.85-1.74c-0.68-0.85-1.03-1.87-1.03-3.07c0-1.68,0.57-3.01,1.71-4
		c1.14-0.99,2.7-1.48,4.66-1.48c1.97,0,3.53,0.49,4.67,1.48c1.14,0.99,1.71,2.32,1.71,4c0,1.2-0.34,2.22-1.03,3.07
		c-0.68,0.85-1.63,1.43-2.85,1.74c1.42,0.31,2.5,0.94,3.25,1.88c0.75,0.94,1.13,2.17,1.13,3.67c0,1.91-0.61,3.4-1.83,4.47
		s-2.9,1.61-5.06,1.61s-3.83-0.54-5.05-1.61s-1.82-2.56-1.82-4.45c0-1.51,0.38-2.74,1.12-3.69
		C1542.31,730.66,1543.4,730.03,1544.81,729.72z M1547.3,730.91c-1.27,0-2.26,0.36-2.95,1.07c-0.69,0.71-1.04,1.72-1.04,3.02
		s0.35,2.32,1.05,3.04c0.7,0.72,1.68,1.08,2.94,1.08c1.28,0,2.27-0.36,2.97-1.07c0.69-0.71,1.04-1.73,1.04-3.05
		c0-1.29-0.35-2.3-1.06-3.02C1549.55,731.27,1548.57,730.91,1547.3,730.91z M1543.78,725.18c0,1.13,0.3,2,0.91,2.59
		c0.6,0.6,1.48,0.89,2.62,0.89c1.15,0,2.03-0.3,2.63-0.89c0.6-0.59,0.91-1.46,0.91-2.59c0-1.15-0.3-2.03-0.9-2.63
		c-0.6-0.6-1.48-0.91-2.64-0.91c-1.14,0-2.02,0.3-2.62,0.91C1544.08,723.16,1543.78,724.03,1543.78,725.18z"/>
	<path d="M1568.19,727.12v-8.2h2.61v22.03h-2.61v-2c-0.43,0.78-1.01,1.38-1.73,1.79c-0.72,0.41-1.56,0.62-2.5,0.62
		c-1.92,0-3.42-0.74-4.52-2.23c-1.1-1.49-1.65-3.54-1.65-6.15c0-2.58,0.55-4.6,1.66-6.07s2.61-2.2,4.52-2.2
		c0.95,0,1.79,0.21,2.52,0.62C1567.21,725.74,1567.78,726.33,1568.19,727.12z M1560.53,733.04c0,2.02,0.32,3.54,0.96,4.57
		c0.64,1.03,1.59,1.54,2.85,1.54c1.25,0,2.21-0.52,2.87-1.56c0.66-1.04,0.98-2.56,0.98-4.56c0-2.01-0.33-3.53-0.98-4.57
		c-0.66-1.03-1.61-1.55-2.87-1.55c-1.26,0-2.2,0.51-2.85,1.54C1560.85,729.49,1560.53,731.02,1560.53,733.04z"/>
</g>
</svg>
